<svg xmlns="http://www.w3.org/2000/svg" xmlns:xlink="http://www.w3.org/1999/xlink" version="1.1" data-diagram-type="DESCRIPTION" style="width:624px;height:849px;background:#FFFFFF;" width="624px" height="849px" viewBox="0 0 624 849" zoomAndPan="magnify" preserveAspectRatio="none" contentStyleType="text/css"><?plantuml 1.2026.7?><defs/><g font-family="sans-serif" lengthAdjust="spacing"><g class="title" data-source-line="5"><text x="134.537" y="38.518" fill="#000" font-size="22" textLength="352.969" font-weight="700" font-family="Verdana">Client-Server Architectural Style</text></g><!--cluster clients--><g class="cluster" data-qualified-name="clients" id="ent0001" data-source-line="7"><rect x="12" y="106.264" width="415" height="103" fill="#FFF" style="stroke:#000;stroke-width:1;" rx="3" ry="3"/><text x="198.944" y="121.092" fill="#000" font-size="12" textLength="41.112" font-weight="700" font-family="Verdana">Clients</text></g><!--cluster servers--><g class="cluster" data-qualified-name="servers" id="ent0005" data-source-line="13"><rect x="113" y="387.264" width="286" height="261" fill="#FFF" style="stroke:#000;stroke-width:1;" rx="3" ry="3"/><text x="223.606" y="402.092" fill="#000" font-size="12" textLength="64.788" font-weight="700" font-family="Verdana">Server Tier</text></g><!--cluster app--><g class="cluster" data-qualified-name="servers.app" id="ent0006" data-source-line="14"><rect x="153" y="461.264" width="132" height="155" fill="#C8E6C9" style="stroke:#000;stroke-width:1;" rx="3" ry="3"/><text x="184.806" y="476.092" fill="#000" font-size="12" textLength="68.388" font-weight="700" font-family="Verdana">Application</text><text x="199.74" y="492.436" fill="#000" font-size="12" textLength="38.52" font-weight="700" font-family="Verdana">Server</text></g><!--entity wc--><g class="entity" data-qualified-name="clients.wc" id="ent0002" data-source-line="8"><rect x="55.5" y="149.264" width="80.72" height="36.344" fill="#E3F2FD" style="stroke:#000;stroke-width:1;" rx="3" ry="3"/><text x="65.5" y="172.092" fill="#000" font-size="12" textLength="25.308" font-family="Verdana">Web</text><text x="90.808" y="172.092" fill="#000" font-size="12" font-family="Verdana"> </text><text x="93.928" y="172.092" fill="#000" font-size="12" textLength="32.292" font-family="Verdana">Client</text></g><!--entity mc--><g class="entity" data-qualified-name="clients.mc" id="ent0003" data-source-line="9"><rect x="172" y="149.264" width="93.897" height="36.344" fill="#E3F2FD" style="stroke:#000;stroke-width:1;" rx="3" ry="3"/><text x="182" y="172.092" fill="#000" font-size="12" textLength="38.484" font-family="Verdana">Mobile</text><text x="220.484" y="172.092" fill="#000" font-size="12" font-family="Verdana"> </text><text x="223.604" y="172.092" fill="#000" font-size="12" textLength="32.292" font-family="Verdana">Client</text></g><!--entity dc--><g class="entity" data-qualified-name="clients.dc" id="ent0004" data-source-line="10"><rect x="301" y="149.264" width="102.069" height="36.344" fill="#E3F2FD" style="stroke:#000;stroke-width:1;" rx="3" ry="3"/><text x="311" y="172.092" fill="#000" font-size="12" textLength="46.656" font-family="Verdana">Desktop</text><text x="357.656" y="172.092" fill="#000" font-size="12" font-family="Verdana"> </text><text x="360.776" y="172.092" fill="#000" font-size="12" textLength="32.292" font-family="Verdana">Client</text></g><!--entity db--><g class="entity" data-qualified-name="servers.db" id="ent0008" data-source-line="18"><path d="M301.5,440.264 C301.5,430.264 338.092,430.264 338.092,430.264 C338.092,430.264 374.684,430.264 374.684,440.264 L374.684,481.952 C374.684,491.952 338.092,491.952 338.092,491.952 C338.092,491.952 301.5,491.952 301.5,481.952 L301.5,440.264" style="stroke:#000;stroke-width:1;" fill="#FFF9C4"/><path d="M301.5,440.264 C301.5,450.264 338.092,450.264 338.092,450.264 C338.092,450.264 374.684,450.264 374.684,440.264" style="stroke:#000;stroke-width:1;" fill="none"/><text x="311.5" y="467.092" fill="#000" font-size="12" textLength="53.184" font-family="Verdana">Database</text><text x="320.026" y="483.436" fill="#000" font-size="12" textLength="36.132" font-family="Verdana">Server</text></g><g class="entity" data-qualified-name="servers.app.api" id="ent0007" data-source-line="15"><text x="209.502" y="439.748" fill="#000" font-size="12" textLength="18.996" font-family="Verdana">API</text><rect x="213" y="455.264" width="12" height="12" fill="#FFF" style="stroke:#000;stroke-width:1.5;"/></g><!--entity rr1--><g class="entity" data-qualified-name="rr1" id="ent0009" data-source-line="21"><rect x="32.5" y="279.264" width="101.169" height="52.688" fill="#FFF8E1" style="stroke:#000;stroke-width:1;" rx="3" ry="3"/><text x="42.5" y="302.092" fill="#000" font-size="12" textLength="81.169" font-family="Verdana">Request/Reply</text><text x="53.708" y="318.436" fill="#000" font-size="12" textLength="58.752" font-family="Verdana">Connector</text></g><!--entity rr2--><g class="entity" data-qualified-name="rr2" id="ent0010" data-source-line="22"><rect x="168.5" y="279.264" width="101.169" height="52.688" fill="#FFF8E1" style="stroke:#000;stroke-width:1;" rx="3" ry="3"/><text x="178.5" y="302.092" fill="#000" font-size="12" textLength="81.169" font-family="Verdana">Request/Reply</text><text x="189.708" y="318.436" fill="#000" font-size="12" textLength="58.752" font-family="Verdana">Connector</text></g><!--entity rr3--><g class="entity" data-qualified-name="rr3" id="ent0011" data-source-line="23"><rect x="304.5" y="279.264" width="101.169" height="52.688" fill="#FFF8E1" style="stroke:#000;stroke-width:1;" rx="3" ry="3"/><text x="314.5" y="302.092" fill="#000" font-size="12" textLength="81.169" font-family="Verdana">Request/Reply</text><text x="325.708" y="318.436" fill="#000" font-size="12" textLength="58.752" font-family="Verdana">Connector</text></g><!--entity da--><g class="entity" data-qualified-name="da" id="ent0012" data-source-line="24"><rect x="229.5" y="703.264" width="87.128" height="52.688" fill="#FFF8E1" style="stroke:#000;stroke-width:1;" rx="3" ry="3"/><text x="239.5" y="726.092" fill="#000" font-size="12" textLength="26.556" font-family="Verdana">Data</text><text x="266.056" y="726.092" fill="#000" font-size="12" font-family="Verdana"> </text><text x="269.176" y="726.092" fill="#000" font-size="12" textLength="37.452" font-family="Verdana">Access</text><text x="243.688" y="742.436" fill="#000" font-size="12" textLength="58.752" font-family="Verdana">Connector</text></g><g class="entity" data-qualified-name="GMN21" id="ent0022" data-source-line="38"><path d="M451,135.264 L451,199.192 A3,3 0 0 0 454,202.192 L580.264,202.192 A3,3 0 0 0 583.264,199.192 L583.264,142.264 L573.264,132.264 L454,132.264 A3,3 0 0 0 451,135.264" style="stroke:#000;stroke-width:1;" fill="#FFF"/><path d="M573.264,132.264 L573.264,140.764 A1.5,1.5 0 0 0 574.764,142.264 L583.264,142.264 L573.264,132.264" style="stroke:#000;stroke-width:1;" fill="#FFF"/><text x="493.789" y="149.023" fill="#000" font-size="11" textLength="37.686" font-weight="700" font-family="Verdana">Clients</text><text x="467.23" y="164.005" fill="#000" font-size="11" font-family="Verdana">-</text><text x="470.772" y="164.005" fill="#000" font-size="11" font-family="Verdana"> </text><text x="473.632" y="164.005" fill="#000" font-size="11" textLength="36.52" font-family="Verdana">Initiate</text><text x="510.152" y="164.005" fill="#000" font-size="11" font-family="Verdana"> </text><text x="513.012" y="164.005" fill="#000" font-size="11" textLength="45.023" font-family="Verdana">requests</text><text x="461.691" y="178.987" fill="#000" font-size="11" font-family="Verdana">-</text><text x="465.233" y="178.987" fill="#000" font-size="11" font-family="Verdana"> </text><text x="468.093" y="178.987" fill="#000" font-size="11" textLength="39.644" font-family="Verdana">Present</text><text x="507.737" y="178.987" fill="#000" font-size="11" font-family="Verdana"> </text><text x="510.597" y="178.987" fill="#000" font-size="11" textLength="52.976" font-family="Verdana">responses</text><text x="457" y="193.969" fill="#000" font-size="11" font-family="Verdana">-</text><text x="460.542" y="193.969" fill="#000" font-size="11" font-family="Verdana"> </text><text x="463.402" y="193.969" fill="#000" font-size="11" textLength="45.936" font-family="Verdana">Stateless</text><text x="509.338" y="193.969" fill="#000" font-size="11" font-family="Verdana"> </text><text x="512.198" y="193.969" fill="#000" font-size="11" textLength="56.067" font-family="Verdana">interaction</text></g><g class="entity" data-qualified-name="GMN24" id="ent0025" data-source-line="45"><path d="M423,429.264 L423,493.192 A3,3 0 0 0 426,496.192 L606.043,496.192 A3,3 0 0 0 609.043,493.192 L609.043,436.264 L599.043,426.264 L426,426.264 A3,3 0 0 0 423,429.264" style="stroke:#000;stroke-width:1;" fill="#FFF"/><path d="M599.043,426.264 L599.043,434.764 A1.5,1.5 0 0 0 600.543,436.264 L609.043,436.264 L599.043,426.264" style="stroke:#000;stroke-width:1;" fill="#FFF"/><text x="491.133" y="443.023" fill="#000" font-size="11" textLength="40.777" font-weight="700" font-family="Verdana">Servers</text><text x="465.916" y="458.005" fill="#000" font-size="11" font-family="Verdana">-</text><text x="469.458" y="458.005" fill="#000" font-size="11" font-family="Verdana"> </text><text x="472.318" y="458.005" fill="#000" font-size="11" textLength="36.927" font-family="Verdana">Handle</text><text x="509.244" y="458.005" fill="#000" font-size="11" font-family="Verdana"> </text><text x="512.104" y="458.005" fill="#000" font-size="11" textLength="45.023" font-family="Verdana">requests</text><text x="460.779" y="472.987" fill="#000" font-size="11" font-family="Verdana">-</text><text x="464.321" y="472.987" fill="#000" font-size="11" font-family="Verdana"> </text><text x="467.181" y="472.987" fill="#000" font-size="11" textLength="39.248" font-family="Verdana">Provide</text><text x="506.428" y="472.987" fill="#000" font-size="11" font-family="Verdana"> </text><text x="509.288" y="472.987" fill="#000" font-size="11" textLength="52.976" font-family="Verdana">responses</text><text x="429" y="487.969" fill="#000" font-size="11" font-family="Verdana">-</text><text x="432.542" y="487.969" fill="#000" font-size="11" font-family="Verdana"> </text><text x="435.402" y="487.969" fill="#000" font-size="11" textLength="21.758" font-family="Verdana">May</text><text x="457.16" y="487.969" fill="#000" font-size="11" font-family="Verdana"> </text><text x="460.02" y="487.969" fill="#000" font-size="11" textLength="12.969" font-family="Verdana">be</text><text x="472.989" y="487.969" fill="#000" font-size="11" font-family="Verdana"> </text><text x="475.849" y="487.969" fill="#000" font-size="11" textLength="33.198" font-family="Verdana">clients</text><text x="509.046" y="487.969" fill="#000" font-size="11" font-family="Verdana"> </text><text x="511.906" y="487.969" fill="#000" font-size="11" textLength="10.626" font-family="Verdana">to</text><text x="522.532" y="487.969" fill="#000" font-size="11" font-family="Verdana"> </text><text x="525.392" y="487.969" fill="#000" font-size="11" textLength="28.171" font-family="Verdana">other</text><text x="553.563" y="487.969" fill="#000" font-size="11" font-family="Verdana"> </text><text x="556.423" y="487.969" fill="#000" font-size="11" textLength="37.62" font-family="Verdana">servers</text></g><!--link wc to rr1--><g class="link" data-entity-1="ent0002" data-entity-2="ent0009" id="lnk13" data-source-line="26" data-link-type="dependency"><path d="M94.38,185.274 C92.13,208.864 88.535,246.707 85.915,274.167" style="stroke:#000;stroke-width:1;" fill="none" id="wc-to-rr1"/><polygon points="85.44,279.144,90.277,270.565,85.915,274.167,82.313,269.805,85.44,279.144" fill="#000" style="stroke:#000;stroke-width:1;stroke-linejoin:miter;stroke-miterlimit:10;"/><text x="91" y="246.023" fill="#000" font-size="11" textLength="39.754" font-family="Verdana">request</text></g><!--link mc to rr2--><g class="link" data-entity-1="ent0003" data-entity-2="ent0010" id="lnk14" data-source-line="27" data-link-type="dependency"><path d="M219,185.274 C219,208.864 219,246.684 219,274.144" style="stroke:#000;stroke-width:1;" fill="none" id="mc-to-rr2"/><polygon points="219,279.144,223,270.144,219,274.144,215,270.144,219,279.144" fill="#000" style="stroke:#000;stroke-width:1;stroke-linejoin:miter;stroke-miterlimit:10;"/><text x="220" y="246.023" fill="#000" font-size="11" textLength="39.754" font-family="Verdana">request</text></g><!--link dc to rr3--><g class="link" data-entity-1="ent0004" data-entity-2="ent0011" id="lnk15" data-source-line="28" data-link-type="dependency"><path d="M352.37,185.274 C352.89,208.864 353.719,246.685 354.329,274.145" style="stroke:#000;stroke-width:1;" fill="none" id="dc-to-rr3"/><polygon points="354.44,279.144,358.239,270.057,354.329,274.145,350.241,270.235,354.44,279.144" fill="#000" style="stroke:#000;stroke-width:1;stroke-linejoin:miter;stroke-miterlimit:10;"/><text x="354" y="246.023" fill="#000" font-size="11" textLength="39.754" font-family="Verdana">request</text></g><!--link rr1 to api--><g class="link" data-entity-1="ent0009" data-entity-2="ent0007" id="lnk16" data-source-line="30" data-link-type="dependency"><path d="M133.84,326.934 C164.53,340.174 199.5,357.514 209,371.264 C227.39,397.864 223.323,435.062 220.843,449.922" style="stroke:#000;stroke-width:1;" fill="none" id="rr1-to-api"/><polygon points="220.02,454.854,225.447,446.635,220.843,449.922,217.556,445.318,220.02,454.854" fill="#000" style="stroke:#000;stroke-width:1;stroke-linejoin:miter;stroke-miterlimit:10;"/></g><!--link rr2 to api--><g class="link" data-entity-1="ent0010" data-entity-2="ent0007" id="lnk17" data-source-line="31" data-link-type="dependency"><path d="M219,332.454 C219,369.664 219,431.184 219,450.114" style="stroke:#000;stroke-width:1;" fill="none" id="rr2-to-api"/><polygon points="219,455.114,223,446.114,219,450.114,215,446.114,219,455.114" fill="#000" style="stroke:#000;stroke-width:1;stroke-linejoin:miter;stroke-miterlimit:10;"/></g><!--link rr3 to api--><g class="link" data-entity-1="ent0011" data-entity-2="ent0007" id="lnk18" data-source-line="32" data-link-type="dependency"><path d="M305.5,332.334 C286.59,342.064 264.82,353.224 245,363.264 C237.91,366.854 233.55,364.744 229,371.264 C210.49,397.784 214.628,435.034 217.138,449.914" style="stroke:#000;stroke-width:1;" fill="none" id="rr3-to-api"/><polygon points="217.97,454.844,220.417,445.304,217.138,449.914,212.529,446.635,217.97,454.844" fill="#000" style="stroke:#000;stroke-width:1;stroke-linejoin:miter;stroke-miterlimit:10;"/></g><!--link app to da--><g class="link" data-entity-1="ent0006" data-entity-2="ent0012" id="lnk19" data-source-line="34" data-link-type="dependency"><path d="M233.407,616.59 C236.647,625.773 240.2,635.838 243.805,646.053 C251.015,666.482 256.771,682.789 262.326,698.529" style="stroke:#000;stroke-width:1;" fill="none" id="app-to-da"/><polygon points="263.99,703.244,264.767,693.426,262.326,698.529,257.223,696.088,263.99,703.244" fill="#000" style="stroke:#000;stroke-width:1;stroke-linejoin:miter;stroke-miterlimit:10;"/></g><!--link da to db--><g class="link" data-entity-1="ent0012" data-entity-2="ent0008" id="lnk20" data-source-line="35" data-link-type="dependency"><path d="M279.24,703.174 C291.31,653.684 316.605,549.992 329.485,497.172" style="stroke:#000;stroke-width:1;" fill="none" id="da-to-db"/><polygon points="330.67,492.314,324.652,500.11,329.485,497.172,332.424,502.006,330.67,492.314" fill="#000" style="stroke:#000;stroke-width:1;stroke-linejoin:miter;stroke-miterlimit:10;"/></g><!--link clients to GMN21--><g class="link" data-entity-1="ent0001" data-entity-2="ent0022" id="lnk23" data-source-line="38" data-link-type="association"><path d="M28.618,106.115 C28.738,105.81 28.86,105.506 28.983,105.203 C29.476,103.991 29.995,102.793 30.542,101.612 C31.635,99.252 32.837,96.964 34.16,94.777 C39.453,86.029 46.67,78.902 56.5,75.264 C92.45,61.964 365.31,62.614 401.5,75.264 C433.93,86.604 464.05,111.274 485.4,132.224" style="stroke:#000;stroke-width:1;stroke-dasharray:7,7;" fill="none" id="clients-GMN21"/></g><!--link servers to GMN24--><g class="link" data-entity-1="ent0005" data-entity-2="ent0025" id="lnk26" data-source-line="45" data-link-type="association"><path d="M131.579,387.128 C131.652,386.949 131.726,386.77 131.799,386.592 C132.095,385.877 132.399,385.167 132.71,384.461 C133.956,381.639 135.329,378.89 136.841,376.247 C142.891,365.678 151.175,356.817 162.5,351.764 C205.32,332.654 329.1,336.674 373.5,351.764 C416.63,366.424 456.91,399.974 483.57,426.104" style="stroke:#000;stroke-width:1;stroke-dasharray:7,7;" fill="none" id="servers-GMN24"/></g><g class="legend" data-source-line="51"><rect x="149.467" y="768.952" width="323.11" height="68.48" fill="none" style="stroke:#000;stroke-width:1;" rx="3" ry="3"/><text x="157.067" y="786.642" fill="#000" font-size="10" textLength="41.2" font-weight="700" font-family="Verdana">Element</text><text x="211.227" y="786.642" fill="#000" font-size="10" textLength="21.75" font-weight="700" font-family="Verdana">Role</text><text x="284.066" y="786.642" fill="#000" font-size="10" textLength="75.01" font-weight="700" font-family="Verdana">Characteristics</text><text x="157.067" y="800.262" fill="#000" font-size="10" textLength="26.91" font-family="Verdana">Client</text><text x="211.227" y="800.262" fill="#000" font-size="10" textLength="48" font-family="Verdana">Requester</text><text x="284.066" y="800.262" fill="#000" font-size="10" textLength="169.46" font-family="Verdana">Initiates interaction, receives results</text><text x="157.067" y="813.882" fill="#000" font-size="10" textLength="30.11" font-family="Verdana">Server</text><text x="211.227" y="813.882" fill="#000" font-size="10" textLength="39.81" font-family="Verdana">Provider</text><text x="284.066" y="813.882" fill="#000" font-size="10" textLength="180.91" font-family="Verdana">Processes requests, returns responses</text><text x="157.067" y="827.502" fill="#000" font-size="10" textLength="48.96" font-family="Verdana">Connector</text><text x="211.227" y="827.502" fill="#000" font-size="10" textLength="67.64" font-family="Verdana">Request/Reply</text><text x="284.066" y="827.502" fill="#000" font-size="10" textLength="147.16" font-family="Verdana">Synchronous, asymmetric roles</text><line x1="154.467" y1="775.952" x2="467.576" y2="775.952" style="stroke:#000;stroke-width:1;"/><line x1="154.467" y1="789.572" x2="467.576" y2="789.572" style="stroke:#000;stroke-width:1;"/><line x1="154.467" y1="803.192" x2="467.576" y2="803.192" style="stroke:#000;stroke-width:1;"/><line x1="154.467" y1="816.812" x2="467.576" y2="816.812" style="stroke:#000;stroke-width:1;"/><line x1="154.467" y1="830.432" x2="467.576" y2="830.432" style="stroke:#000;stroke-width:1;"/><line x1="154.467" y1="775.952" x2="154.467" y2="830.432" style="stroke:#000;stroke-width:1;"/><line x1="208.627" y1="775.952" x2="208.627" y2="830.432" style="stroke:#000;stroke-width:1;"/><line x1="281.466" y1="775.952" x2="281.466" y2="830.432" style="stroke:#000;stroke-width:1;"/><line x1="467.576" y1="775.952" x2="467.576" y2="830.432" style="stroke:#000;stroke-width:1;"/></g><?plantuml-src dLHDRzim3BthLx39BLWID1c6Ti061Fd0UYXGf0DswKMMEKUeB7aIdI5O-jz7oHz9i-wm6OPDqU_naHBfAssLgNE4oMHwSPDpHjjY6kXWC4mh8otLfU6rhnNLNfgfScNbB5eQvreMNfRZ19venWbnHJii4PYehH2aoI0iZOxmH_HxzB3mQgS9csZm6Bb2L58zom9Xq63306G0rTZmIm1VlIuClc7M1asudmg6w_bcjbbT0kzTfli44hRyAtQ5uPbSTGxEJ-2NinpRGhvgz0aMqlgDF1TLPRIIf9rziWqh4MHLmN1vi_wml6r9yQgS9ssPzN3NedJwzfAUwP5BafaCdCEgjLx5pJCORZQRs-NxcA_dFPQsuFe7M_nHOw3f5YjpUB9BPor_T0tB--j4krbV_mDdzX-S-LkSM0aibC8GBXcvx0c23tay_foI_GY-qH5bvvoTEVFEEJzpYaYCxhYh4N-ovxqjui74HIu5QoSh4y8wGl2ws16uxrrNydcCHcstZaQy6iETrQHbn3QY8NaVF8RO3VpYlWZOU1-9WJnY0RGbz5B59X5eSuXgbvfjXoNDvhmxpI_IvkOFHRVNELuetii3PDWF5JbmFAk-ZttIDbZ4HUQ8NCdSuoTO6vvgBeBDhMCzVYztCgQDNWVIAi0n8jlfOQDj1HOuzXlpgjXtd9z2lMSl9reRwaAqutNiwcZDs209srGQwVmBiU5KPfT2rqEdB9g6ZB4FLksyiwxc038SoXB9QmMUYufyZBiPgnU_0G00?></g></svg>