<svg xmlns="http://www.w3.org/2000/svg" xmlns:xlink="http://www.w3.org/1999/xlink" version="1.1" data-diagram-type="DESCRIPTION" style="width:629px;height:277px;" width="629px" height="277px" viewBox="0 0 629 277" zoomAndPan="magnify" preserveAspectRatio="none" contentStyleType="text/css"><?plantuml 1.2026.7?><defs/><g font-family="sans-serif" lengthAdjust="spacing"><g class="title" data-source-line="2"><text x="159.288" y="24.852" fill="#1F3B73" font-size="16" textLength="304.047" font-weight="700" font-family="'Helvetica'">E-Commerce System — Uses View</text><text x="73.14" y="43.477" fill="#1F3B73" font-size="16" textLength="476.344" font-weight="700" font-family="'Helvetica'">Functional dependencies between top-level modules</text></g><!--entity OM--><g class="entity" data-qualified-name="OM" id="ent0001" data-source-line="6"><rect x="268" y="65.25" width="99.049" height="61.906" fill="#F7F7F2" style="stroke:#B8B8B0;stroke-width:0.5;" rx="3" ry="3"/><text x="296.99" y="86.389" fill="#2D2D2D" font-size="12" textLength="41.068" font-style="italic" font-family="'Helvetica'">«core»</text><text x="300.368" y="100.357" fill="#2D2D2D" font-size="12" textLength="34.313" font-family="'Helvetica'">Order</text><text x="278" y="114.326" fill="#2D2D2D" font-size="12" textLength="79.049" font-family="'Helvetica'">Management</text></g><!--entity CM--><g class="entity" data-qualified-name="CM" id="ent0002" data-source-line="8"><rect x="7" y="201.25" width="99.049" height="61.906" fill="#F7F7F2" style="stroke:#B8B8B0;stroke-width:0.5;" rx="3" ry="3"/><text x="26.082" y="222.389" fill="#2D2D2D" font-size="12" textLength="60.885" font-style="italic" font-family="'Helvetica'">«support»</text><text x="33.482" y="236.357" fill="#2D2D2D" font-size="12" textLength="46.084" font-family="'Helvetica'">Catalog</text><text x="17" y="250.326" fill="#2D2D2D" font-size="12" textLength="79.049" font-family="'Helvetica'">Management</text></g><!--entity CU--><g class="entity" data-qualified-name="CU" id="ent0003" data-source-line="9"><rect x="141" y="201.25" width="99.049" height="61.906" fill="#F7F7F2" style="stroke:#B8B8B0;stroke-width:0.5;" rx="3" ry="3"/><text x="160.082" y="222.389" fill="#2D2D2D" font-size="12" textLength="60.885" font-style="italic" font-family="'Helvetica'">«support»</text><text x="161.38" y="236.357" fill="#2D2D2D" font-size="12" textLength="58.289" font-family="'Helvetica'">Customer</text><text x="151" y="250.326" fill="#2D2D2D" font-size="12" textLength="79.049" font-family="'Helvetica'">Management</text></g><!--entity PP--><g class="entity" data-qualified-name="PP" id="ent0004" data-source-line="10"><rect x="275" y="201.25" width="84.553" height="61.906" fill="#F7F7F2" style="stroke:#B8B8B0;stroke-width:0.5;" rx="3" ry="3"/><text x="286.834" y="222.389" fill="#2D2D2D" font-size="12" textLength="60.885" font-style="italic" font-family="'Helvetica'">«support»</text><text x="290.739" y="236.357" fill="#2D2D2D" font-size="12" textLength="53.074" font-family="'Helvetica'">Payment</text><text x="285" y="250.326" fill="#2D2D2D" font-size="12" textLength="64.553" font-family="'Helvetica'">Processing</text></g><!--entity IM--><g class="entity" data-qualified-name="IM" id="ent0005" data-source-line="11"><rect x="395" y="201.25" width="99.049" height="61.906" fill="#F7F7F2" style="stroke:#B8B8B0;stroke-width:0.5;" rx="3" ry="3"/><text x="414.082" y="222.389" fill="#2D2D2D" font-size="12" textLength="60.885" font-style="italic" font-family="'Helvetica'">«support»</text><text x="415.866" y="236.357" fill="#2D2D2D" font-size="12" textLength="57.316" font-family="'Helvetica'">Inventory</text><text x="405" y="250.326" fill="#2D2D2D" font-size="12" textLength="79.049" font-family="'Helvetica'">Management</text></g><!--entity SI--><g class="entity" data-qualified-name="SI" id="ent0006" data-source-line="12"><rect x="529.5" y="201.25" width="86.123" height="61.906" fill="#F7F7F2" style="stroke:#B8B8B0;stroke-width:0.5;" rx="3" ry="3"/><text x="542.119" y="222.389" fill="#2D2D2D" font-size="12" textLength="60.885" font-style="italic" font-family="'Helvetica'">«support»</text><text x="546.388" y="236.357" fill="#2D2D2D" font-size="12" textLength="52.348" font-family="'Helvetica'">Shipping</text><text x="539.5" y="250.326" fill="#2D2D2D" font-size="12" textLength="66.123" font-family="'Helvetica'">Integration</text></g><g class="entity" data-qualified-name="GMN12" id="ent0013" data-source-line="21"><path d="M402.5,75.25 L402.5,92.25 L367.12,96.25 L402.5,100.25 L402.5,117.664 A3,3 0 0 0 405.5,120.664 L611.55,120.664 A3,3 0 0 0 614.55,117.664 L614.55,82.25 L604.55,72.25 L405.5,72.25 A3,3 0 0 0 402.5,75.25" style="stroke:#B8B8B0;stroke-width:0.5;" fill="#F7F7F2"/><path d="M604.55,72.25 L604.55,80.75 A1.5,1.5 0 0 0 606.05,82.25 L614.55,82.25 L604.55,72.25" style="stroke:#B8B8B0;stroke-width:0.5;" fill="#F7F7F2"/><text x="426.077" y="87.46" fill="#2D2D2D" font-size="11" textLength="40.052" font-family="'Helvetica'">Central</text><text x="466.129" y="87.46" fill="#2D2D2D" font-size="11" font-family="'Helvetica'"> </text><text x="469.626" y="87.46" fill="#2D2D2D" font-size="11" textLength="41.223" font-family="'Helvetica'">module</text><text x="510.849" y="87.46" fill="#2D2D2D" font-size="11" font-family="'Helvetica'"> </text><text x="514.345" y="87.46" fill="#2D2D2D" font-size="11" textLength="23.337" font-family="'Helvetica'">with</text><text x="537.683" y="87.46" fill="#2D2D2D" font-size="11" font-family="'Helvetica'"> </text><text x="541.179" y="87.46" fill="#2D2D2D" font-size="11" textLength="40.793" font-family="'Helvetica'">highest</text><text x="429.603" y="100.265" fill="#2D2D2D" font-size="11" textLength="39.569" font-family="'Helvetica'">fan-out</text><text x="469.172" y="100.265" fill="#2D2D2D" font-size="11" font-family="'Helvetica'"> </text><text x="472.668" y="100.265" fill="#2D2D2D" font-size="11" textLength="67.751" font-family="'Helvetica'">dependency</text><text x="540.419" y="100.265" fill="#2D2D2D" font-size="11" font-family="'Helvetica'"> </text><text x="543.916" y="100.265" fill="#2D2D2D" font-size="11" textLength="34.531" font-family="'Helvetica'">count.</text><text x="408.5" y="113.07" fill="#2D2D2D" font-size="11" textLength="47.846" font-family="'Helvetica'">Changes</text><text x="456.346" y="113.07" fill="#2D2D2D" font-size="11" font-family="'Helvetica'"> </text><text x="459.842" y="113.07" fill="#2D2D2D" font-size="11" textLength="25.029" font-family="'Helvetica'">here</text><text x="484.872" y="113.07" fill="#2D2D2D" font-size="11" font-family="'Helvetica'"> </text><text x="488.368" y="113.07" fill="#2D2D2D" font-size="11" textLength="26.99" font-family="'Helvetica'">have</text><text x="515.358" y="113.07" fill="#2D2D2D" font-size="11" font-family="'Helvetica'"> </text><text x="518.854" y="113.07" fill="#2D2D2D" font-size="11" textLength="35.847" font-family="'Helvetica'">widest</text><text x="554.701" y="113.07" fill="#2D2D2D" font-size="11" font-family="'Helvetica'"> </text><text x="558.198" y="113.07" fill="#2D2D2D" font-size="11" textLength="41.352" font-family="'Helvetica'">impact.</text></g><!--link OM to CM--><g class="link" data-entity-1="ent0001" data-entity-2="ent0002" id="lnk7" data-source-line="14" data-link-type="dependency"><path d="M267.92,107.42 C229.86,116.65 176.99,132.63 135.5,157.25 C115.95,168.85 100.696,182.416 86.386,197.296" style="stroke:#E11D48;stroke-width:2;" fill="none" id="OM-to-CM"/><polygon points="82.92,200.9,92.042,197.186,86.386,197.296,86.275,191.64,82.92,200.9" fill="#E11D48" style="stroke:#E11D48;stroke-width:2;stroke-linejoin:miter;stroke-miterlimit:10;"/><text x="136.5" y="168.46" fill="#2D2D2D" font-size="11" font-family="'Helvetica'"> </text><text x="139.997" y="168.46" fill="#2D2D2D" font-size="11" textLength="42.55" font-family="'Helvetica'">product</text><text x="182.546" y="168.46" fill="#2D2D2D" font-size="11" font-family="'Helvetica'"> </text><text x="186.043" y="168.46" fill="#2D2D2D" font-size="11" textLength="20.63" font-family="'Helvetica'">info</text></g><!--link OM to CU--><g class="link" data-entity-1="ent0001" data-entity-2="ent0003" id="lnk8" data-source-line="15" data-link-type="dependency"><path d="M267.6,122.23 C252.35,131.64 236.46,143.46 224.5,157.25 C213.57,169.86 207.288,181.894 201.758,196.244" style="stroke:#E11D48;stroke-width:2;" fill="none" id="OM-to-CU"/><polygon points="199.96,200.91,206.929,193.95,201.758,196.244,199.464,191.074,199.96,200.91" fill="#E11D48" style="stroke:#E11D48;stroke-width:2;stroke-linejoin:miter;stroke-miterlimit:10;"/><text x="225.5" y="168.46" fill="#2D2D2D" font-size="11" font-family="'Helvetica'"> </text><text x="228.997" y="168.46" fill="#2D2D2D" font-size="11" textLength="51.799" font-family="'Helvetica'">customer</text><text x="280.795" y="168.46" fill="#2D2D2D" font-size="11" font-family="'Helvetica'"> </text><text x="284.292" y="168.46" fill="#2D2D2D" font-size="11" textLength="24.777" font-family="'Helvetica'">data</text></g><!--link OM to PP--><g class="link" data-entity-1="ent0001" data-entity-2="ent0004" id="lnk9" data-source-line="16" data-link-type="dependency"><path d="M317.5,127.32 C317.5,149.24 317.5,173.82 317.5,195.81" style="stroke:#E11D48;stroke-width:2;" fill="none" id="OM-to-PP"/><polygon points="317.5,200.81,321.5,191.81,317.5,195.81,313.5,191.81,317.5,200.81" fill="#E11D48" style="stroke:#E11D48;stroke-width:2;stroke-linejoin:miter;stroke-miterlimit:10;"/><text x="318.5" y="168.46" fill="#2D2D2D" font-size="11" font-family="'Helvetica'"> </text><text x="321.997" y="168.46" fill="#2D2D2D" font-size="11" textLength="54.731" font-family="'Helvetica'">payments</text></g><!--link OM to IM--><g class="link" data-entity-1="ent0001" data-entity-2="ent0005" id="lnk10" data-source-line="17" data-link-type="dependency"><path d="M353.88,127.27 C364.43,136.52 375.73,146.98 385.5,157.25 C398.52,170.94 408.705,183.294 419.325,197.124" style="stroke:#E11D48;stroke-width:2;" fill="none" id="OM-to-IM"/><polygon points="422.37,201.09,420.061,191.516,419.325,197.124,413.716,196.388,422.37,201.09" fill="#E11D48" style="stroke:#E11D48;stroke-width:2;stroke-linejoin:miter;stroke-miterlimit:10;"/><text x="399.5" y="168.46" fill="#2D2D2D" font-size="11" font-family="'Helvetica'"> </text><text x="402.997" y="168.46" fill="#2D2D2D" font-size="11" textLength="29.192" font-family="'Helvetica'">stock</text><text x="432.188" y="168.46" fill="#2D2D2D" font-size="11" font-family="'Helvetica'"> </text><text x="435.685" y="168.46" fill="#2D2D2D" font-size="11" textLength="44.489" font-family="'Helvetica'">updates</text></g><!--link OM to SI--><g class="link" data-entity-1="ent0001" data-entity-2="ent0006" id="lnk11" data-source-line="18" data-link-type="dependency"><path d="M367.33,120.13 C373.4,122.65 379.56,125.09 385.5,127.25 C430.3,143.58 446.72,134.27 488.5,157.25 C509.28,168.68 525.762,182.517 541.062,197.537" style="stroke:#E11D48;stroke-width:2;" fill="none" id="OM-to-SI"/><polygon points="544.63,201.04,541.01,191.881,541.062,197.537,535.405,197.59,544.63,201.04" fill="#E11D48" style="stroke:#E11D48;stroke-width:2;stroke-linejoin:miter;stroke-miterlimit:10;"/><text x="509.5" y="168.46" fill="#2D2D2D" font-size="11" font-family="'Helvetica'"> </text><text x="512.997" y="168.46" fill="#2D2D2D" font-size="11" textLength="44.172" font-family="'Helvetica'">delivery</text></g><?plantuml-src VPB1ZjCm48RlUOgXN4cZbJWWLFKI5Yc7rLQgoeLoSErfOk7CMFQuLMuy14_8ap3fhWJBqagvMFc-6S_l4Iy1ONLOtzSjZoCcYx2Tik08ltxyX5t635yydbVDORsdpuMiU2OJm654SaZMAt50EICI2CSwu0a3ZEnAm5nLRppPK1p2SjdyymbpyDGtMIP5cnWCIHc3dbEnKf89ZUKnCY59xRpfandh2xpqobLLGYk6UXrWyPWSfZqz638zZYeim6HuV83LodB2zVe5tHenWVjNV3lpkSJ8ILJvsoXPUFnFYtPtJTcOQQRsj4biCMSTzM9iDjUCZaugS9fUTUckNcmx-1Yrz9uw4jI8vlUvEDlkXLDf6FNNj_TtTv_UVtXtuE2-EJvJlPwd_WWBY4dVp0fuEZ8iRk2x2swV4m6dOTxYTTvB-QSuyYsqUxg95hRVeKIjZ3Tv7N7c7GP_mZGfMX4BGlBz8C17NO0AeDMskapFEmbdBmCCIc0M_NiqL7EHFmizWUL2ifpDGLFMAmoO40PpccMd6lWn6gk86Z1t_0q0?></g></svg>