<svg xmlns="http://www.w3.org/2000/svg" xmlns:xlink="http://www.w3.org/1999/xlink" version="1.1" data-diagram-type="DESCRIPTION" style="width:857px;height:652px;" width="857px" height="652px" viewBox="0 0 857 652" zoomAndPan="magnify" preserveAspectRatio="none" contentStyleType="text/css"><?plantuml 1.2026.7?><defs/><g font-family="sans-serif" lengthAdjust="spacing"><g class="title" data-source-line="6"><text x="369.396" y="27.104" fill="#1F3B73" font-size="16" textLength="111.84" font-weight="700" font-family="'Helvetica'">Conway's Law</text><text x="217.42" y="48.896" fill="#1F3B73" font-size="16" textLength="415.793" font-weight="700" font-family="'Helvetica'">Organization Structure Mirrors System Architecture</text></g><!--cluster org_pkg--><g class="cluster" data-qualified-name="org_pkg" id="ent0001" data-source-line="8"><path d="M9,70.6 L147.745,70.6 A4.5,4.5 0 0 1 150.745,73.6 L157.745,92.944 L166,92.944 A3,3 0 0 1 169,95.944 L169,486.1 A3,3 0 0 1 166,489.1 L9,489.1 A3,3 0 0 1 6,486.1 L6,73.6 A3,3 0 0 1 9,70.6" style="stroke:#4A6FA5;stroke-width:1.5;" fill="#ECEEE8"/><line x1="6" y1="92.944" x2="157.745" y2="92.944" style="stroke:#4A6FA5;stroke-width:1.5;"/><text x="10" y="85.428" fill="#2D2D2D" font-size="12" textLength="138.745" font-weight="700" font-family="'Helvetica'">Organization Structure</text></g><!--cluster sys_pkg--><g class="cluster" data-qualified-name="sys_pkg" id="ent0007" data-source-line="17"><path d="M446,237.6 L568.149,237.6 A4.5,4.5 0 0 1 571.149,240.6 L578.149,259.944 L578,259.944 A3,3 0 0 1 581,262.944 L581,634.1 A3,3 0 0 1 578,637.1 L446,637.1 A3,3 0 0 1 443,634.1 L443,240.6 A3,3 0 0 1 446,237.6" style="stroke:#4A6FA5;stroke-width:1.5;" fill="#ECEEE8"/><line x1="443" y1="259.944" x2="578.149" y2="259.944" style="stroke:#4A6FA5;stroke-width:1.5;"/><text x="447" y="252.428" fill="#2D2D2D" font-size="12" textLength="122.149" font-weight="700" font-family="'Helvetica'">System Architecture</text></g><!--entity fe_team--><g class="entity" data-qualified-name="org_pkg.fe_team" id="ent0002" data-source-line="9"><rect x="47" y="113.6" width="71.756" height="69.032" fill="#F7F7F2" style="stroke:#B8B8B0;stroke-width:0.5;" rx="3" ry="3"/><text x="67.914" y="136.428" fill="#2D2D2D" font-size="12" textLength="29.928" font-style="italic" font-family="'Helvetica'">«org»</text><text x="57" y="152.772" fill="#2D2D2D" font-size="12" textLength="51.756" font-family="'Helvetica'">Frontend</text><text x="67.182" y="169.116" fill="#2D2D2D" font-size="12" textLength="31.392" font-family="'Helvetica'">Team</text></g><!--entity be_team--><g class="entity" data-qualified-name="org_pkg.be_team" id="ent0003" data-source-line="10"><rect x="30" y="280.6" width="68.264" height="69.032" fill="#F7F7F2" style="stroke:#B8B8B0;stroke-width:0.5;" rx="3" ry="3"/><text x="49.168" y="303.428" fill="#2D2D2D" font-size="12" textLength="29.928" font-style="italic" font-family="'Helvetica'">«org»</text><text x="40" y="319.772" fill="#2D2D2D" font-size="12" textLength="48.264" font-family="'Helvetica'">Backend</text><text x="48.436" y="336.116" fill="#2D2D2D" font-size="12" textLength="31.392" font-family="'Helvetica'">Team</text></g><!--entity data_team--><g class="entity" data-qualified-name="org_pkg.data_team" id="ent0004" data-source-line="11"><rect x="57" y="396.1" width="51.928" height="69.032" fill="#F7F7F2" style="stroke:#B8B8B0;stroke-width:0.5;" rx="3" ry="3"/><text x="68" y="418.928" fill="#2D2D2D" font-size="12" textLength="29.928" font-style="italic" font-family="'Helvetica'">«org»</text><text x="69.686" y="435.272" fill="#2D2D2D" font-size="12" textLength="26.556" font-family="'Helvetica'">Data</text><text x="67.268" y="451.616" fill="#2D2D2D" font-size="12" textLength="31.392" font-family="'Helvetica'">Team</text></g><!--entity fe_svc--><g class="entity" data-qualified-name="sys_pkg.fe_svc" id="ent0008" data-source-line="18"><rect x="467" y="280.6" width="71.756" height="69.032" fill="#F7F7F2" style="stroke:#B8B8B0;stroke-width:0.5;" rx="3" ry="3"/><text x="490.224" y="303.428" fill="#2D2D2D" font-size="12" textLength="25.308" font-style="italic" font-family="'Helvetica'">«sw»</text><text x="477" y="319.772" fill="#2D2D2D" font-size="12" textLength="51.756" font-family="'Helvetica'">Frontend</text><text x="482.862" y="336.116" fill="#2D2D2D" font-size="12" textLength="40.032" font-family="'Helvetica'">Service</text></g><!--entity be_svc--><g class="entity" data-qualified-name="sys_pkg.be_svc" id="ent0009" data-source-line="19"><rect x="467" y="396.1" width="68.264" height="69.032" fill="#F7F7F2" style="stroke:#B8B8B0;stroke-width:0.5;" rx="3" ry="3"/><text x="488.478" y="418.928" fill="#2D2D2D" font-size="12" textLength="25.308" font-style="italic" font-family="'Helvetica'">«sw»</text><text x="477" y="435.272" fill="#2D2D2D" font-size="12" textLength="48.264" font-family="'Helvetica'">Backend</text><text x="491.634" y="451.616" fill="#2D2D2D" font-size="12" textLength="18.996" font-family="'Helvetica'">API</text></g><!--entity data_svc--><g class="entity" data-qualified-name="sys_pkg.data_svc" id="ent0010" data-source-line="20"><rect x="470.5" y="544.1" width="50.864" height="69.032" fill="#F7F7F2" style="stroke:#B8B8B0;stroke-width:0.5;" rx="3" ry="3"/><text x="483.278" y="566.928" fill="#2D2D2D" font-size="12" textLength="25.308" font-style="italic" font-family="'Helvetica'">«sw»</text><text x="482.654" y="583.272" fill="#2D2D2D" font-size="12" textLength="26.556" font-family="'Helvetica'">Data</text><text x="480.5" y="599.616" fill="#2D2D2D" font-size="12" textLength="30.864" font-family="'Helvetica'">Layer</text></g><g class="entity" data-qualified-name="GMN16" id="ent0017" data-source-line="31"><path d="M193.5,290.6 L193.5,339.546 A3,3 0 0 0 196.5,342.546 L415.626,342.546 A3,3 0 0 0 418.626,339.546 L418.626,297.6 L408.626,287.6 L196.5,287.6 A3,3 0 0 0 193.5,290.6" style="stroke:#B8B8B0;stroke-width:0.5;" fill="#F7F7F2"/><path d="M408.626,287.6 L408.626,296.1 A1.5,1.5 0 0 0 410.126,297.6 L418.626,297.6 L408.626,287.6" style="stroke:#B8B8B0;stroke-width:1;" fill="#F7F7F2"/><text x="243.808" y="304.359" fill="#2D2D2D" font-size="11" textLength="51.755" font-weight="700" font-family="'Helvetica'">Conway's</text><text x="295.562" y="304.359" fill="#2D2D2D" font-size="11" font-weight="700" font-family="'Helvetica'"> </text><text x="298.422" y="304.359" fill="#2D2D2D" font-size="11" textLength="22.275" font-weight="700" font-family="'Helvetica'">Law</text><text x="320.697" y="304.359" fill="#2D2D2D" font-size="11" font-weight="700" font-family="'Helvetica'"> </text><text x="323.557" y="304.359" fill="#2D2D2D" font-size="11" textLength="35.761" font-weight="700" font-family="'Helvetica'">(1967):</text><text x="210.027" y="319.341" fill="#2D2D2D" font-size="11" textLength="77.065" font-family="'Helvetica'">"Organizations</text><text x="287.092" y="319.341" fill="#2D2D2D" font-size="11" font-family="'Helvetica'"> </text><text x="289.952" y="319.341" fill="#2D2D2D" font-size="11" textLength="34.639" font-family="'Helvetica'">design</text><text x="324.591" y="319.341" fill="#2D2D2D" font-size="11" font-family="'Helvetica'"> </text><text x="327.451" y="319.341" fill="#2D2D2D" font-size="11" textLength="41.877" font-family="'Helvetica'">systems</text><text x="369.328" y="319.341" fill="#2D2D2D" font-size="11" font-family="'Helvetica'"> </text><text x="372.188" y="319.341" fill="#2D2D2D" font-size="11" textLength="20.911" font-family="'Helvetica'">that</text><text x="199.5" y="334.323" fill="#2D2D2D" font-size="11" textLength="33.407" font-family="'Helvetica'">mirror</text><text x="232.907" y="334.323" fill="#2D2D2D" font-size="11" font-family="'Helvetica'"> </text><text x="235.767" y="334.323" fill="#2D2D2D" font-size="11" textLength="24.354" font-family="'Helvetica'">their</text><text x="260.121" y="334.323" fill="#2D2D2D" font-size="11" font-family="'Helvetica'"> </text><text x="262.981" y="334.323" fill="#2D2D2D" font-size="11" textLength="80.651" font-family="'Helvetica'">communication</text><text x="343.632" y="334.323" fill="#2D2D2D" font-size="11" font-family="'Helvetica'"> </text><text x="346.492" y="334.323" fill="#2D2D2D" font-size="11" textLength="57.134" font-family="'Helvetica'">structures"</text></g><g class="entity" data-qualified-name="GMN19" id="ent0020" data-source-line="37"><path d="M605,398.6 L605,462.528 A3,3 0 0 0 608,465.528 L839.632,465.528 A3,3 0 0 0 842.632,462.528 L842.632,405.6 L832.632,395.6 L608,395.6 A3,3 0 0 0 605,398.6" style="stroke:#B8B8B0;stroke-width:0.5;" fill="#F7F7F2"/><path d="M832.632,395.6 L832.632,404.1 A1.5,1.5 0 0 0 834.132,405.6 L842.632,405.6 L832.632,395.6" style="stroke:#B8B8B0;stroke-width:1;" fill="#F7F7F2"/><text x="686.14" y="412.359" fill="#2D2D2D" font-size="11" textLength="66.352" font-weight="700" font-family="'Helvetica'">Implication:</text><text x="611" y="427.341" fill="#2D2D2D" font-size="11" textLength="28.776" font-family="'Helvetica'">Team</text><text x="639.776" y="427.341" fill="#2D2D2D" font-size="11" font-family="'Helvetica'"> </text><text x="642.636" y="427.341" fill="#2D2D2D" font-size="11" textLength="58.806" font-family="'Helvetica'">boundaries</text><text x="701.441" y="427.341" fill="#2D2D2D" font-size="11" font-family="'Helvetica'"> </text><text x="704.301" y="427.341" fill="#2D2D2D" font-size="11" textLength="41.393" font-family="'Helvetica'">become</text><text x="745.694" y="427.341" fill="#2D2D2D" font-size="11" font-family="'Helvetica'"> </text><text x="748.554" y="427.341" fill="#2D2D2D" font-size="11" textLength="17.413" font-family="'Helvetica'">API</text><text x="765.967" y="427.341" fill="#2D2D2D" font-size="11" font-family="'Helvetica'"> </text><text x="768.827" y="427.341" fill="#2D2D2D" font-size="11" textLength="58.806" font-family="'Helvetica'">boundaries</text><text x="620.399" y="442.323" fill="#2D2D2D" font-size="11" textLength="55.418" font-family="'Helvetica'">Inter-team</text><text x="675.817" y="442.323" fill="#2D2D2D" font-size="11" font-family="'Helvetica'"> </text><text x="678.677" y="442.323" fill="#2D2D2D" font-size="11" textLength="25.003" font-family="'Helvetica'">deps</text><text x="703.68" y="442.323" fill="#2D2D2D" font-size="11" font-family="'Helvetica'"> </text><text x="706.54" y="442.323" fill="#2D2D2D" font-size="11" textLength="41.393" font-family="'Helvetica'">become</text><text x="747.933" y="442.323" fill="#2D2D2D" font-size="11" font-family="'Helvetica'"> </text><text x="750.793" y="442.323" fill="#2D2D2D" font-size="11" textLength="67.441" font-family="'Helvetica'">inter-module</text><text x="706.815" y="457.305" fill="#2D2D2D" font-size="11" textLength="25.003" font-family="'Helvetica'">deps</text></g><!--link fe_team to be_team--><g class="link" data-entity-1="ent0002" data-entity-2="ent0003" id="lnk5" data-source-line="13" data-link-type="dependency"><path d="M78.538,187.857 C75.258,216.327 71.731,246.933 68.461,275.393" style="stroke:#EF6C00;stroke-width:1;stroke-dasharray:7,7;" fill="none" id="fe_team-be_team"/><polygon points="79.11,182.89,74.106,191.373,78.538,187.857,82.054,192.289,79.11,182.89" fill="#EF6C00" style="stroke:#EF6C00;stroke-width:1;stroke-linejoin:miter;stroke-miterlimit:10;"/><polygon points="67.89,280.36,72.891,271.876,68.461,275.393,64.943,270.962,67.89,280.36" fill="#EF6C00" style="stroke:#EF6C00;stroke-width:1;stroke-linejoin:miter;stroke-miterlimit:10;"/><text x="79" y="210.359" fill="#2D2D2D" font-size="11" textLength="80.651" font-family="'Helvetica'">communication</text></g><!--link be_team to data_team--><g class="link" data-entity-1="ent0003" data-entity-2="ent0004" id="lnk6" data-source-line="14" data-link-type="dependency"><path d="M70.476,354.781 C72.906,369.281 74.085,376.339 76.515,390.859" style="stroke:#EF6C00;stroke-width:1;stroke-dasharray:7,7;" fill="none" id="be_team-data_team"/><polygon points="69.65,349.85,67.193,359.387,70.476,354.781,75.083,358.065,69.65,349.85" fill="#EF6C00" style="stroke:#EF6C00;stroke-width:1;stroke-linejoin:miter;stroke-miterlimit:10;"/><polygon points="77.34,395.79,79.8,386.253,76.515,390.859,71.909,387.574,77.34,395.79" fill="#EF6C00" style="stroke:#EF6C00;stroke-width:1;stroke-linejoin:miter;stroke-miterlimit:10;"/><text x="76" y="377.359" fill="#2D2D2D" font-size="11" textLength="80.651" font-family="'Helvetica'">communication</text></g><!--link fe_svc to be_svc--><g class="link" data-entity-1="ent0008" data-entity-2="ent0009" id="lnk11" data-source-line="22" data-link-type="dependency"><path d="M502.41,349.85 C502.15,364.35 501.936,376.271 501.686,390.791" style="stroke:#1565C0;stroke-width:1;" fill="none" id="fe_svc-to-be_svc"/><polygon points="501.6,395.79,505.754,386.86,501.686,390.791,497.756,386.723,501.6,395.79" fill="#1565C0" style="stroke:#1565C0;stroke-width:1;stroke-linejoin:miter;stroke-miterlimit:10;"/><text x="503" y="377.359" fill="#2D2D2D" font-size="11" textLength="17.413" font-family="'Helvetica'">API</text><text x="520.413" y="377.359" fill="#2D2D2D" font-size="11" font-family="'Helvetica'"> </text><text x="523.273" y="377.359" fill="#2D2D2D" font-size="11" textLength="22.396" font-family="'Helvetica'">calls</text></g><!--link be_svc to data_svc--><g class="link" data-entity-1="ent0009" data-entity-2="ent0010" id="lnk12" data-source-line="23" data-link-type="dependency"><path d="M499.84,465.46 C499.03,489.05 498.132,515.373 497.322,538.923" style="stroke:#1565C0;stroke-width:1;" fill="none" id="be_svc-to-data_svc"/><polygon points="497.15,543.92,501.457,535.063,497.322,538.923,493.462,534.788,497.15,543.92" fill="#1565C0" style="stroke:#1565C0;stroke-width:1;stroke-linejoin:miter;stroke-miterlimit:10;"/><text x="499" y="525.859" fill="#2D2D2D" font-size="11" textLength="38.621" font-family="'Helvetica'">queries</text></g><!--link fe_team to fe_svc--><g class="link" data-entity-1="ent0002" data-entity-2="ent0008" id="lnk13" data-source-line="26" data-link-type="dependency"><path d="M119.05,180.7 C120.35,181.38 121.67,182.02 123,182.6 C249.46,237.8 311.1,153.32 431,221.6 C454.7,235.09 470.726,255.529 483.086,276.009" style="stroke:#546E7A;stroke-width:1;stroke-dasharray:1,3;" fill="none" id="fe_team-to-fe_svc"/><polygon points="485.67,280.29,484.444,270.518,483.086,276.009,477.595,274.651,485.67,280.29" fill="#546E7A" style="stroke:#546E7A;stroke-width:1;stroke-linejoin:miter;stroke-miterlimit:10;"/></g><!--link be_team to be_svc--><g class="link" data-entity-1="ent0003" data-entity-2="ent0009" id="lnk14" data-source-line="27" data-link-type="dependency"><path d="M98.22,326.23 C121.5,333.04 153.04,342.1 181,349.6 C284.71,377.4 403.298,406.224 461.938,420.284" style="stroke:#546E7A;stroke-width:1;stroke-dasharray:1,3;" fill="none" id="be_team-to-be_svc"/><polygon points="466.8,421.45,458.981,415.462,461.938,420.284,457.115,423.241,466.8,421.45" fill="#546E7A" style="stroke:#546E7A;stroke-width:1;stroke-linejoin:miter;stroke-miterlimit:10;"/></g><!--link data_team to data_svc--><g class="link" data-entity-1="ent0004" data-entity-2="ent0010" id="lnk15" data-source-line="28" data-link-type="dependency"><path d="M109.15,440.84 C183.71,467.2 392.026,540.844 465.776,566.914" style="stroke:#546E7A;stroke-width:1;stroke-dasharray:1,3;" fill="none" id="data_team-to-data_svc"/><polygon points="470.49,568.58,463.338,561.809,465.776,566.914,460.671,569.352,470.49,568.58" fill="#546E7A" style="stroke:#546E7A;stroke-width:1;stroke-linejoin:miter;stroke-miterlimit:10;"/></g><!--link org_pkg to GMN16--><g class="link" data-entity-1="ent0001" data-entity-2="ent0017" id="lnk18" data-source-line="31" data-link-type="association"><path d="M169.128,158.345 C169.229,158.461 169.332,158.577 169.435,158.695 C169.642,158.93 169.851,159.168 170.064,159.411 C171.769,161.351 173.683,163.529 175.778,165.913 C184.16,175.452 195.451,188.3 207.896,202.463 C232.788,230.788 262.3,264.37 282.41,287.25" style="stroke:#2D2D2D;stroke-width:1;stroke-dasharray:7,7;" fill="none" id="org_pkg-GMN16"/></g><!--link sys_pkg to GMN19--><g class="link" data-entity-1="ent0007" data-entity-2="ent0020" id="lnk21" data-source-line="37" data-link-type="association"><path d="M581.242,322.295 C581.599,322.563 581.966,322.839 582.342,323.122 C583.095,323.688 583.888,324.284 584.719,324.908 C591.361,329.901 600.399,336.695 610.704,344.44 C631.313,359.93 656.985,379.225 678.68,395.53" style="stroke:#2D2D2D;stroke-width:1;stroke-dasharray:7,7;" fill="none" id="sys_pkg-GMN19"/></g><?plantuml-src XLDTQzim57tNhxXB7xP1yz5rILa8XYnh8T2nGVRMZd9jtJeYjkH9SaCszjzxhTZvNcQ2iQxEoJawz-gDqabMIe9EftlmyyPaIgTTvrSPkMwHeVPbdl7QbealBMRT0fC5fjIM2bEBUJj0EufHGhY5qWLo5RIHvAY03_sTeaMzg8hNFI6yyXd1A8ucHYznzTR1FIv7tJXwrDziYbhzHg-CXbcjJF1LMMkiWzdAUSfXR9EvyXJsXAXTGUiqkGNemDZqgLYay4S0FvQfg5CsqRgpHdlIyb7_8Cm3zfcUF7_3QCIiA3faV6QvVK9ydl05FUwW9I-FyU6rKMu_NDpU3IQztgL4DoVvinrjL8QGc3mljKh2GGCnFaVS2XvI_-w4ToBQODUjtF-Icv5zKGaruRcNX8_cbcUY6t-VDidz6xtExHvNPBV17S2RsAeod_sgF-XFUdLQLMq8B0K9PfbhWZg2Rlvt2BzAiefS5KpJYyx3HV_ZuFPcV2cDzvne9we5HNm6iXOIs-nFWHfb8RJn135lc1pCSpEkRFdWbi2xgq-3c_V3whRmxjx8SqBaLAghbd4h7VWvUWRbuVBmYfJT7m1exZQvbk36G6NZo4mz0Mipqxp8QdPZeffiXfTQOXKU7vr5A0I_hJ9kokDYso4CISK6fq8vDxBafbSRMoUl?></g></svg>