<svg xmlns="http://www.w3.org/2000/svg" xmlns:xlink="http://www.w3.org/1999/xlink" version="1.1" data-diagram-type="DESCRIPTION" style="width:979px;height:674px;" width="979px" height="674px" viewBox="0 0 979 674" zoomAndPan="magnify" preserveAspectRatio="none" contentStyleType="text/css"><?plantuml 1.2026.7?><defs/><g font-family="sans-serif" lengthAdjust="spacing"><g class="title" data-source-line="6"><text x="325.616" y="27.104" fill="#1F3B73" font-size="16" textLength="320.769" font-weight="700" font-family="'Helvetica'">E-Commerce Platform Work Assignment</text><text x="325.536" y="48.896" fill="#1F3B73" font-size="16" textLength="320.929" font-weight="700" font-family="'Helvetica'">Teams Organized by Business Capability</text></g><!--cluster cat_team--><g class="cluster" data-qualified-name="cat_team" id="ent0001" data-source-line="8"><rect x="7" y="423.584" width="237" height="237" fill="#F7F7F2" style="stroke:#B8B8B0;stroke-width:1;" rx="3" ry="3"/><text x="99.85" y="438.412" fill="#2D2D2D" font-size="12" textLength="51.3" font-style="italic" font-family="'Helvetica'">«catalog»</text><text x="84.388" y="454.756" fill="#2D2D2D" font-size="12" textLength="82.225" font-weight="700" font-family="'Helvetica'">Catalog Team</text></g><!--cluster cart_team--><g class="cluster" data-qualified-name="cart_team" id="ent0005" data-source-line="14"><rect x="284" y="423.584" width="260" height="136" fill="#F7F7F2" style="stroke:#B8B8B0;stroke-width:1;" rx="3" ry="3"/><text x="397.77" y="438.412" fill="#2D2D2D" font-size="12" textLength="32.46" font-style="italic" font-family="'Helvetica'">«cart»</text><text x="383.13" y="454.756" fill="#2D2D2D" font-size="12" textLength="61.74" font-weight="700" font-family="'Helvetica'">Cart Team</text></g><!--cluster check_team--><g class="cluster" data-qualified-name="check_team" id="ent0008" data-source-line="19"><rect x="378" y="247.584" width="245" height="136" fill="#F7F7F2" style="stroke:#B8B8B0;stroke-width:1;" rx="3" ry="3"/><text x="471.058" y="262.412" fill="#2D2D2D" font-size="12" textLength="58.884" font-style="italic" font-family="'Helvetica'">«checkout»</text><text x="454.03" y="278.756" fill="#2D2D2D" font-size="12" textLength="92.941" font-weight="700" font-family="'Helvetica'">Checkout Team</text></g><!--cluster fulfill_team--><g class="cluster" data-qualified-name="fulfill_team" id="ent0011" data-source-line="24"><rect x="576" y="431.584" width="201" height="120" fill="#F7F7F2" style="stroke:#B8B8B0;stroke-width:1;" rx="3" ry="3"/><text x="657.294" y="446.412" fill="#2D2D2D" font-size="12" textLength="38.412" font-style="italic" font-family="'Helvetica'">«fulfill»</text><text x="625.542" y="462.756" fill="#2D2D2D" font-size="12" textLength="101.917" font-weight="700" font-family="'Helvetica'">Fulfillment Team</text></g><!--cluster cust_team--><g class="cluster" data-qualified-name="cust_team" id="ent0014" data-source-line="29"><rect x="741" y="79.584" width="224" height="120" fill="#F7F7F2" style="stroke:#B8B8B0;stroke-width:1;" rx="3" ry="3"/><text x="822.49" y="94.412" fill="#2D2D2D" font-size="12" textLength="61.02" font-style="italic" font-family="'Helvetica'">«customer»</text><text x="805.678" y="110.756" fill="#2D2D2D" font-size="12" textLength="94.645" font-weight="700" font-family="'Helvetica'">Customer Team</text></g><!--cluster plat_team--><g class="cluster" data-qualified-name="plat_team" id="ent0017" data-source-line="34"><rect x="339" y="71.584" width="370" height="136" fill="#F7F7F2" style="stroke:#B8B8B0;stroke-width:1;" rx="3" ry="3"/><text x="494.93" y="86.412" fill="#2D2D2D" font-size="12" textLength="58.14" font-style="italic" font-family="'Helvetica'">«platform»</text><text x="479.426" y="102.756" fill="#2D2D2D" font-size="12" textLength="89.149" font-weight="700" font-family="'Helvetica'">Platform Team</text></g><!--entity prod--><g class="entity" data-qualified-name="cat_team.prod" id="ent0002" data-source-line="9"><rect x="93.5" y="583.584" width="73.3" height="52.688" fill="#F7F7F2" style="stroke:#B8B8B0;stroke-width:0.5;" rx="3" ry="3"/><text x="104.5" y="606.412" fill="#2D2D2D" font-size="12" textLength="51.3" font-style="italic" font-family="'Helvetica'">«catalog»</text><text x="105.094" y="622.756" fill="#2D2D2D" font-size="12" textLength="50.112" font-family="'Helvetica'">Products</text></g><!--entity cat--><g class="entity" data-qualified-name="cat_team.cat" id="ent0003" data-source-line="10"><rect x="138.5" y="482.584" width="80.624" height="52.688" fill="#F7F7F2" style="stroke:#B8B8B0;stroke-width:0.5;" rx="3" ry="3"/><text x="153.162" y="505.412" fill="#2D2D2D" font-size="12" textLength="51.3" font-style="italic" font-family="'Helvetica'">«catalog»</text><text x="148.5" y="521.756" fill="#2D2D2D" font-size="12" textLength="60.624" font-family="'Helvetica'">Categories</text></g><!--entity search--><g class="entity" data-qualified-name="cat_team.search" id="ent0004" data-source-line="11"><rect x="40.5" y="482.584" width="73.3" height="52.688" fill="#F7F7F2" style="stroke:#B8B8B0;stroke-width:0.5;" rx="3" ry="3"/><text x="51.5" y="505.412" fill="#2D2D2D" font-size="12" textLength="51.3" font-style="italic" font-family="'Helvetica'">«catalog»</text><text x="58.04" y="521.756" fill="#2D2D2D" font-size="12" textLength="38.22" font-family="'Helvetica'">Search</text></g><!--entity cart--><g class="entity" data-qualified-name="cart_team.cart" id="ent0006" data-source-line="15"><rect x="418.5" y="482.584" width="100.641" height="52.688" fill="#F7F7F2" style="stroke:#B8B8B0;stroke-width:0.5;" rx="3" ry="3"/><text x="452.59" y="505.412" fill="#2D2D2D" font-size="12" textLength="32.46" font-style="italic" font-family="'Helvetica'">«cart»</text><text x="428.5" y="521.756" fill="#2D2D2D" font-size="12" textLength="53.916" font-family="'Helvetica'">Shopping</text><text x="482.416" y="521.756" fill="#2D2D2D" font-size="12" font-family="'Helvetica'"> </text><text x="485.536" y="521.756" fill="#2D2D2D" font-size="12" textLength="23.604" font-family="'Helvetica'">Cart</text></g><!--entity wish--><g class="entity" data-qualified-name="cart_team.wish" id="ent0007" data-source-line="16"><rect x="317" y="482.584" width="75.752" height="52.688" fill="#F7F7F2" style="stroke:#B8B8B0;stroke-width:0.5;" rx="3" ry="3"/><text x="338.646" y="505.412" fill="#2D2D2D" font-size="12" textLength="32.46" font-style="italic" font-family="'Helvetica'">«cart»</text><text x="327" y="521.756" fill="#2D2D2D" font-size="12" textLength="27.42" font-family="'Helvetica'">Wish</text><text x="354.42" y="521.756" fill="#2D2D2D" font-size="12" font-family="'Helvetica'"> </text><text x="357.54" y="521.756" fill="#2D2D2D" font-size="12" textLength="25.212" font-family="'Helvetica'">Lists</text></g><!--entity pay--><g class="entity" data-qualified-name="check_team.pay" id="ent0009" data-source-line="20"><rect x="411.5" y="306.584" width="80.884" height="52.688" fill="#F7F7F2" style="stroke:#B8B8B0;stroke-width:0.5;" rx="3" ry="3"/><text x="422.5" y="329.412" fill="#2D2D2D" font-size="12" textLength="58.884" font-style="italic" font-family="'Helvetica'">«checkout»</text><text x="424.144" y="345.756" fill="#2D2D2D" font-size="12" textLength="55.596" font-family="'Helvetica'">Payments</text></g><!--entity ord--><g class="entity" data-qualified-name="check_team.ord" id="ent0010" data-source-line="21"><rect x="517.5" y="306.584" width="80.884" height="52.688" fill="#F7F7F2" style="stroke:#B8B8B0;stroke-width:0.5;" rx="3" ry="3"/><text x="528.5" y="329.412" fill="#2D2D2D" font-size="12" textLength="58.884" font-style="italic" font-family="'Helvetica'">«checkout»</text><text x="538.352" y="345.756" fill="#2D2D2D" font-size="12" textLength="39.18" font-family="'Helvetica'">Orders</text></g><!--entity inv--><g class="entity" data-qualified-name="fulfill_team.inv" id="ent0012" data-source-line="25"><rect x="687" y="482.584" width="74.432" height="52.688" fill="#F7F7F2" style="stroke:#B8B8B0;stroke-width:0.5;" rx="3" ry="3"/><text x="705.01" y="505.412" fill="#2D2D2D" font-size="12" textLength="38.412" font-style="italic" font-family="'Helvetica'">«fulfill»</text><text x="697" y="521.756" fill="#2D2D2D" font-size="12" textLength="54.432" font-family="'Helvetica'">Inventory</text></g><!--entity ship--><g class="entity" data-qualified-name="fulfill_team.ship" id="ent0013" data-source-line="26"><rect x="592" y="482.584" width="69.752" height="52.688" fill="#F7F7F2" style="stroke:#B8B8B0;stroke-width:0.5;" rx="3" ry="3"/><text x="607.67" y="505.412" fill="#2D2D2D" font-size="12" textLength="38.412" font-style="italic" font-family="'Helvetica'">«fulfill»</text><text x="602" y="521.756" fill="#2D2D2D" font-size="12" textLength="49.752" font-family="'Helvetica'">Shipping</text></g><!--entity acct--><g class="entity" data-qualified-name="cust_team.acct" id="ent0015" data-source-line="30"><rect x="865.5" y="130.584" width="83.02" height="52.688" fill="#F7F7F2" style="stroke:#B8B8B0;stroke-width:0.5;" rx="3" ry="3"/><text x="876.5" y="153.412" fill="#2D2D2D" font-size="12" textLength="61.02" font-style="italic" font-family="'Helvetica'">«customer»</text><text x="881.33" y="169.756" fill="#2D2D2D" font-size="12" textLength="51.36" font-family="'Helvetica'">Accounts</text></g><!--entity auth--><g class="entity" data-qualified-name="cust_team.auth" id="ent0016" data-source-line="31"><rect x="757.5" y="130.584" width="83.02" height="52.688" fill="#F7F7F2" style="stroke:#B8B8B0;stroke-width:0.5;" rx="3" ry="3"/><text x="768.5" y="153.412" fill="#2D2D2D" font-size="12" textLength="61.02" font-style="italic" font-family="'Helvetica'">«customer»</text><text x="785.594" y="169.756" fill="#2D2D2D" font-size="12" textLength="26.832" font-family="'Helvetica'">Auth</text></g><!--entity infra--><g class="entity" data-qualified-name="plat_team.infra" id="ent0018" data-source-line="35"><rect x="585.5" y="130.584" width="98.985" height="52.688" fill="#F7F7F2" style="stroke:#B8B8B0;stroke-width:0.5;" rx="3" ry="3"/><text x="605.922" y="153.412" fill="#2D2D2D" font-size="12" textLength="58.14" font-style="italic" font-family="'Helvetica'">«platform»</text><text x="595.5" y="169.756" fill="#2D2D2D" font-size="12" textLength="78.985" font-family="'Helvetica'">Infrastructure</text></g><!--entity mon--><g class="entity" data-qualified-name="plat_team.mon" id="ent0019" data-source-line="36"><rect x="477.5" y="130.584" width="83.096" height="52.688" fill="#F7F7F2" style="stroke:#B8B8B0;stroke-width:0.5;" rx="3" ry="3"/><text x="489.978" y="153.412" fill="#2D2D2D" font-size="12" textLength="58.14" font-style="italic" font-family="'Helvetica'">«platform»</text><text x="487.5" y="169.756" fill="#2D2D2D" font-size="12" textLength="63.096" font-family="'Helvetica'">Monitoring</text></g><!--entity cicd--><g class="entity" data-qualified-name="plat_team.cicd" id="ent0020" data-source-line="37"><rect x="372" y="130.584" width="80.14" height="52.688" fill="#F7F7F2" style="stroke:#B8B8B0;stroke-width:0.5;" rx="3" ry="3"/><text x="383" y="153.412" fill="#2D2D2D" font-size="12" textLength="58.14" font-style="italic" font-family="'Helvetica'">«platform»</text><text x="395.84" y="169.756" fill="#2D2D2D" font-size="12" textLength="32.46" font-family="'Helvetica'">CI/CD</text></g><g class="entity" data-qualified-name="GMN28" id="ent0029" data-source-line="50"><path d="M646.5,293.584 L646.5,372.494 A3,3 0 0 0 649.5,375.494 L882.177,375.494 A3,3 0 0 0 885.177,372.494 L885.177,300.584 L875.177,290.584 L649.5,290.584 A3,3 0 0 0 646.5,293.584" style="stroke:#B8B8B0;stroke-width:0.5;" fill="#F7F7F2"/><path d="M875.177,290.584 L875.177,299.084 A1.5,1.5 0 0 0 876.677,300.584 L885.177,300.584 L875.177,290.584" style="stroke:#B8B8B0;stroke-width:1;" fill="#F7F7F2"/><text x="672.498" y="307.343" fill="#2D2D2D" font-size="11" textLength="24.365" font-family="'Helvetica'">Each</text><text x="696.863" y="307.343" fill="#2D2D2D" font-size="11" font-family="'Helvetica'"> </text><text x="699.723" y="307.343" fill="#2D2D2D" font-size="11" textLength="26.631" font-family="'Helvetica'">team</text><text x="726.353" y="307.343" fill="#2D2D2D" font-size="11" font-family="'Helvetica'"> </text><text x="729.213" y="307.343" fill="#2D2D2D" font-size="11" textLength="27.368" font-family="'Helvetica'">owns</text><text x="756.581" y="307.343" fill="#2D2D2D" font-size="11" font-family="'Helvetica'"> </text><text x="759.441" y="307.343" fill="#2D2D2D" font-size="11" textLength="16.258" font-family="'Helvetica'">full</text><text x="775.699" y="307.343" fill="#2D2D2D" font-size="11" font-family="'Helvetica'"> </text><text x="778.559" y="307.343" fill="#2D2D2D" font-size="11" textLength="26.565" font-family="'Helvetica'">stack</text><text x="805.124" y="307.343" fill="#2D2D2D" font-size="11" font-family="'Helvetica'"> </text><text x="807.984" y="307.343" fill="#2D2D2D" font-size="11" textLength="14.982" font-family="'Helvetica'">for</text><text x="822.966" y="307.343" fill="#2D2D2D" font-size="11" font-family="'Helvetica'"> </text><text x="825.826" y="307.343" fill="#2D2D2D" font-size="11" textLength="24.354" font-family="'Helvetica'">their</text><text x="735.241" y="322.325" fill="#2D2D2D" font-size="11" textLength="52.195" font-family="'Helvetica'">capability.</text><text x="652.5" y="337.307" fill="#2D2D2D" font-size="11" textLength="44.902" font-family="'Helvetica'">Platform</text><text x="697.402" y="337.307" fill="#2D2D2D" font-size="11" font-family="'Helvetica'"> </text><text x="700.262" y="337.307" fill="#2D2D2D" font-size="11" textLength="26.631" font-family="'Helvetica'">team</text><text x="726.892" y="337.307" fill="#2D2D2D" font-size="11" font-family="'Helvetica'"> </text><text x="729.752" y="337.307" fill="#2D2D2D" font-size="11" textLength="40.249" font-family="'Helvetica'">enables</text><text x="770.001" y="337.307" fill="#2D2D2D" font-size="11" font-family="'Helvetica'"> </text><text x="772.861" y="337.307" fill="#2D2D2D" font-size="11" textLength="32.23" font-family="'Helvetica'">rather</text><text x="805.091" y="337.307" fill="#2D2D2D" font-size="11" font-family="'Helvetica'"> </text><text x="807.951" y="337.307" fill="#2D2D2D" font-size="11" textLength="23.738" font-family="'Helvetica'">than</text><text x="831.689" y="337.307" fill="#2D2D2D" font-size="11" font-family="'Helvetica'"> </text><text x="834.549" y="337.307" fill="#2D2D2D" font-size="11" textLength="35.629" font-family="'Helvetica'">blocks.</text><text x="665.991" y="352.289" fill="#2D2D2D" font-size="11" textLength="58.861" font-family="'Helvetica'">Cross-team</text><text x="724.852" y="352.289" fill="#2D2D2D" font-size="11" font-family="'Helvetica'"> </text><text x="727.712" y="352.289" fill="#2D2D2D" font-size="11" textLength="72.093" font-family="'Helvetica'">dependencies</text><text x="799.805" y="352.289" fill="#2D2D2D" font-size="11" font-family="'Helvetica'"> </text><text x="802.665" y="352.289" fill="#2D2D2D" font-size="11" textLength="54.021" font-family="'Helvetica'">minimized</text><text x="725.93" y="367.271" fill="#2D2D2D" font-size="11" textLength="42.328" font-family="'Helvetica'">through</text><text x="768.258" y="367.271" fill="#2D2D2D" font-size="11" font-family="'Helvetica'"> </text><text x="771.118" y="367.271" fill="#2D2D2D" font-size="11" textLength="25.63" font-family="'Helvetica'">APIs.</text></g><!--link search to prod--><g class="link" data-entity-1="ent0004" data-entity-2="ent0002" id="lnk21" data-source-line="40" data-link-type="dependency"><path d="M90.79,535.834 C98.64,550.504 106.081,564.406 113.921,579.056" style="stroke:#78909C;stroke-width:1;stroke-dasharray:7,7;" fill="none" id="search-to-prod"/><polygon points="116.28,583.464,115.56,573.642,113.921,579.056,108.507,577.416,116.28,583.464" fill="#78909C" style="stroke:#78909C;stroke-width:1;stroke-linejoin:miter;stroke-miterlimit:10;"/></g><!--link cart to prod--><g class="link" data-entity-1="ent0006" data-entity-2="ent0002" id="lnk22" data-source-line="41" data-link-type="dependency"><path d="M451.32,535.744 C440.07,549.934 424.21,566.494 406,575.584 C364.81,596.134 236.765,604.433 171.615,607.443" style="stroke:#78909C;stroke-width:1;stroke-dasharray:7,7;" fill="none" id="cart-to-prod"/><polygon points="166.62,607.674,175.795,611.254,171.615,607.443,175.426,603.263,166.62,607.674" fill="#78909C" style="stroke:#78909C;stroke-width:1;stroke-linejoin:miter;stroke-miterlimit:10;"/></g><!--link pay to cart--><g class="link" data-entity-1="ent0009" data-entity-2="ent0006" id="lnk23" data-source-line="42" data-link-type="dependency"><path d="M454.51,359.754 C457.72,392.654 462.774,444.378 465.994,477.328" style="stroke:#78909C;stroke-width:1;stroke-dasharray:7,7;" fill="none" id="pay-to-cart"/><polygon points="466.48,482.304,469.586,472.958,465.994,477.328,461.624,473.736,466.48,482.304" fill="#78909C" style="stroke:#78909C;stroke-width:1;stroke-linejoin:miter;stroke-miterlimit:10;"/></g><!--link ord to inv--><g class="link" data-entity-1="ent0010" data-entity-2="ent0012" id="lnk24" data-source-line="43" data-link-type="dependency"><path d="M581.29,359.854 C595.24,373.724 614.1,389.924 634,399.584 C650.7,407.694 660.28,396.274 675,407.584 C699.02,426.024 710.622,454.496 717.062,477.686" style="stroke:#78909C;stroke-width:1;stroke-dasharray:7,7;" fill="none" id="ord-to-inv"/><polygon points="718.4,482.504,719.846,472.762,717.062,477.686,712.138,474.903,718.4,482.504" fill="#78909C" style="stroke:#78909C;stroke-width:1;stroke-linejoin:miter;stroke-miterlimit:10;"/></g><!--link plat_team to cat_team--><g class="link" data-entity-1="ent0017" data-entity-2="ent0001" id="lnk25" data-source-line="45" data-link-type="dependency"><path d="M338.704,161.532 C338.519,161.61 338.332,161.69 338.142,161.772 C337.381,162.097 336.575,162.444 335.725,162.812 C328.924,165.757 319.306,170.061 307.593,175.675 C284.167,186.903 252.357,203.371 217.927,224.685 C149.068,267.314 69.725,329.329 26,407.584 C23.303,412.41 21.102,417.57 19.318,422.909 C19.262,423.076 20.768,418.493 20.713,418.66" style="stroke:#546E7A;stroke-width:1;stroke-dasharray:1,3;" fill="none" id="plat_team-to-cat_team"/><polygon points="19.152,423.41,25.762,416.109,20.713,418.66,18.162,413.611,19.152,423.41" fill="#546E7A" style="stroke:#546E7A;stroke-width:1;stroke-linejoin:miter;stroke-miterlimit:10;"/></g><!--link plat_team to cart_team--><g class="link" data-entity-1="ent0017" data-entity-2="ent0005" id="lnk26" data-source-line="46" data-link-type="dependency"><path d="M338.903,199.176 C338.681,200.324 338.456,201.491 338.228,202.676 C337.771,205.048 337.302,207.495 336.82,210.013 C334.894,220.085 332.777,231.287 330.544,243.314 C321.613,291.422 310.83,352.719 303,407.584 C302.616,410.277 302.237,413.013 301.866,415.775 C301.681,417.157 301.497,418.545 301.314,419.938 C301.223,420.635 301.133,421.332 301.043,422.031 C300.998,422.381 301.588,417.771 301.543,418.121" style="stroke:#546E7A;stroke-width:1;stroke-dasharray:1,3;" fill="none" id="plat_team-to-cart_team"/><polygon points="300.908,423.08,306.02,414.662,301.543,418.121,298.084,413.645,300.908,423.08" fill="#546E7A" style="stroke:#546E7A;stroke-width:1;stroke-linejoin:miter;stroke-miterlimit:10;"/></g><!--link plat_team to check_team--><g class="link" data-entity-1="ent0017" data-entity-2="ent0008" id="lnk27" data-source-line="47" data-link-type="dependency"><path d="M354.865,207.692 C354.886,207.807 354.907,207.921 354.929,208.036 C354.971,208.264 355.013,208.493 355.056,208.722 C355.141,209.179 355.226,209.637 355.312,210.094 C355.484,211.008 355.657,211.922 355.832,212.833 C356.531,216.478 357.256,220.088 358,223.584 C363.095,247.559 369.958,274.217 375.614,295.109 C376.321,297.721 377.009,300.242 377.672,302.657 C377.755,302.959 376.511,298.438 376.593,298.737" style="stroke:#546E7A;stroke-width:1;stroke-dasharray:1,3;" fill="none" id="plat_team-to-check_team"/><polygon points="377.92,303.558,379.388,293.819,376.593,298.737,371.675,295.942,377.92,303.558" fill="#546E7A" style="stroke:#546E7A;stroke-width:1;stroke-linejoin:miter;stroke-miterlimit:10;"/></g><!--link cicd to GMN28--><g class="link" data-entity-1="ent0020" data-entity-2="ent0029" id="lnk30" data-source-line="50" data-link-type="association"><path d="M425.57,183.784 C434.66,198.174 448.07,214.934 465,223.584 C494.33,238.564 581.71,221.294 613,231.584 C651.04,244.084 688.7,268.634 717.14,290.334" style="stroke:#2D2D2D;stroke-width:1;stroke-dasharray:7,7;" fill="none" id="cicd-GMN28"/></g><?plantuml-src ZPHVQzim5CNVzIdkkhVG96MiwmeXa7aP13OQwA0FsnZNicABo9AHv9PixBllMlups_6wXJnOz_wETNGiwONKN9M9WCLYEVfxOvJKwTBvan9kMIZKlimLZMt9VMbHBRd92wE5zlD4OcendmTu8ObZp1sbBf2ge4qYd2ZWrNMlQ54VG_6ACI-z4h2ArzjvPF9SM2vWhz0VZCtXmTWZR9oJgSvfhjKoNd_LdmNc3kviYbh-40d49tXNEgc5Sn1XWR5KqfyOiu9xr2cz_M8sYz2ZCYbKujdi0j01H__Tqn1MArvtrsluoO1-FUdUceGMxOAae44V7yCqYqYDbSArCpn7tmkqF0ka2uy3-DVP2gmVshSz_zPFcR_FJ57GbuHAtAawmHX_a2w3Zz8rgtsgXXrxvYSJ_6ZAeQUgrfbgWCbKyLHzq2PLF0tmCNnd4s5hrDXaY8vTVIZLGIfLlRnlx52NMslDSChPJZ-IrjXJq4dzsCVFyvKXt_eRqc00doLMEczeXmyIereNMDEVihNXt9HjOCYv7_1dTEdhVONqC2J7fhgprZD51xupLJJzwQmE5jjBGJI1KMaW6ui-6IqftpQrtEXdyMYtZDxNKKcU355QItDmvbzUthozlRgDBXDqcKY-pTVXiBAmt__QhNRULBDIiMglJJLfJp3s9o92hb-_sTviBXFZVQklc__4xFzntR5YJ1il8AQMoIcgBTBYWyuywR3D5JYF_0WK4VXCI4kpj7VYWXJTzmugeJ6cAvvkP68h0Mg8bU57Lx6HDSxD0vY8GkX4Q4vt6-HIoppSlJwpfampsEntf202Ad_iDm00?></g></svg>