<svg xmlns="http://www.w3.org/2000/svg" xmlns:xlink="http://www.w3.org/1999/xlink" version="1.1" data-diagram-type="DESCRIPTION" style="width:1746px;height:1048px;" width="1746.875px" height="1048.438px" viewBox="0 0 1746 1048" zoomAndPan="magnify" preserveAspectRatio="none" contentStyleType="text/css"><?plantuml 1.2026.7?><defs/><g font-family="sans-serif" lengthAdjust="spacing"><g class="title" data-source-line="13"><text x="638.997" y="38.831" fill="#1F3B73" font-size="25" textLength="458.557" font-weight="700" font-family="DejaVu Sans">14.7 Resilient Disaster Recovery</text><text x="585.03" y="67.932" fill="#1F3B73" font-size="25" textLength="566.492" font-weight="700" font-family="DejaVu Sans">On-Premises to Public Cloud Replication</text></g><!--cluster Org--><g class="cluster" data-qualified-name="Org" id="ent0001" data-source-line="15"><rect x="10.938" y="101.953" width="1260.938" height="334.375" fill="#F7F7F2" style="stroke:#B8B8B0;stroke-width:1.563;" rx="4.688" ry="4.688"/><text x="496.263" y="122.482" fill="#2D2D2D" font-size="18.75" textLength="290.286" font-weight="700" font-family="DejaVu Sans">Organization (on-premises)</text></g><!--cluster PC--><g class="cluster" data-qualified-name="PC" id="ent0014" data-source-line="30"><path d="M390.647,558.414 C411.814,524.691 433.809,526.699 459.901,552.704 C479.409,525.385 503.84,519.489 525.593,550.162 C546.879,519.478 571.653,514.62 593.725,549.344 C610.011,513.244 639.112,514.352 659.688,545.111 C676.29,519.802 701.15,526.699 713.816,549.536 C736.157,519.401 756.931,516.55 781.311,547.275 C799.081,504.408 821.975,503.742 852.697,534.762 C877.89,512.941 899.272,512.235 912.122,547.591 C929.8,514.04 957.395,517.553 977.547,544.933 C998.641,517.808 1019.446,518.674 1037.233,548.404 C1053.288,519.631 1084.928,517.885 1102.95,546.138 C1128.738,515.935 1152.605,516.763 1171.589,553.151 C1192.595,523.908 1228.025,520.491 1241.782,560.498 C1263.728,527.034 1288.539,528.888 1306.25,564.453 C1307.293,564.873 1307.658,565.523 1306.85,566.488 C1359.672,590.387 1375.038,643.647 1325.895,684.062 C1377.442,735.534 1357.306,787.141 1295.313,811.328 C1299.885,810.432 1301.504,813.712 1299.897,817.447 C1282.121,844.094 1254.86,844.224 1238.532,815.832 C1219.71,853.7 1199.299,857.932 1171.442,824.311 C1148.92,850.122 1127.377,857.285 1106.942,822.105 C1089.118,854.443 1056.359,855.665 1039.874,820.77 C1025.165,857.114 992.901,856.523 972.33,826.759 C956.224,860.873 932.844,860.637 912.255,830.982 C896.618,858.907 864.373,866.375 845.98,834.013 C825.782,860.208 794.259,854.979 781.723,825.215 C766.197,858.377 737.418,850.951 720.503,826.696 C700.935,863.423 667.687,864.103 648.602,826.23 C629.993,854.367 605.85,849.632 591.687,821.715 C572.209,853.945 545.53,853.452 522.755,825.492 C493.832,857.641 474.003,849.289 454.685,815.566 C423.117,847.613 394.548,844.744 378.125,800.391 C379.398,801.136 379.613,802 378.398,803.005 C326.679,771.912 316.307,719.306 379.086,688.903 C317.454,644.379 318.947,588.332 389.063,553.516 C391.895,554.483 392.604,555.897 390.647,558.414" style="stroke:#B8B8B0;stroke-width:1.563;" fill="#ECEEE8"/><text x="687.651" y="578.732" fill="#2D2D2D" font-size="18.75" textLength="309.073" font-weight="700" font-family="DejaVu Sans">Public Cloud (secondary site)</text></g><!--cluster HH--><g class="cluster" data-qualified-name="PC.HH" id="ent0015" data-source-line="31"><polygon points="428.125,631.641,443.75,616.016,1071.875,616.016,1071.875,758.203,1056.25,773.828,428.125,773.828,428.125,631.641" fill="#ECEEE8" style="stroke:#4A6FA5;stroke-width:1.563;stroke-linejoin:miter;stroke-miterlimit:10;"/><line x1="1056.25" y1="631.641" x2="1071.875" y2="616.016" style="stroke:#4A6FA5;stroke-width:1.563;"/><line x1="428.125" y1="631.641" x2="1056.25" y2="631.641" style="stroke:#4A6FA5;stroke-width:1.563;"/><line x1="1056.25" y1="631.641" x2="1056.25" y2="773.828" style="stroke:#4A6FA5;stroke-width:1.563;"/><text x="658.519" y="653.732" fill="#2D2D2D" font-size="18.75" textLength="170.462" font-weight="700" font-family="DejaVu Sans">Hypervisor Host</text></g><!--entity PS1--><g class="entity" data-qualified-name="Org.PS1" id="ent0002" data-source-line="16"><polygon points="196.875,177.734,212.5,162.109,403.094,162.109,403.094,215.186,387.469,230.811,196.875,230.811,196.875,177.734" fill="#ECEEE8" style="stroke:#1F3B73;stroke-width:0.781;stroke-linejoin:miter;stroke-miterlimit:10;"/><line x1="387.469" y1="177.734" x2="403.094" y2="162.109" style="stroke:#1F3B73;stroke-width:0.781;"/><line x1="196.875" y1="177.734" x2="387.469" y2="177.734" style="stroke:#1F3B73;stroke-width:0.781;"/><line x1="387.469" y1="177.734" x2="387.469" y2="230.811" style="stroke:#1F3B73;stroke-width:0.781;"/><text x="220.313" y="210.764" fill="#2D2D2D" font-size="18.75" textLength="76.273" font-family="DejaVu Sans">Physical</text><text x="296.585" y="210.764" fill="#2D2D2D" font-size="18.75" font-family="DejaVu Sans"> </text><text x="302.545" y="210.764" fill="#2D2D2D" font-size="18.75" textLength="61.487" font-family="DejaVu Sans">Server</text></g><!--entity PS2--><g class="entity" data-qualified-name="Org.PS2" id="ent0003" data-source-line="17"><polygon points="618.75,177.734,634.375,162.109,824.969,162.109,824.969,215.186,809.344,230.811,618.75,230.811,618.75,177.734" fill="#ECEEE8" style="stroke:#1F3B73;stroke-width:0.781;stroke-linejoin:miter;stroke-miterlimit:10;"/><line x1="809.344" y1="177.734" x2="824.969" y2="162.109" style="stroke:#1F3B73;stroke-width:0.781;"/><line x1="618.75" y1="177.734" x2="809.344" y2="177.734" style="stroke:#1F3B73;stroke-width:0.781;"/><line x1="809.344" y1="177.734" x2="809.344" y2="230.811" style="stroke:#1F3B73;stroke-width:0.781;"/><text x="642.188" y="210.764" fill="#2D2D2D" font-size="18.75" textLength="76.273" font-family="DejaVu Sans">Physical</text><text x="718.46" y="210.764" fill="#2D2D2D" font-size="18.75" font-family="DejaVu Sans"> </text><text x="724.42" y="210.764" fill="#2D2D2D" font-size="18.75" textLength="61.487" font-family="DejaVu Sans">Server</text></g><!--entity PS3--><g class="entity" data-qualified-name="Org.PS3" id="ent0004" data-source-line="18"><polygon points="879.688,177.734,895.313,162.109,1085.907,162.109,1085.907,215.186,1070.282,230.811,879.688,230.811,879.688,177.734" fill="#ECEEE8" style="stroke:#1F3B73;stroke-width:0.781;stroke-linejoin:miter;stroke-miterlimit:10;"/><line x1="1070.282" y1="177.734" x2="1085.907" y2="162.109" style="stroke:#1F3B73;stroke-width:0.781;"/><line x1="879.688" y1="177.734" x2="1070.282" y2="177.734" style="stroke:#1F3B73;stroke-width:0.781;"/><line x1="1070.282" y1="177.734" x2="1070.282" y2="230.811" style="stroke:#1F3B73;stroke-width:0.781;"/><text x="903.125" y="210.764" fill="#2D2D2D" font-size="18.75" textLength="76.273" font-family="DejaVu Sans">Physical</text><text x="979.398" y="210.764" fill="#2D2D2D" font-size="18.75" font-family="DejaVu Sans"> </text><text x="985.358" y="210.764" fill="#2D2D2D" font-size="18.75" textLength="61.487" font-family="DejaVu Sans">Server</text></g><!--entity oVS1--><g class="entity" data-qualified-name="Org.oVS1" id="ent0005" data-source-line="19"><rect x="317.969" y="336.328" width="92.929" height="74.902" fill="#F7F7F2" style="stroke:#B8B8B0;stroke-width:0.781;" rx="4.688" ry="4.688"/><text x="333.594" y="369.357" fill="#2D2D2D" font-size="18.75" textLength="61.679" font-family="DejaVu Sans">Virtual</text><text x="333.69" y="391.183" fill="#2D2D2D" font-size="18.75" textLength="61.487" font-family="DejaVu Sans">Server</text></g><!--entity oVS2--><g class="entity" data-qualified-name="Org.oVS2" id="ent0006" data-source-line="20"><rect x="692.969" y="336.328" width="92.929" height="74.902" fill="#F7F7F2" style="stroke:#B8B8B0;stroke-width:0.781;" rx="4.688" ry="4.688"/><text x="708.594" y="369.357" fill="#2D2D2D" font-size="18.75" textLength="61.679" font-family="DejaVu Sans">Virtual</text><text x="708.69" y="391.183" fill="#2D2D2D" font-size="18.75" textLength="61.487" font-family="DejaVu Sans">Server</text></g><!--entity oVS3--><g class="entity" data-qualified-name="Org.oVS3" id="ent0007" data-source-line="21"><rect x="924.219" y="336.328" width="92.929" height="74.902" fill="#F7F7F2" style="stroke:#B8B8B0;stroke-width:0.781;" rx="4.688" ry="4.688"/><text x="939.844" y="369.357" fill="#2D2D2D" font-size="18.75" textLength="61.679" font-family="DejaVu Sans">Virtual</text><text x="939.94" y="391.183" fill="#2D2D2D" font-size="18.75" textLength="61.487" font-family="DejaVu Sans">Server</text></g><!--entity SD1--><g class="entity" data-qualified-name="Org.SD1" id="ent0008" data-source-line="22"><path d="M458.594,167.578 C458.594,151.953 510.899,151.953 510.899,151.953 C510.899,151.953 563.205,151.953 563.205,167.578 L563.205,225.293 C563.205,240.918 510.899,240.918 510.899,240.918 C510.899,240.918 458.594,240.918 458.594,225.293 L458.594,167.578" style="stroke:#4A6FA5;stroke-width:0.781;" fill="#F7F7F2"/><path d="M458.594,167.578 C458.594,183.203 510.899,183.203 510.899,183.203 C510.899,183.203 563.205,183.203 563.205,167.578" style="stroke:#4A6FA5;stroke-width:0.781;" fill="none"/><text x="474.219" y="206.857" fill="#2D2D2D" font-size="18.75" textLength="73.361" font-family="DejaVu Sans">Storage</text><text x="478.838" y="228.683" fill="#2D2D2D" font-size="18.75" textLength="64.124" font-family="DejaVu Sans">Device</text></g><!--entity SHS--><g class="entity" data-qualified-name="Org.SHS" id="ent0009" data-source-line="23"><path d="M1141.406,167.578 C1141.406,151.953 1193.712,151.953 1193.712,151.953 C1193.712,151.953 1246.017,151.953 1246.017,167.578 L1246.017,225.293 C1246.017,240.918 1193.712,240.918 1193.712,240.918 C1193.712,240.918 1141.406,240.918 1141.406,225.293 L1141.406,167.578" style="stroke:#4A6FA5;stroke-width:0.781;" fill="#F7F7F2"/><path d="M1141.406,167.578 C1141.406,183.203 1193.712,183.203 1193.712,183.203 C1193.712,183.203 1246.017,183.203 1246.017,167.578" style="stroke:#4A6FA5;stroke-width:0.781;" fill="none"/><text x="1160.501" y="206.857" fill="#2D2D2D" font-size="18.75" textLength="66.422" font-family="DejaVu Sans">Shared</text><text x="1157.031" y="228.683" fill="#2D2D2D" font-size="18.75" textLength="73.361" font-family="DejaVu Sans">Storage</text></g><!--entity SD2--><g class="entity" data-qualified-name="Org.SD2" id="ent0010" data-source-line="24"><path d="M36.719,167.578 C36.719,151.953 89.024,151.953 89.024,151.953 C89.024,151.953 141.33,151.953 141.33,167.578 L141.33,225.293 C141.33,240.918 89.024,240.918 89.024,240.918 C89.024,240.918 36.719,240.918 36.719,225.293 L36.719,167.578" style="stroke:#4A6FA5;stroke-width:0.781;" fill="#F7F7F2"/><path d="M36.719,167.578 C36.719,183.203 89.024,183.203 89.024,183.203 C89.024,183.203 141.33,183.203 141.33,167.578" style="stroke:#4A6FA5;stroke-width:0.781;" fill="none"/><text x="52.344" y="206.857" fill="#2D2D2D" font-size="18.75" textLength="73.361" font-family="DejaVu Sans">Storage</text><text x="56.963" y="228.683" fill="#2D2D2D" font-size="18.75" textLength="64.124" font-family="DejaVu Sans">Device</text></g><!--entity CSD--><g class="entity" data-qualified-name="PC.CSD" id="ent0019" data-source-line="36"><path d="M1100.781,682.422 C1100.781,666.797 1190.445,666.797 1190.445,666.797 C1190.445,666.797 1280.109,666.797 1280.109,682.422 L1280.109,740.137 C1280.109,755.762 1190.445,755.762 1190.445,755.762 C1190.445,755.762 1100.781,755.762 1100.781,740.137 L1100.781,682.422" style="stroke:#4A6FA5;stroke-width:0.781;" fill="#F7F7F2"/><path d="M1100.781,682.422 C1100.781,698.047 1190.445,698.047 1190.445,698.047 C1190.445,698.047 1280.109,698.047 1280.109,682.422" style="stroke:#4A6FA5;stroke-width:0.781;" fill="none"/><text x="1124.005" y="721.701" fill="#2D2D2D" font-size="18.75" textLength="53.558" font-family="DejaVu Sans">Cloud</text><text x="1177.563" y="721.701" fill="#2D2D2D" font-size="18.75" font-family="DejaVu Sans"> </text><text x="1183.524" y="721.701" fill="#2D2D2D" font-size="18.75" textLength="73.361" font-family="DejaVu Sans">Storage</text><text x="1116.406" y="743.527" fill="#2D2D2D" font-size="18.75" textLength="64.124" font-family="DejaVu Sans">Device</text><text x="1180.53" y="743.527" fill="#2D2D2D" font-size="18.75" font-family="DejaVu Sans"> </text><text x="1186.49" y="743.527" fill="#2D2D2D" font-size="18.75" textLength="77.994" font-family="DejaVu Sans">(replica)</text></g><!--entity VS1--><g class="entity" data-qualified-name="PC.HH.VS1" id="ent0016" data-source-line="32"><rect x="453.906" y="673.828" width="160.376" height="74.902" fill="#F7F7F2" style="stroke:#B8B8B0;stroke-width:0.781;" rx="4.688" ry="4.688"/><text x="469.531" y="706.857" fill="#2D2D2D" font-size="18.75" textLength="61.679" font-family="DejaVu Sans">Virtual</text><text x="531.21" y="706.857" fill="#2D2D2D" font-size="18.75" font-family="DejaVu Sans"> </text><text x="537.17" y="706.857" fill="#2D2D2D" font-size="18.75" textLength="61.487" font-family="DejaVu Sans">Server</text><text x="495.097" y="728.683" fill="#2D2D2D" font-size="18.75" textLength="77.994" font-family="DejaVu Sans">(replica)</text></g><!--entity VS2--><g class="entity" data-qualified-name="PC.HH.VS2" id="ent0017" data-source-line="33"><rect x="669.531" y="673.828" width="160.376" height="74.902" fill="#F7F7F2" style="stroke:#B8B8B0;stroke-width:0.781;" rx="4.688" ry="4.688"/><text x="685.156" y="706.857" fill="#2D2D2D" font-size="18.75" textLength="61.679" font-family="DejaVu Sans">Virtual</text><text x="746.835" y="706.857" fill="#2D2D2D" font-size="18.75" font-family="DejaVu Sans"> </text><text x="752.795" y="706.857" fill="#2D2D2D" font-size="18.75" textLength="61.487" font-family="DejaVu Sans">Server</text><text x="710.722" y="728.683" fill="#2D2D2D" font-size="18.75" textLength="77.994" font-family="DejaVu Sans">(replica)</text></g><!--entity VS3--><g class="entity" data-qualified-name="PC.HH.VS3" id="ent0018" data-source-line="34"><rect x="885.156" y="673.828" width="160.376" height="74.902" fill="#F7F7F2" style="stroke:#B8B8B0;stroke-width:0.781;" rx="4.688" ry="4.688"/><text x="900.781" y="706.857" fill="#2D2D2D" font-size="18.75" textLength="61.679" font-family="DejaVu Sans">Virtual</text><text x="962.46" y="706.857" fill="#2D2D2D" font-size="18.75" font-family="DejaVu Sans"> </text><text x="968.42" y="706.857" fill="#2D2D2D" font-size="18.75" textLength="61.487" font-family="DejaVu Sans">Server</text><text x="926.347" y="728.683" fill="#2D2D2D" font-size="18.75" textLength="77.994" font-family="DejaVu Sans">(replica)</text></g><g class="entity" data-qualified-name="GMN24" id="ent0025" data-source-line="45"><path d="M1357.031,658.203 L1357.031,764.49 A4.688,4.688 0 0 0 1361.719,769.177 L1719.364,769.177 A4.688,4.688 0 0 0 1724.052,764.49 L1724.052,669.141 L1708.427,653.516 L1361.719,653.516 A4.688,4.688 0 0 0 1357.031,658.203" style="stroke:#B8B8B0;stroke-width:0.781;" fill="#F7F7F2"/><path d="M1708.427,653.516 L1708.427,666.797 A2.344,2.344 0 0 0 1710.77,669.141 L1724.052,669.141 L1708.427,653.516" style="stroke:#B8B8B0;stroke-width:1.563;" fill="#F7F7F2"/><text x="1366.406" y="677.282" fill="#2D2D2D" font-size="17.188" textLength="49.095" font-family="DejaVu Sans">Cloud</text><text x="1415.501" y="677.282" fill="#2D2D2D" font-size="17.188" font-family="DejaVu Sans"> </text><text x="1420.965" y="677.282" fill="#2D2D2D" font-size="17.188" textLength="154.377" font-family="DejaVu Sans">ubiquitous-access</text><text x="1575.342" y="677.282" fill="#2D2D2D" font-size="17.188" font-family="DejaVu Sans"> </text><text x="1580.805" y="677.282" fill="#2D2D2D" font-size="17.188" textLength="32.336" font-family="DejaVu Sans">and</text><text x="1613.141" y="677.282" fill="#2D2D2D" font-size="17.188" font-family="DejaVu Sans"> </text><text x="1618.604" y="677.282" fill="#2D2D2D" font-size="17.188" textLength="82.01" font-family="DejaVu Sans">resiliency</text><text x="1434.808" y="697.289" fill="#2D2D2D" font-size="17.188" textLength="125.952" font-family="DejaVu Sans">characteristics</text><text x="1560.76" y="697.289" fill="#2D2D2D" font-size="17.188" font-family="DejaVu Sans"> </text><text x="1566.224" y="697.289" fill="#2D2D2D" font-size="17.188" textLength="65.989" font-family="DejaVu Sans">support</text><text x="1462.108" y="717.297" fill="#2D2D2D" font-size="17.188" textLength="142.804" font-family="DejaVu Sans">always-available</text><text x="1371.4" y="737.304" fill="#2D2D2D" font-size="17.188" textLength="102.294" font-family="DejaVu Sans">redundancy</text><text x="1473.694" y="737.304" fill="#2D2D2D" font-size="17.188" font-family="DejaVu Sans"> </text><text x="1479.157" y="737.304" fill="#2D2D2D" font-size="17.188" textLength="34.904" font-family="DejaVu Sans">that</text><text x="1514.061" y="737.304" fill="#2D2D2D" font-size="17.188" font-family="DejaVu Sans"> </text><text x="1519.524" y="737.304" fill="#2D2D2D" font-size="17.188" textLength="46.754" font-family="DejaVu Sans">takes</text><text x="1566.278" y="737.304" fill="#2D2D2D" font-size="17.188" font-family="DejaVu Sans"> </text><text x="1571.741" y="737.304" fill="#2D2D2D" font-size="17.188" textLength="38.328" font-family="DejaVu Sans">over</text><text x="1610.069" y="737.304" fill="#2D2D2D" font-size="17.188" font-family="DejaVu Sans"> </text><text x="1615.533" y="737.304" fill="#2D2D2D" font-size="17.188" textLength="46.418" font-family="DejaVu Sans">when</text><text x="1661.951" y="737.304" fill="#2D2D2D" font-size="17.188" font-family="DejaVu Sans"> </text><text x="1667.414" y="737.304" fill="#2D2D2D" font-size="17.188" textLength="28.207" font-family="DejaVu Sans">the</text><text x="1367.908" y="757.311" fill="#2D2D2D" font-size="17.188" textLength="67.265" font-family="DejaVu Sans">primary</text><text x="1435.173" y="757.311" fill="#2D2D2D" font-size="17.188" font-family="DejaVu Sans"> </text><text x="1440.636" y="757.311" fill="#2D2D2D" font-size="17.188" textLength="31.043" font-family="DejaVu Sans">site</text><text x="1471.68" y="757.311" fill="#2D2D2D" font-size="17.188" font-family="DejaVu Sans"> </text><text x="1477.143" y="757.311" fill="#2D2D2D" font-size="17.188" textLength="13.73" font-family="DejaVu Sans">is</text><text x="1490.873" y="757.311" fill="#2D2D2D" font-size="17.188" font-family="DejaVu Sans"> </text><text x="1496.336" y="757.311" fill="#2D2D2D" font-size="17.188" textLength="86.416" font-family="DejaVu Sans">destroyed</text><text x="1582.752" y="757.311" fill="#2D2D2D" font-size="17.188" font-family="DejaVu Sans"> </text><text x="1588.216" y="757.311" fill="#2D2D2D" font-size="17.188" textLength="17.582" font-family="DejaVu Sans">or</text><text x="1605.798" y="757.311" fill="#2D2D2D" font-size="17.188" font-family="DejaVu Sans"> </text><text x="1611.261" y="757.311" fill="#2D2D2D" font-size="17.188" textLength="87.851" font-family="DejaVu Sans">degraded.</text></g><g class="entity" data-qualified-name="GMN27" id="ent0028" data-source-line="52"><path d="M191.406,914.453 L191.406,1020.74 A4.688,4.688 0 0 0 196.094,1025.427 L559.698,1025.427 A4.688,4.688 0 0 0 564.385,1020.74 L564.385,925.391 L548.76,909.766 L196.094,909.766 A4.688,4.688 0 0 0 191.406,914.453" style="stroke:#B8B8B0;stroke-width:0.781;" fill="#F7F7F2"/><path d="M548.76,909.766 L548.76,923.047 A2.344,2.344 0 0 0 551.104,925.391 L564.385,925.391 L548.76,909.766" style="stroke:#B8B8B0;stroke-width:1.563;" fill="#F7F7F2"/><text x="200.781" y="933.532" fill="#2D2D2D" font-size="17.188" textLength="112.39" font-family="DejaVu Sans">Mechanisms:</text><text x="313.171" y="933.532" fill="#2D2D2D" font-size="17.188" font-family="DejaVu Sans"> </text><text x="318.635" y="933.532" fill="#2D2D2D" font-size="17.188" textLength="96.562" font-family="DejaVu Sans">hypervisor,</text><text x="415.197" y="933.532" fill="#2D2D2D" font-size="17.188" font-family="DejaVu Sans"> </text><text x="420.66" y="933.532" fill="#2D2D2D" font-size="17.188" textLength="54.953" font-family="DejaVu Sans">virtual</text><text x="475.613" y="933.532" fill="#2D2D2D" font-size="17.188" font-family="DejaVu Sans"> </text><text x="481.077" y="933.532" fill="#2D2D2D" font-size="17.188" textLength="59.871" font-family="DejaVu Sans">server,</text><text x="347.593" y="953.539" fill="#2D2D2D" font-size="17.188" textLength="46.544" font-family="DejaVu Sans">cloud</text><text x="213.282" y="973.547" fill="#2D2D2D" font-size="17.188" textLength="65.292" font-family="DejaVu Sans">storage</text><text x="278.574" y="973.547" fill="#2D2D2D" font-size="17.188" font-family="DejaVu Sans"> </text><text x="284.037" y="973.547" fill="#2D2D2D" font-size="17.188" textLength="61.919" font-family="DejaVu Sans">device,</text><text x="345.956" y="973.547" fill="#2D2D2D" font-size="17.188" font-family="DejaVu Sans"> </text><text x="351.419" y="973.547" fill="#2D2D2D" font-size="17.188" textLength="75.095" font-family="DejaVu Sans">resource</text><text x="426.514" y="973.547" fill="#2D2D2D" font-size="17.188" font-family="DejaVu Sans"> </text><text x="431.977" y="973.547" fill="#2D2D2D" font-size="17.188" textLength="96.47" font-family="DejaVu Sans">replication,</text><text x="338.218" y="993.554" fill="#2D2D2D" font-size="17.188" textLength="65.292" font-family="DejaVu Sans">storage</text><text x="322.63" y="1013.561" fill="#2D2D2D" font-size="17.188" textLength="96.47" font-family="DejaVu Sans">replication.</text></g><!--link PS1 to oVS1--><g class="link" data-entity-1="ent0002" data-entity-2="ent0005" id="lnk11" data-source-line="25" data-link-type="association"><path d="M312.203,231.219 C323.234,261.234 339.453,305.328 350.797,336.203" style="stroke:#2D2D2D;stroke-width:1.563;" fill="none" id="PS1-oVS1"/></g><!--link PS2 to oVS2--><g class="link" data-entity-1="ent0003" data-entity-2="ent0006" id="lnk12" data-source-line="26" data-link-type="association"><path d="M725.141,231.219 C728.109,261.234 732.453,305.328 735.5,336.203" style="stroke:#2D2D2D;stroke-width:1.563;" fill="none" id="PS2-oVS2"/></g><!--link PS3 to oVS3--><g class="link" data-entity-1="ent0004" data-entity-2="ent0007" id="lnk13" data-source-line="27" data-link-type="association"><path d="M980.438,231.219 C978.281,261.234 975.109,305.328 972.906,336.203" style="stroke:#2D2D2D;stroke-width:1.563;" fill="none" id="PS3-oVS3"/></g><!--link oVS1 to VS1--><g class="link" data-entity-1="ent0005" data-entity-2="ent0016" id="lnk20" data-source-line="39" data-link-type="dependency"><path d="M386.969,411.781 C404.25,439.828 428.094,479.797 446.875,516.016 C474.734,569.75 499.779,626.957 516.357,666.301" style="stroke:#2D2D2D;stroke-width:3.125;" fill="none" id="oVS1-to-VS1"/><polygon points="519.391,673.5,519.69,658.114,516.357,666.301,508.171,662.968,519.391,673.5" fill="#2D2D2D" style="stroke:#2D2D2D;stroke-width:3.125;stroke-linejoin:miter;stroke-miterlimit:10;"/><text x="448.581" y="478.844" fill="#2D2D2D" font-size="17.188" textLength="75.095" font-family="DejaVu Sans">resource</text><text x="440.625" y="498.852" fill="#2D2D2D" font-size="17.188" textLength="91.006" font-family="DejaVu Sans">replication</text></g><!--link oVS2 to VS2--><g class="link" data-entity-1="ent0006" data-entity-2="ent0017" id="lnk21" data-source-line="40" data-link-type="dependency"><path d="M740.25,411.813 C742.359,476.125 746.447,601.301 748.556,665.582" style="stroke:#2D2D2D;stroke-width:3.125;" fill="none" id="oVS2-to-VS2"/><polygon points="748.813,673.391,754.598,659.131,748.556,665.582,742.105,659.541,748.813,673.391" fill="#2D2D2D" style="stroke:#2D2D2D;stroke-width:3.125;stroke-linejoin:miter;stroke-miterlimit:10;"/><text x="751.706" y="478.844" fill="#2D2D2D" font-size="17.188" textLength="75.095" font-family="DejaVu Sans">resource</text><text x="743.75" y="498.852" fill="#2D2D2D" font-size="17.188" textLength="91.006" font-family="DejaVu Sans">replication</text></g><!--link oVS3 to VS3--><g class="link" data-entity-1="ent0007" data-entity-2="ent0018" id="lnk22" data-source-line="41" data-link-type="dependency"><path d="M969.797,411.813 C968.906,476.125 967.139,601.298 966.249,665.579" style="stroke:#2D2D2D;stroke-width:3.125;" fill="none" id="oVS3-to-VS3"/><polygon points="966.141,673.391,972.585,659.416,966.249,665.579,960.086,659.243,966.141,673.391" fill="#2D2D2D" style="stroke:#2D2D2D;stroke-width:3.125;stroke-linejoin:miter;stroke-miterlimit:10;"/><text x="978.268" y="478.844" fill="#2D2D2D" font-size="17.188" textLength="75.095" font-family="DejaVu Sans">resource</text><text x="970.313" y="498.852" fill="#2D2D2D" font-size="17.188" textLength="91.006" font-family="DejaVu Sans">replication</text></g><!--link SHS to CSD--><g class="link" data-entity-1="ent0009" data-entity-2="ent0019" id="lnk23" data-source-line="42" data-link-type="dependency"><path d="M1193.484,241.234 C1192.891,337.609 1191.532,561.563 1190.939,658.344" style="stroke:#2D2D2D;stroke-width:3.125;" fill="none" id="SHS-to-CSD"/><polygon points="1190.891,666.156,1197.227,652.132,1190.939,658.344,1184.727,652.056,1190.891,666.156" fill="#2D2D2D" style="stroke:#2D2D2D;stroke-width:3.125;stroke-linejoin:miter;stroke-miterlimit:10;"/><text x="1206.607" y="370.251" fill="#2D2D2D" font-size="17.188" textLength="65.292" font-family="DejaVu Sans">storage</text><text x="1193.75" y="390.258" fill="#2D2D2D" font-size="17.188" textLength="91.006" font-family="DejaVu Sans">replication</text></g><!--link PC to GMN24--><g class="link" data-entity-1="ent0014" data-entity-2="ent0025" id="lnk26" data-source-line="45" data-link-type="association"><path d="M400.994,540.671 C401.333,539.959 401.676,539.25 402.023,538.543 C402.718,537.131 403.431,535.731 404.163,534.344 C415.872,512.158 432.359,493.41 455.469,482.422 C538.094,443.141 1193.25,450.25 1278.906,482.422 C1369.328,516.391 1448.953,597.313 1495.953,653.234" style="stroke:#2D2D2D;stroke-width:1.563;stroke-dasharray:10.938,10.938;" fill="none" id="PC-GMN24"/></g><!--link PC to GMN27--><g class="link" data-entity-1="ent0014" data-entity-2="ent0028" id="lnk29" data-source-line="52" data-link-type="association"><path d="M378.125,824.681 C378.125,827.348 378.125,830.025 378.125,832.706 C378.125,838.068 378.125,843.446 378.125,848.801 C378.125,870.223 378.125,891.285 378.125,909.516" style="stroke:#2D2D2D;stroke-width:1.563;stroke-dasharray:10.938,10.938;" fill="none" id="PC-GMN27"/></g><?plantuml-src fLJ1Rjim3BtxAxXSrW5niYGR1XJOW24vv58qM8gUSb4aDX6YI9uef_26_lieoywSTcjQLF31aXufyf5yjDEs45xiGHKQHfy_PhpUmzStB3QVQR69FW4kuGUIDXfju5CI5D3paNG7z1Na_5iOBKNGpiADAvnncueTB57MHz71wDFWoxDUldkvrO4jIeziUrCL2FMwX1cxTzK-sgaK4mEka4Xii8tEbLuY2Ak0WlFnmdU2sY4M88qhLRuMX8hjkykZAgqIx5-wGYE1kmDdyyBZNXDlfTU1NPadPkbP0cs1AYlxV2HK1S5143k4c1c8EyxpaQNWH181WxVMANkdhJIbGXWCXa-_u9pHTZEaK1caOM4uot9lUE_BoBKmGtMaDs_epMlqG3Cmou8E1i_MRsMlRRve2MC25kMQwOTf9BtR85bM2BcB1UfT-usm-bSgqKM7y0yz40Hy3Ryp0EiukTvYMr6i0NULvmThn68vEdC_FdC_oM8PPH1smqdsRhKFfJ0hsm6vs_gLywZnYr3nHIM2Y7q8lMLgrfMTuK5Bh47BsUWKinNSeEmdOHDcldo1dnWHSmHvtcR1Z3IxT3TfTfFi8Slg0M6ckfMx82umpmPFAF5ufieifft2p7bI_K6Jyp1t56h0V5u3_iL7m__ANZG3cbocy5vbC7wjGQJ-uOIsbECZyk3KRhgSHN8YWJoftsAaB3djxAziHsSYQDo0ni-19WreybyG5xZ6yEkCeJR2BYIpBh3CwSqsHC5QJ3crb52vrZzB7Ln9kP2iJrGBes-cLrOCbDnKGl84Qs9f8w2oA9mF8CozgDZi8BGHQuFPNtMKB6nR4MffewHjzrkqV1XHXTVxjaj04oXaYN4LAk36KCYoeb0DCkH0OjnDz6iNWjiVmxz2ZijgsjCbR8zzrOT3KrcgAzjFKixuLkjLNRZ-aSkk-FTRL9tAyRWJoXy0?></g></svg>