<svg xmlns="http://www.w3.org/2000/svg" xmlns:xlink="http://www.w3.org/1999/xlink" version="1.1" data-diagram-type="DESCRIPTION" style="width:1492px;height:596px;" width="1492.188px" height="596.875px" viewBox="0 0 1492 596" zoomAndPan="magnify" preserveAspectRatio="none" contentStyleType="text/css"><?plantuml 1.2026.7?><defs/><g font-family="sans-serif" lengthAdjust="spacing"><g class="title" data-source-line="4"><text x="528.705" y="38.831" fill="#1F3B73" font-size="25" textLength="423.84" font-weight="700" font-family="DejaVu Sans">Peer-to-Peer Connector Types</text><text x="457.458" y="67.932" fill="#1F3B73" font-size="25" textLength="566.333" font-weight="700" font-family="DejaVu Sans">Communication patterns between peers</text></g><!--cluster CR--><g class="cluster" data-qualified-name="CR" id="ent0001" data-source-line="6"><path d="M14.063,100.391 L133.173,100.391 A7.031,7.031 0 0 1 137.86,105.078 L148.798,131.592 L331.25,131.592 A4.688,4.688 0 0 1 335.938,136.279 L335.938,436.328 A4.688,4.688 0 0 1 331.25,441.016 L14.063,441.016 A4.688,4.688 0 0 1 9.375,436.328 L9.375,105.078 A4.688,4.688 0 0 1 14.063,100.391" style="stroke:#4A6FA5;stroke-width:2.344;" fill="#ECEEE8"/><line x1="9.375" y1="131.592" x2="148.798" y2="131.592" style="stroke:#4A6FA5;stroke-width:2.344;"/><text x="15.625" y="120.92" fill="#2D2D2D" font-size="18.75" textLength="119.11" font-weight="700" font-family="DejaVu Sans">Call-Return</text></g><!--cluster AM--><g class="cluster" data-qualified-name="AM" id="ent0006" data-source-line="13"><path d="M378.125,100.391 L539.496,100.391 A7.031,7.031 0 0 1 544.183,105.078 L555.121,131.592 L585.938,131.592 A4.688,4.688 0 0 1 590.625,136.279 L590.625,436.328 A4.688,4.688 0 0 1 585.938,441.016 L378.125,441.016 A4.688,4.688 0 0 1 373.438,436.328 L373.438,105.078 A4.688,4.688 0 0 1 378.125,100.391" style="stroke:#4A6FA5;stroke-width:2.344;" fill="#ECEEE8"/><line x1="373.438" y1="131.592" x2="555.121" y2="131.592" style="stroke:#4A6FA5;stroke-width:2.344;"/><text x="379.688" y="120.92" fill="#2D2D2D" font-size="18.75" textLength="161.371" font-weight="700" font-family="DejaVu Sans">Async Message</text></g><!--cluster ST--><g class="cluster" data-qualified-name="ST" id="ent0010" data-source-line="19"><path d="M632.813,100.391 L709.433,100.391 A7.031,7.031 0 0 1 714.12,105.078 L725.058,131.592 L915.625,131.592 A4.688,4.688 0 0 1 920.313,136.279 L920.313,436.328 A4.688,4.688 0 0 1 915.625,441.016 L632.813,441.016 A4.688,4.688 0 0 1 628.125,436.328 L628.125,105.078 A4.688,4.688 0 0 1 632.813,100.391" style="stroke:#4A6FA5;stroke-width:2.344;" fill="#ECEEE8"/><line x1="628.125" y1="131.592" x2="725.058" y2="131.592" style="stroke:#4A6FA5;stroke-width:2.344;"/><text x="634.375" y="120.92" fill="#2D2D2D" font-size="18.75" textLength="76.62" font-weight="700" font-family="DejaVu Sans">Stream</text></g><!--cluster MC--><g class="cluster" data-qualified-name="MC" id="ent0014" data-source-line="25"><path d="M962.5,100.391 L1060.214,100.391 A7.031,7.031 0 0 1 1064.902,105.078 L1075.839,131.592 L1464.063,131.592 A4.688,4.688 0 0 1 1468.75,136.279 L1468.75,436.328 A4.688,4.688 0 0 1 1464.063,441.016 L962.5,441.016 A4.688,4.688 0 0 1 957.813,436.328 L957.813,105.078 A4.688,4.688 0 0 1 962.5,100.391" style="stroke:#4A6FA5;stroke-width:2.344;" fill="#ECEEE8"/><line x1="957.813" y1="131.592" x2="1075.839" y2="131.592" style="stroke:#4A6FA5;stroke-width:2.344;"/><text x="964.063" y="120.92" fill="#2D2D2D" font-size="18.75" textLength="97.714" font-weight="700" font-family="DejaVu Sans">Multicast</text></g><!--entity cr_a--><g class="entity" data-qualified-name="CR.cr_a" id="ent0002" data-source-line="7"><rect x="106.25" y="150.391" width="100.201" height="74.902" fill="#F7F7F2" style="stroke:#B8B8B0;stroke-width:0.781;" rx="4.688" ry="4.688"/><text x="123.438" y="183.42" fill="#2D2D2D" font-size="18.75" textLength="65.826" font-style="italic" font-family="DejaVu Sans">«peer»</text><text x="125.914" y="205.246" fill="#2D2D2D" font-size="18.75" textLength="42.087" font-family="DejaVu Sans">Peer</text><text x="168.001" y="205.246" fill="#2D2D2D" font-size="18.75" font-family="DejaVu Sans"> </text><text x="173.961" y="205.246" fill="#2D2D2D" font-size="18.75" font-family="DejaVu Sans">A</text></g><!--entity cr_b--><g class="entity" data-qualified-name="CR.cr_b" id="ent0003" data-source-line="8"><rect x="106.25" y="341.016" width="100.201" height="74.902" fill="#F7F7F2" style="stroke:#B8B8B0;stroke-width:0.781;" rx="4.688" ry="4.688"/><text x="123.438" y="374.045" fill="#2D2D2D" font-size="18.75" textLength="65.826" font-style="italic" font-family="DejaVu Sans">«peer»</text><text x="125.896" y="395.871" fill="#2D2D2D" font-size="18.75" textLength="42.087" font-family="DejaVu Sans">Peer</text><text x="167.982" y="395.871" fill="#2D2D2D" font-size="18.75" font-family="DejaVu Sans"> </text><text x="173.943" y="395.871" fill="#2D2D2D" font-size="18.75" font-family="DejaVu Sans">B</text></g><!--entity am_c--><g class="entity" data-qualified-name="AM.am_c" id="ent0007" data-source-line="14"><rect x="403.125" y="150.391" width="100.201" height="74.902" fill="#F7F7F2" style="stroke:#B8B8B0;stroke-width:0.781;" rx="4.688" ry="4.688"/><text x="420.313" y="183.42" fill="#2D2D2D" font-size="18.75" textLength="65.826" font-style="italic" font-family="DejaVu Sans">«peer»</text><text x="422.656" y="205.246" fill="#2D2D2D" font-size="18.75" textLength="42.087" font-family="DejaVu Sans">Peer</text><text x="464.743" y="205.246" fill="#2D2D2D" font-size="18.75" font-family="DejaVu Sans"> </text><text x="470.703" y="205.246" fill="#2D2D2D" font-size="18.75" font-family="DejaVu Sans">C</text></g><!--entity am_d--><g class="entity" data-qualified-name="AM.am_d" id="ent0008" data-source-line="15"><rect x="403.125" y="341.016" width="100.201" height="74.902" fill="#F7F7F2" style="stroke:#B8B8B0;stroke-width:0.781;" rx="4.688" ry="4.688"/><text x="420.313" y="374.045" fill="#2D2D2D" font-size="18.75" textLength="65.826" font-style="italic" font-family="DejaVu Sans">«peer»</text><text x="421.983" y="395.871" fill="#2D2D2D" font-size="18.75" textLength="42.087" font-family="DejaVu Sans">Peer</text><text x="464.07" y="395.871" fill="#2D2D2D" font-size="18.75" font-family="DejaVu Sans"> </text><text x="470.03" y="395.871" fill="#2D2D2D" font-size="18.75" font-family="DejaVu Sans">D</text></g><!--entity st_e--><g class="entity" data-qualified-name="ST.st_e" id="ent0011" data-source-line="20"><rect x="657.813" y="150.391" width="100.201" height="74.902" fill="#F7F7F2" style="stroke:#B8B8B0;stroke-width:0.781;" rx="4.688" ry="4.688"/><text x="675" y="183.42" fill="#2D2D2D" font-size="18.75" textLength="65.826" font-style="italic" font-family="DejaVu Sans">«peer»</text><text x="677.966" y="205.246" fill="#2D2D2D" font-size="18.75" textLength="42.087" font-family="DejaVu Sans">Peer</text><text x="720.053" y="205.246" fill="#2D2D2D" font-size="18.75" font-family="DejaVu Sans"> </text><text x="726.013" y="205.246" fill="#2D2D2D" font-size="18.75" font-family="DejaVu Sans">E</text></g><!--entity st_f--><g class="entity" data-qualified-name="ST.st_f" id="ent0012" data-source-line="21"><rect x="657.813" y="341.016" width="100.201" height="74.902" fill="#F7F7F2" style="stroke:#B8B8B0;stroke-width:0.781;" rx="4.688" ry="4.688"/><text x="675" y="374.045" fill="#2D2D2D" font-size="18.75" textLength="65.826" font-style="italic" font-family="DejaVu Sans">«peer»</text><text x="678.497" y="395.871" fill="#2D2D2D" font-size="18.75" textLength="42.087" font-family="DejaVu Sans">Peer</text><text x="720.584" y="395.871" fill="#2D2D2D" font-size="18.75" font-family="DejaVu Sans"> </text><text x="726.544" y="395.871" fill="#2D2D2D" font-size="18.75" font-family="DejaVu Sans">F</text></g><!--entity mc_g--><g class="entity" data-qualified-name="MC.mc_g" id="ent0015" data-source-line="26"><rect x="1143.75" y="150.391" width="100.201" height="74.902" fill="#F7F7F2" style="stroke:#B8B8B0;stroke-width:0.781;" rx="4.688" ry="4.688"/><text x="1160.938" y="183.42" fill="#2D2D2D" font-size="18.75" textLength="65.826" font-style="italic" font-family="DejaVu Sans">«peer»</text><text x="1162.563" y="205.246" fill="#2D2D2D" font-size="18.75" textLength="42.087" font-family="DejaVu Sans">Peer</text><text x="1204.649" y="205.246" fill="#2D2D2D" font-size="18.75" font-family="DejaVu Sans"> </text><text x="1210.609" y="205.246" fill="#2D2D2D" font-size="18.75" font-family="DejaVu Sans">G</text></g><!--entity mc_h--><g class="entity" data-qualified-name="MC.mc_h" id="ent0016" data-source-line="27"><rect x="987.5" y="341.016" width="100.201" height="74.902" fill="#F7F7F2" style="stroke:#B8B8B0;stroke-width:0.781;" rx="4.688" ry="4.688"/><text x="1004.688" y="374.045" fill="#2D2D2D" font-size="18.75" textLength="65.826" font-style="italic" font-family="DejaVu Sans">«peer»</text><text x="1006.528" y="395.871" fill="#2D2D2D" font-size="18.75" textLength="42.087" font-family="DejaVu Sans">Peer</text><text x="1048.615" y="395.871" fill="#2D2D2D" font-size="18.75" font-family="DejaVu Sans"> </text><text x="1054.575" y="395.871" fill="#2D2D2D" font-size="18.75" font-family="DejaVu Sans">H</text></g><!--entity mc_i--><g class="entity" data-qualified-name="MC.mc_i" id="ent0017" data-source-line="28"><rect x="1143.75" y="341.016" width="100.201" height="74.902" fill="#F7F7F2" style="stroke:#B8B8B0;stroke-width:0.781;" rx="4.688" ry="4.688"/><text x="1160.938" y="374.045" fill="#2D2D2D" font-size="18.75" textLength="65.826" font-style="italic" font-family="DejaVu Sans">«peer»</text><text x="1167.062" y="395.871" fill="#2D2D2D" font-size="18.75" textLength="42.087" font-family="DejaVu Sans">Peer</text><text x="1209.149" y="395.871" fill="#2D2D2D" font-size="18.75" font-family="DejaVu Sans"> </text><text x="1215.109" y="395.871" fill="#2D2D2D" font-size="18.75" font-family="DejaVu Sans">I</text></g><!--entity mc_j--><g class="entity" data-qualified-name="MC.mc_j" id="ent0018" data-source-line="29"><rect x="1300" y="341.016" width="100.201" height="74.902" fill="#F7F7F2" style="stroke:#B8B8B0;stroke-width:0.781;" rx="4.688" ry="4.688"/><text x="1317.188" y="374.045" fill="#2D2D2D" font-size="18.75" textLength="65.826" font-style="italic" font-family="DejaVu Sans">«peer»</text><text x="1323.312" y="395.871" fill="#2D2D2D" font-size="18.75" textLength="42.087" font-family="DejaVu Sans">Peer</text><text x="1365.399" y="395.871" fill="#2D2D2D" font-size="18.75" font-family="DejaVu Sans"> </text><text x="1371.359" y="395.871" fill="#2D2D2D" font-size="18.75" font-family="DejaVu Sans">J</text></g><!--link cr_a to cr_b--><g class="link" data-entity-1="ent0002" data-entity-2="ent0003" id="lnk4" data-source-line="9" data-link-type="dependency"><path d="M109.109,225.719 C90.328,244.813 75.125,269.359 84.375,294.141 C90.828,311.438 97.422,321.773 109.687,335.07" style="stroke:#1F3B73;stroke-width:3.125;" fill="none" id="cr_a-to-cr_b"/><polygon points="114.984,340.813,110.044,326.238,109.687,335.07,100.856,334.714,114.984,340.813" fill="#1F3B73" style="stroke:#1F3B73;stroke-width:3.125;stroke-linejoin:miter;stroke-miterlimit:10;"/><text x="85.938" y="289.782" fill="#2D2D2D" font-size="17.188" font-family="DejaVu Sans"> </text><text x="91.401" y="289.782" fill="#2D2D2D" font-size="17.188" textLength="65.712" font-family="DejaVu Sans">request</text></g><!--link cr_b to cr_a--><g class="link" data-entity-1="ent0003" data-entity-2="ent0002" id="lnk5" data-source-line="10" data-link-type="dependency"><path d="M161.141,340.641 C163.297,320.516 165.141,295.016 164.063,272.266 C163.344,256.969 162.664,247.929 161.195,233.46" style="stroke:#1F3B73;stroke-width:1.563;stroke-dasharray:10.938,10.938;" fill="none" id="cr_b-to-cr_a"/><polygon points="160.406,225.688,155.608,240.309,161.195,233.46,168.045,239.047,160.406,225.688" fill="#1F3B73" style="stroke:#1F3B73;stroke-width:1.563;stroke-linejoin:miter;stroke-miterlimit:10;"/><text x="165.625" y="289.782" fill="#2D2D2D" font-size="17.188" font-family="DejaVu Sans"> </text><text x="171.088" y="289.782" fill="#2D2D2D" font-size="17.188" textLength="78.443" font-family="DejaVu Sans">response</text></g><!--link am_c to am_d--><g class="link" data-entity-1="ent0007" data-entity-2="ent0008" id="lnk9" data-source-line="16" data-link-type="dependency"><path d="M453.125,225.609 C453.125,258.813 453.125,299.937 453.125,333.094" style="stroke:#B7791F;stroke-width:3.125;" fill="none" id="am_c-to-am_d"/><polygon points="453.125,340.906,459.375,326.844,453.125,333.094,446.875,326.844,453.125,340.906" fill="#B7791F" style="stroke:#B7791F;stroke-width:3.125;stroke-linejoin:miter;stroke-miterlimit:10;"/><text x="454.688" y="289.782" fill="#2D2D2D" font-size="17.188" font-family="DejaVu Sans"> </text><text x="460.151" y="289.782" fill="#2D2D2D" font-size="17.188" textLength="28.467" font-family="DejaVu Sans">fire</text><text x="488.618" y="289.782" fill="#2D2D2D" font-size="17.188" font-family="DejaVu Sans"> </text><text x="494.081" y="289.782" fill="#2D2D2D" font-size="17.188" font-family="DejaVu Sans">&amp;</text><text x="507.484" y="289.782" fill="#2D2D2D" font-size="17.188" font-family="DejaVu Sans"> </text><text x="512.947" y="289.782" fill="#2D2D2D" font-size="17.188" textLength="51.856" font-family="DejaVu Sans">forget</text></g><!--link st_e to st_f--><g class="link" data-entity-1="ent0011" data-entity-2="ent0012" id="lnk13" data-source-line="22" data-link-type="dependency"><path d="M707.813,225.609 C707.813,258.813 707.813,299.937 707.813,333.094" style="stroke:#C7BAE8;stroke-width:3.125;" fill="none" id="st_e-to-st_f"/><polygon points="707.813,340.906,714.063,326.844,707.813,333.094,701.563,326.844,707.813,340.906" fill="#C7BAE8" style="stroke:#C7BAE8;stroke-width:3.125;stroke-linejoin:miter;stroke-miterlimit:10;"/><text x="709.375" y="289.782" fill="#2D2D2D" font-size="17.188" font-family="DejaVu Sans"> </text><text x="714.838" y="289.782" fill="#2D2D2D" font-size="17.188" textLength="94.523" font-family="DejaVu Sans">continuous</text><text x="809.361" y="289.782" fill="#2D2D2D" font-size="17.188" font-family="DejaVu Sans"> </text><text x="814.825" y="289.782" fill="#2D2D2D" font-size="17.188" textLength="38.714" font-family="DejaVu Sans">data</text><text x="853.539" y="289.782" fill="#2D2D2D" font-size="17.188" font-family="DejaVu Sans"> </text><text x="859.002" y="289.782" fill="#2D2D2D" font-size="17.188" textLength="35.399" font-family="DejaVu Sans">flow</text></g><!--link mc_g to mc_h--><g class="link" data-entity-1="ent0015" data-entity-2="ent0016" id="lnk19" data-source-line="30" data-link-type="dependency"><path d="M1143.516,217.937 C1122.094,232.063 1098.188,250.719 1081.25,272.266 C1065.313,292.563 1056.645,312.074 1049.63,333.543" style="stroke:#B5471F;stroke-width:3.125;" fill="none" id="mc_g-to-mc_h"/><polygon points="1047.203,340.969,1057.512,329.543,1049.63,333.543,1045.63,325.66,1047.203,340.969" fill="#B5471F" style="stroke:#B5471F;stroke-width:3.125;stroke-linejoin:miter;stroke-miterlimit:10;"/><text x="1082.813" y="289.782" fill="#2D2D2D" font-size="17.188" font-family="DejaVu Sans"> </text><text x="1088.276" y="289.782" fill="#2D2D2D" font-size="17.188" textLength="85.61" font-family="DejaVu Sans">broadcast</text></g><!--link mc_g to mc_i--><g class="link" data-entity-1="ent0015" data-entity-2="ent0017" id="lnk20" data-source-line="31" data-link-type="dependency"><path d="M1191.25,225.719 C1190.375,240.188 1189.5,257 1189.063,272.266 C1188.422,295 1189.014,312.688 1190.31,332.829" style="stroke:#B5471F;stroke-width:3.125;" fill="none" id="mc_g-to-mc_i"/><polygon points="1190.813,340.625,1196.146,326.19,1190.31,332.829,1183.672,326.993,1190.813,340.625" fill="#B5471F" style="stroke:#B5471F;stroke-width:3.125;stroke-linejoin:miter;stroke-miterlimit:10;"/><text x="1190.625" y="289.782" fill="#2D2D2D" font-size="17.188" font-family="DejaVu Sans"> </text><text x="1196.088" y="289.782" fill="#2D2D2D" font-size="17.188" textLength="85.61" font-family="DejaVu Sans">broadcast</text></g><!--link mc_g to mc_j--><g class="link" data-entity-1="ent0015" data-entity-2="ent0018" id="lnk21" data-source-line="32" data-link-type="dependency"><path d="M1241.219,225.422 C1257.484,239.047 1275.094,255.375 1289.063,272.266 C1306.359,293.172 1318.101,312.646 1329.054,333.724" style="stroke:#B5471F;stroke-width:3.125;" fill="none" id="mc_g-to-mc_j"/><polygon points="1332.656,340.656,1331.718,325.296,1329.054,333.724,1320.626,331.06,1332.656,340.656" fill="#B5471F" style="stroke:#B5471F;stroke-width:3.125;stroke-linejoin:miter;stroke-miterlimit:10;"/><text x="1306.25" y="289.782" fill="#2D2D2D" font-size="17.188" font-family="DejaVu Sans"> </text><text x="1311.713" y="289.782" fill="#2D2D2D" font-size="17.188" textLength="85.61" font-family="DejaVu Sans">broadcast</text></g><g class="legend" data-source-line="35"><rect x="1140.608" y="473.828" width="321.892" height="94.629" fill="#F7F7F2" style="stroke:#B8B8B0;stroke-width:1.563;" rx="4.688" ry="4.688"/><rect x="1148.421" y="484.766" width="112.465" height="18.188" fill="#1F3B73" style="stroke:none;"/><text x="1148.421" y="499.269" fill="#2D2D2D" font-size="15.625" font-family="DejaVu Sans"> </text><text x="1163.321" y="499.269" fill="#6E6E6E" font-size="15.625" textLength="87.631" font-family="DejaVu Sans">Call-Return</text><text x="1265.852" y="499.269" fill="#2D2D2D" font-size="15.625" textLength="140.747" font-family="DejaVu Sans">Request/response</text><rect x="1148.421" y="502.954" width="112.465" height="18.188" fill="#B7791F" style="stroke:none;"/><text x="1148.421" y="517.458" fill="#2D2D2D" font-size="15.625" font-family="DejaVu Sans"> </text><text x="1163.321" y="517.458" fill="#6E6E6E" font-size="15.625" textLength="68.481" font-family="DejaVu Sans">Message</text><text x="1265.852" y="517.458" fill="#2D2D2D" font-size="15.625" textLength="183.868" font-family="DejaVu Sans">Asynchronous, no reply</text><rect x="1148.421" y="521.143" width="112.465" height="18.188" fill="#C7BAE8" style="stroke:none;"/><text x="1148.421" y="535.646" fill="#2D2D2D" font-size="15.625" font-family="DejaVu Sans"> </text><text x="1163.321" y="535.646" fill="#6E6E6E" font-size="15.625" textLength="56.877" font-family="DejaVu Sans">Stream</text><text x="1265.852" y="535.646" fill="#2D2D2D" font-size="15.625" textLength="158.493" font-family="DejaVu Sans">Long-lived data flow</text><rect x="1148.421" y="539.331" width="112.465" height="18.188" fill="#B5471F" style="stroke:none;"/><text x="1148.421" y="553.835" fill="#2D2D2D" font-size="15.625" font-family="DejaVu Sans"> </text><text x="1163.321" y="553.835" fill="#6E6E6E" font-size="15.625" textLength="70.625" font-family="DejaVu Sans">Multicast</text><text x="1265.852" y="553.835" fill="#2D2D2D" font-size="15.625" textLength="170.433" font-family="DejaVu Sans">One-to-many delivery</text><line x1="1148.421" y1="484.766" x2="1454.688" y2="484.766" style="stroke:#2D2D2D;stroke-width:1.563;"/><line x1="1148.421" y1="502.954" x2="1454.688" y2="502.954" style="stroke:#2D2D2D;stroke-width:1.563;"/><line x1="1148.421" y1="521.143" x2="1454.688" y2="521.143" style="stroke:#2D2D2D;stroke-width:1.563;"/><line x1="1148.421" y1="539.331" x2="1454.688" y2="539.331" style="stroke:#2D2D2D;stroke-width:1.563;"/><line x1="1148.421" y1="557.52" x2="1454.688" y2="557.52" style="stroke:#2D2D2D;stroke-width:1.563;"/><line x1="1148.421" y1="484.766" x2="1148.421" y2="557.52" style="stroke:#2D2D2D;stroke-width:1.563;"/><line x1="1260.886" y1="484.766" x2="1260.886" y2="557.52" style="stroke:#2D2D2D;stroke-width:1.563;"/><line x1="1454.688" y1="484.766" x2="1454.688" y2="557.52" style="stroke:#2D2D2D;stroke-width:1.563;"/></g><?plantuml-src dLHTRvj047pdLsojg4_1j0zzYGYIIxzLgvMJjxH2ozqQNtBSqRiZ4QhpttiSngA9xKgra2oucTdPPHPx9rI31clWZO3NRrv5_U-5K4osd60-JvvSJcifL9LOrqcoIIDHkRQM_jwqpBK6PT8WkyEAOYwmyifnWCw5HqMH4quIf6NsdSZ4JiVzF-HQAM9E6xZk6h9fKcO_LAxhkbM2eHDQGOFEaL4MId8FHFw19zeesXM3MOvInYlo5jGCq4A-WjyHWF6wg2fVT1PABS8XCmL2clOQMNO0zNP4bLDKOCKtPtu0L3H6r6Ywyr9B_ZFE1l05pBpMhvQiWzd0A9ynEDeDZHpSSMoZbVNbeyT9JmlRAGPBijRV1akBvS6kyd28TS5ETVLkHF4fAh16ZmpRVjpxhWAuTxWMXk0bhBMfo3snUUKCOHt4hwuF-diV3gqhw9I_3oDgFKK5rkND6ITg2fHky7QP3S3U6zFA2TNgrW97Xx2M-k69nMKhdO-ITQ74CZ_eycCuh5bHdNBvQKHjJg4-ZoXn2lLbHDrEKS71-4Q4kaSf-FwDXC9zrwNHoFkMGjB-nH7_mRbznl4ZbLIHuc14jN5UOvl-5UuCKgQbDXV3KqMjyv-4362odW1f4a3P5bR3iYJx1TXED7TXFAgvMuofNjYOZT7AX-4SbFOJRsGtgeuHEgeu97ag-5MhAfRYdlWaMrEJkxaTDpacRwhwJL7_yQjHTS2fbpUzoNwmmtp_0000?></g></svg>