<svg xmlns="http://www.w3.org/2000/svg" xmlns:xlink="http://www.w3.org/1999/xlink" version="1.1" data-diagram-type="DESCRIPTION" style="width:3225px;height:912px;" width="3225px" height="912.5px" viewBox="0 0 3225 912" zoomAndPan="magnify" preserveAspectRatio="none" contentStyleType="text/css"><?plantuml 1.2026.7?><defs/><g font-family="sans-serif" lengthAdjust="spacing"><g class="title" data-source-line="2"><text x="1303.906" y="38.831" fill="#1F3B73" font-size="25" textLength="606.25" font-weight="700" font-family="DejaVu Sans">Concurrency Control &amp; Consistency Models</text><text x="1297.766" y="67.932" fill="#1F3B73" font-size="25" textLength="618.53" font-weight="700" font-family="DejaVu Sans">Managing concurrent access to shared data</text></g><!--cluster concurrency--><g class="cluster" data-qualified-name="concurrency" id="ent0001" data-source-line="6"><rect x="10.938" y="101.953" width="1298.438" height="698.438" fill="#F7F7F2" style="stroke:#B8B8B0;stroke-width:1.563;" rx="4.688" ry="4.688"/><text x="493.814" y="122.482" fill="#2D2D2D" font-size="18.75" textLength="332.684" font-weight="700" font-family="DejaVu Sans">Concurrency Control Strategies</text></g><!--cluster pessimistic--><g class="cluster" data-qualified-name="concurrency.pessimistic" id="ent0002" data-source-line="7"><rect x="729.688" y="164.453" width="542.188" height="285.938" fill="#F1C2B1" style="stroke:#B8B8B0;stroke-width:1.563;" rx="4.688" ry="4.688"/><text x="897.295" y="184.982" fill="#2D2D2D" font-size="18.75" textLength="206.973" font-weight="700" font-family="DejaVu Sans">Pessimistic Locking</text></g><!--cluster optimistic--><g class="cluster" data-qualified-name="concurrency.optimistic" id="ent0006" data-source-line="13"><rect x="48.438" y="164.453" width="643.75" height="285.938" fill="#BAE8C4" style="stroke:#B8B8B0;stroke-width:1.563;" rx="4.688" ry="4.688"/><text x="272.054" y="184.982" fill="#2D2D2D" font-size="18.75" textLength="196.518" font-weight="700" font-family="DejaVu Sans">Optimistic Locking</text></g><!--cluster mvcc--><g class="cluster" data-qualified-name="concurrency.mvcc" id="ent0010" data-source-line="19"><rect x="740.625" y="487.891" width="501.563" height="275" fill="#B7C8EC" style="stroke:#B8B8B0;stroke-width:1.563;" rx="4.688" ry="4.688"/><text x="961.061" y="508.42" fill="#2D2D2D" font-size="18.75" textLength="60.69" font-weight="700" font-family="DejaVu Sans">MVCC</text></g><!--cluster consistency--><g class="cluster" data-qualified-name="consistency" id="ent0014" data-source-line="26"><rect x="1346.875" y="164.453" width="820.313" height="128.125" fill="#F7F7F2" style="stroke:#B8B8B0;stroke-width:1.563;" rx="4.688" ry="4.688"/><text x="1652.583" y="184.982" fill="#2D2D2D" font-size="18.75" textLength="208.896" font-weight="700" font-family="DejaVu Sans">Consistency Models</text></g><!--cluster cap--><g class="cluster" data-qualified-name="cap" id="ent0018" data-source-line="32"><rect x="2331.25" y="151.953" width="871.875" height="153.125" fill="#C7BAE8" style="stroke:#B8B8B0;stroke-width:1.563;" rx="4.688" ry="4.688"/><text x="2638.551" y="172.482" fill="#2D2D2D" font-size="18.75" textLength="257.272" font-weight="700" font-family="DejaVu Sans">CAP Theorem Trade-offs</text></g><!--entity lock1--><g class="entity" data-qualified-name="concurrency.pessimistic.lock1" id="ent0003" data-source-line="8"><rect x="755.469" y="214.453" width="210.19" height="53.076" fill="#F9E2DA" style="stroke:#B8B8B0;stroke-width:0.781;" rx="4.688" ry="4.688"/><text x="771.094" y="247.482" fill="#2D2D2D" font-size="18.75" textLength="43.085" font-family="DejaVu Sans">Lock</text><text x="814.178" y="247.482" fill="#2D2D2D" font-size="18.75" font-family="DejaVu Sans"> </text><text x="820.139" y="247.482" fill="#2D2D2D" font-size="18.75" textLength="60.754" font-family="DejaVu Sans">before</text><text x="880.893" y="247.482" fill="#2D2D2D" font-size="18.75" font-family="DejaVu Sans"> </text><text x="886.853" y="247.482" fill="#2D2D2D" font-size="18.75" textLength="63.181" font-family="DejaVu Sans">access</text></g><!--entity lock2--><g class="entity" data-qualified-name="concurrency.pessimistic.lock2" id="ent0004" data-source-line="9"><rect x="1021.875" y="214.453" width="224.362" height="53.076" fill="#F9E2DA" style="stroke:#B8B8B0;stroke-width:0.781;" rx="4.688" ry="4.688"/><text x="1037.5" y="247.482" fill="#2D2D2D" font-size="18.75" textLength="50.711" font-family="DejaVu Sans">Block</text><text x="1088.211" y="247.482" fill="#2D2D2D" font-size="18.75" font-family="DejaVu Sans"> </text><text x="1094.171" y="247.482" fill="#2D2D2D" font-size="18.75" textLength="97.339" font-family="DejaVu Sans">conflicting</text><text x="1191.51" y="247.482" fill="#2D2D2D" font-size="18.75" font-family="DejaVu Sans"> </text><text x="1197.47" y="247.482" fill="#2D2D2D" font-size="18.75" textLength="33.142" font-family="DejaVu Sans">ops</text></g><!--entity lock3--><g class="entity" data-qualified-name="concurrency.pessimistic.lock3" id="ent0005" data-source-line="10"><rect x="760.156" y="372.266" width="201.19" height="53.076" fill="#F9E2DA" style="stroke:#B8B8B0;stroke-width:0.781;" rx="4.688" ry="4.688"/><text x="775.781" y="405.295" fill="#2D2D2D" font-size="18.75" textLength="87.213" font-family="DejaVu Sans">Deadlock</text><text x="862.994" y="405.295" fill="#2D2D2D" font-size="18.75" font-family="DejaVu Sans"> </text><text x="868.954" y="405.295" fill="#2D2D2D" font-size="18.75" textLength="76.767" font-family="DejaVu Sans">possible</text></g><!--entity opt1--><g class="entity" data-qualified-name="concurrency.optimistic.opt1" id="ent0007" data-source-line="14"><rect x="74.219" y="214.453" width="258.447" height="53.076" fill="#DEF4E3" style="stroke:#B8B8B0;stroke-width:0.781;" rx="4.688" ry="4.688"/><text x="89.844" y="247.482" fill="#2D2D2D" font-size="18.75" textLength="50.052" font-family="DejaVu Sans">Allow</text><text x="139.896" y="247.482" fill="#2D2D2D" font-size="18.75" font-family="DejaVu Sans"> </text><text x="145.856" y="247.482" fill="#2D2D2D" font-size="18.75" textLength="102.045" font-family="DejaVu Sans">concurrent</text><text x="247.9" y="247.482" fill="#2D2D2D" font-size="18.75" font-family="DejaVu Sans"> </text><text x="253.86" y="247.482" fill="#2D2D2D" font-size="18.75" textLength="63.181" font-family="DejaVu Sans">access</text></g><!--entity opt2--><g class="entity" data-qualified-name="concurrency.optimistic.opt2" id="ent0008" data-source-line="15"><rect x="386.719" y="214.453" width="279.477" height="53.076" fill="#DEF4E3" style="stroke:#B8B8B0;stroke-width:0.781;" rx="4.688" ry="4.688"/><text x="402.344" y="247.482" fill="#2D2D2D" font-size="18.75" textLength="62.521" font-family="DejaVu Sans">Detect</text><text x="464.865" y="247.482" fill="#2D2D2D" font-size="18.75" font-family="DejaVu Sans"> </text><text x="470.825" y="247.482" fill="#2D2D2D" font-size="18.75" textLength="78.113" font-family="DejaVu Sans">conflicts</text><text x="548.938" y="247.482" fill="#2D2D2D" font-size="18.75" font-family="DejaVu Sans"> </text><text x="554.898" y="247.482" fill="#2D2D2D" font-size="18.75" textLength="18.842" font-family="DejaVu Sans">at</text><text x="573.74" y="247.482" fill="#2D2D2D" font-size="18.75" font-family="DejaVu Sans"> </text><text x="579.7" y="247.482" fill="#2D2D2D" font-size="18.75" textLength="70.871" font-family="DejaVu Sans">commit</text></g><!--entity opt3--><g class="entity" data-qualified-name="concurrency.optimistic.opt3" id="ent0009" data-source-line="16"><rect x="110.156" y="372.266" width="185.59" height="53.076" fill="#DEF4E3" style="stroke:#B8B8B0;stroke-width:0.781;" rx="4.688" ry="4.688"/><text x="125.781" y="405.295" fill="#2D2D2D" font-size="18.75" textLength="50.72" font-family="DejaVu Sans">Retry</text><text x="176.501" y="405.295" fill="#2D2D2D" font-size="18.75" font-family="DejaVu Sans"> </text><text x="182.462" y="405.295" fill="#2D2D2D" font-size="18.75" textLength="23.355" font-family="DejaVu Sans">on</text><text x="205.817" y="405.295" fill="#2D2D2D" font-size="18.75" font-family="DejaVu Sans"> </text><text x="211.777" y="405.295" fill="#2D2D2D" font-size="18.75" textLength="68.344" font-family="DejaVu Sans">conflict</text></g><!--entity mv1--><g class="entity" data-qualified-name="concurrency.mvcc.mv1" id="ent0011" data-source-line="20"><rect x="765.625" y="537.891" width="190.131" height="53.076" fill="#DDE5F6" style="stroke:#B8B8B0;stroke-width:0.781;" rx="4.688" ry="4.688"/><text x="781.25" y="570.92" fill="#2D2D2D" font-size="18.75" textLength="74.478" font-family="DejaVu Sans">Multiple</text><text x="855.728" y="570.92" fill="#2D2D2D" font-size="18.75" font-family="DejaVu Sans"> </text><text x="861.688" y="570.92" fill="#2D2D2D" font-size="18.75" textLength="78.442" font-family="DejaVu Sans">versions</text></g><!--entity mv2--><g class="entity" data-qualified-name="concurrency.mvcc.mv2" id="ent0012" data-source-line="21"><rect x="1011.719" y="537.891" width="203.928" height="53.076" fill="#DDE5F6" style="stroke:#B8B8B0;stroke-width:0.781;" rx="4.688" ry="4.688"/><text x="1027.344" y="570.92" fill="#2D2D2D" font-size="18.75" textLength="87.653" font-family="DejaVu Sans">Snapshot</text><text x="1114.996" y="570.92" fill="#2D2D2D" font-size="18.75" font-family="DejaVu Sans"> </text><text x="1120.956" y="570.92" fill="#2D2D2D" font-size="18.75" textLength="79.065" font-family="DejaVu Sans">isolation</text></g><!--entity mv3--><g class="entity" data-qualified-name="concurrency.mvcc.mv3" id="ent0013" data-source-line="22"><rect x="765.625" y="684.766" width="190.048" height="53.076" fill="#DDE5F6" style="stroke:#B8B8B0;stroke-width:0.781;" rx="4.688" ry="4.688"/><text x="781.25" y="717.795" fill="#2D2D2D" font-size="18.75" textLength="25.497" font-family="DejaVu Sans">No</text><text x="806.747" y="717.795" fill="#2D2D2D" font-size="18.75" font-family="DejaVu Sans"> </text><text x="812.708" y="717.795" fill="#2D2D2D" font-size="18.75" textLength="42.636" font-family="DejaVu Sans">read</text><text x="855.344" y="717.795" fill="#2D2D2D" font-size="18.75" font-family="DejaVu Sans"> </text><text x="861.304" y="717.795" fill="#2D2D2D" font-size="18.75" textLength="78.745" font-family="DejaVu Sans">blocking</text></g><!--entity strong--><g class="entity" data-qualified-name="consistency.strong" id="ent0015" data-source-line="27"><rect x="1371.875" y="214.453" width="212.799" height="53.076" fill="#DEF4E3" style="stroke:#B8B8B0;stroke-width:0.781;" rx="4.688" ry="4.688"/><text x="1387.5" y="247.482" fill="#2D2D2D" font-size="18.75" textLength="62.219" font-family="DejaVu Sans">Strong</text><text x="1449.719" y="247.482" fill="#2D2D2D" font-size="18.75" font-family="DejaVu Sans"> </text><text x="1455.679" y="247.482" fill="#2D2D2D" font-size="18.75" textLength="113.37" font-family="DejaVu Sans">Consistency</text></g><!--entity eventual--><g class="entity" data-qualified-name="consistency.eventual" id="ent0016" data-source-line="28"><rect x="1639.844" y="214.453" width="232.877" height="53.076" fill="#F9ECDA" style="stroke:#B8B8B0;stroke-width:0.781;" rx="4.688" ry="4.688"/><text x="1655.469" y="247.482" fill="#2D2D2D" font-size="18.75" textLength="82.297" font-family="DejaVu Sans">Eventual</text><text x="1737.766" y="247.482" fill="#2D2D2D" font-size="18.75" font-family="DejaVu Sans"> </text><text x="1743.726" y="247.482" fill="#2D2D2D" font-size="18.75" textLength="113.37" font-family="DejaVu Sans">Consistency</text></g><!--entity causal--><g class="entity" data-qualified-name="consistency.causal" id="ent0017" data-source-line="29"><rect x="1927.344" y="214.453" width="213.513" height="53.076" fill="#DDE5F6" style="stroke:#B8B8B0;stroke-width:0.781;" rx="4.688" ry="4.688"/><text x="1942.969" y="247.482" fill="#2D2D2D" font-size="18.75" textLength="62.933" font-family="DejaVu Sans">Causal</text><text x="2005.902" y="247.482" fill="#2D2D2D" font-size="18.75" font-family="DejaVu Sans"> </text><text x="2011.862" y="247.482" fill="#2D2D2D" font-size="18.75" textLength="113.37" font-family="DejaVu Sans">Consistency</text></g><!--entity cp--><g class="entity" data-qualified-name="cap.cp" id="ent0019" data-source-line="33"><rect x="2803.125" y="214.453" width="362.936" height="53.076" fill="#E4DEF4" style="stroke:#B8B8B0;stroke-width:0.781;" rx="4.688" ry="4.688"/><text x="2818.75" y="247.482" fill="#2D2D2D" font-size="18.75" textLength="24.399" font-family="DejaVu Sans">CP</text><text x="2843.149" y="247.482" fill="#2D2D2D" font-size="18.75" font-family="DejaVu Sans"> </text><text x="2849.109" y="247.482" fill="#2D2D2D" font-size="18.75" textLength="106.631" font-family="DejaVu Sans">(Consistent</text><text x="2955.74" y="247.482" fill="#2D2D2D" font-size="18.75" font-family="DejaVu Sans"> </text><text x="2961.7" y="247.482" fill="#2D2D2D" font-size="18.75" font-family="DejaVu Sans">+</text><text x="2977.411" y="247.482" fill="#2D2D2D" font-size="18.75" font-family="DejaVu Sans"> </text><text x="2983.371" y="247.482" fill="#2D2D2D" font-size="18.75" textLength="167.065" font-family="DejaVu Sans">Partition-tolerant)</text></g><!--entity ap--><g class="entity" data-qualified-name="cap.ap" id="ent0020" data-source-line="34"><rect x="2398.438" y="214.453" width="349.323" height="53.076" fill="#E4DEF4" style="stroke:#B8B8B0;stroke-width:0.781;" rx="4.688" ry="4.688"/><text x="2414.063" y="247.482" fill="#2D2D2D" font-size="18.75" textLength="24.133" font-family="DejaVu Sans">AP</text><text x="2438.196" y="247.482" fill="#2D2D2D" font-size="18.75" font-family="DejaVu Sans"> </text><text x="2444.156" y="247.482" fill="#2D2D2D" font-size="18.75" textLength="93.283" font-family="DejaVu Sans">(Available</text><text x="2537.439" y="247.482" fill="#2D2D2D" font-size="18.75" font-family="DejaVu Sans"> </text><text x="2543.399" y="247.482" fill="#2D2D2D" font-size="18.75" font-family="DejaVu Sans">+</text><text x="2559.109" y="247.482" fill="#2D2D2D" font-size="18.75" font-family="DejaVu Sans"> </text><text x="2565.07" y="247.482" fill="#2D2D2D" font-size="18.75" textLength="167.065" font-family="DejaVu Sans">Partition-tolerant)</text></g><g class="entity" data-qualified-name="GMN21" id="ent0022" data-source-line="38"><path d="M1352.344,375.391 L1352.344,421.655 A4.688,4.688 0 0 0 1357.031,426.343 L1571.403,426.343 A4.688,4.688 0 0 0 1576.09,421.655 L1576.09,386.328 L1560.465,370.703 L1472.734,370.703 L1475.797,268.125 L1460.234,370.703 L1357.031,370.703 A4.688,4.688 0 0 0 1352.344,375.391" style="stroke:#B8B8B0;stroke-width:0.781;" fill="#F7F7F2"/><path d="M1560.465,370.703 L1560.465,383.984 A2.344,2.344 0 0 0 1562.809,386.328 L1576.09,386.328 L1560.465,370.703" style="stroke:#B8B8B0;stroke-width:0.781;" fill="#F7F7F2"/><text x="1361.719" y="394.469" fill="#2D2D2D" font-size="17.188" textLength="52.914" font-family="DejaVu Sans">Reads</text><text x="1414.632" y="394.469" fill="#2D2D2D" font-size="17.188" font-family="DejaVu Sans"> </text><text x="1420.096" y="394.469" fill="#2D2D2D" font-size="17.188" textLength="30.103" font-family="DejaVu Sans">see</text><text x="1450.199" y="394.469" fill="#2D2D2D" font-size="17.188" font-family="DejaVu Sans"> </text><text x="1455.663" y="394.469" fill="#2D2D2D" font-size="17.188" textLength="48.315" font-family="DejaVu Sans">latest</text><text x="1503.977" y="394.469" fill="#2D2D2D" font-size="17.188" font-family="DejaVu Sans"> </text><text x="1509.441" y="394.469" fill="#2D2D2D" font-size="17.188" textLength="43.212" font-family="DejaVu Sans">write</text><text x="1394.315" y="414.477" fill="#2D2D2D" font-size="17.188" textLength="57.143" font-family="DejaVu Sans">Higher</text><text x="1451.458" y="414.477" fill="#2D2D2D" font-size="17.188" font-family="DejaVu Sans"> </text><text x="1456.921" y="414.477" fill="#2D2D2D" font-size="17.188" textLength="63.136" font-family="DejaVu Sans">latency</text></g><g class="entity" data-qualified-name="GMN24" id="ent0025" data-source-line="43"><path d="M1631.25,375.391 L1631.25,421.655 A4.688,4.688 0 0 0 1635.938,426.343 L1875.956,426.343 A4.688,4.688 0 0 0 1880.643,421.655 L1880.643,386.328 L1865.018,370.703 L1762.5,370.703 L1756.25,268.125 L1750,370.703 L1635.938,370.703 A4.688,4.688 0 0 0 1631.25,375.391" style="stroke:#B8B8B0;stroke-width:0.781;" fill="#F7F7F2"/><path d="M1865.018,370.703 L1865.018,383.984 A2.344,2.344 0 0 0 1867.362,386.328 L1880.643,386.328 L1865.018,370.703" style="stroke:#B8B8B0;stroke-width:0.781;" fill="#F7F7F2"/><text x="1640.625" y="394.469" fill="#2D2D2D" font-size="17.188" textLength="94.078" font-family="DejaVu Sans">Temporary</text><text x="1734.703" y="394.469" fill="#2D2D2D" font-size="17.188" font-family="DejaVu Sans"> </text><text x="1740.166" y="394.469" fill="#2D2D2D" font-size="17.188" textLength="117.039" font-family="DejaVu Sans">inconsistency</text><text x="1670.879" y="414.477" fill="#2D2D2D" font-size="17.188" textLength="57.143" font-family="DejaVu Sans">Higher</text><text x="1728.023" y="414.477" fill="#2D2D2D" font-size="17.188" font-family="DejaVu Sans"> </text><text x="1733.486" y="414.477" fill="#2D2D2D" font-size="17.188" textLength="93.465" font-family="DejaVu Sans">availability</text></g><g class="entity" data-qualified-name="GMN27" id="ent0028" data-source-line="48"><path d="M1935.938,375.391 L1935.938,421.655 A4.688,4.688 0 0 0 1940.625,426.343 L2159.872,426.343 A4.688,4.688 0 0 0 2164.56,421.655 L2164.56,386.328 L2148.935,370.703 L2053.563,370.703 L2036.953,268.125 L2041.063,370.703 L1940.625,370.703 A4.688,4.688 0 0 0 1935.938,375.391" style="stroke:#B8B8B0;stroke-width:0.781;" fill="#F7F7F2"/><path d="M2148.935,370.703 L2148.935,383.984 A2.344,2.344 0 0 0 2151.279,386.328 L2164.56,386.328 L2148.935,370.703" style="stroke:#B8B8B0;stroke-width:0.781;" fill="#F7F7F2"/><text x="1945.313" y="394.469" fill="#2D2D2D" font-size="17.188" textLength="84.301" font-family="DejaVu Sans">Preserves</text><text x="2029.613" y="394.469" fill="#2D2D2D" font-size="17.188" font-family="DejaVu Sans"> </text><text x="2035.077" y="394.469" fill="#2D2D2D" font-size="17.188" textLength="106.046" font-family="DejaVu Sans">cause-effect</text><text x="1960.352" y="414.477" fill="#2D2D2D" font-size="17.188" textLength="79.459" font-family="DejaVu Sans">Balanced</text><text x="2039.81" y="414.477" fill="#2D2D2D" font-size="17.188" font-family="DejaVu Sans"> </text><text x="2045.274" y="414.477" fill="#2D2D2D" font-size="17.188" textLength="80.81" font-family="DejaVu Sans">approach</text></g><g class="entity" data-qualified-name="GMN30" id="ent0031" data-source-line="53"><path d="M2218.75,366.016 L2218.75,432.288 A4.688,4.688 0 0 0 2223.438,436.975 L2464.111,436.975 A4.688,4.688 0 0 0 2468.798,432.288 L2468.798,376.953 L2453.173,361.328 L2223.438,361.328 A4.688,4.688 0 0 0 2218.75,366.016" style="stroke:#B8B8B0;stroke-width:0.781;" fill="#F7F7F2"/><path d="M2453.173,361.328 L2453.173,374.609 A2.344,2.344 0 0 0 2455.517,376.953 L2468.798,376.953 L2453.173,361.328" style="stroke:#B8B8B0;stroke-width:1.563;" fill="#F7F7F2"/><text x="2228.125" y="385.094" fill="#2D2D2D" font-size="17.188" textLength="57.773" font-family="DejaVu Sans">During</text><text x="2285.898" y="385.094" fill="#2D2D2D" font-size="17.188" font-family="DejaVu Sans"> </text><text x="2291.361" y="385.094" fill="#2D2D2D" font-size="17.188" textLength="69.799" font-family="DejaVu Sans">network</text><text x="2361.16" y="385.094" fill="#2D2D2D" font-size="17.188" font-family="DejaVu Sans"> </text><text x="2366.624" y="385.094" fill="#2D2D2D" font-size="17.188" textLength="78.737" font-family="DejaVu Sans">partition:</text><text x="2233.677" y="405.102" fill="#2D2D2D" font-size="17.188" textLength="28.156" font-family="DejaVu Sans">CP:</text><text x="2261.833" y="405.102" fill="#2D2D2D" font-size="17.188" font-family="DejaVu Sans"> </text><text x="2267.296" y="405.102" fill="#2D2D2D" font-size="17.188" textLength="73.584" font-family="DejaVu Sans">Sacrifice</text><text x="2340.88" y="405.102" fill="#2D2D2D" font-size="17.188" font-family="DejaVu Sans"> </text><text x="2346.344" y="405.102" fill="#2D2D2D" font-size="17.188" textLength="93.465" font-family="DejaVu Sans">availability</text><text x="2229.845" y="425.109" fill="#2D2D2D" font-size="17.188" textLength="27.913" font-family="DejaVu Sans">AP:</text><text x="2257.758" y="425.109" fill="#2D2D2D" font-size="17.188" font-family="DejaVu Sans"> </text><text x="2263.222" y="425.109" fill="#2D2D2D" font-size="17.188" textLength="73.584" font-family="DejaVu Sans">Sacrifice</text><text x="2336.806" y="425.109" fill="#2D2D2D" font-size="17.188" font-family="DejaVu Sans"> </text><text x="2342.269" y="425.109" fill="#2D2D2D" font-size="17.188" textLength="101.371" font-family="DejaVu Sans">consistency</text></g><!--link cap to GMN30--><g class="link" data-entity-1="ent0018" data-entity-2="ent0031" id="lnk32" data-source-line="53" data-link-type="association"><path d="M2343.75,305.246 C2343.75,305.445 2343.75,305.644 2343.75,305.843 C2343.75,306.242 2343.75,306.64 2343.75,307.04 C2343.75,307.838 2343.75,308.639 2343.75,309.44 C2343.75,311.044 2343.75,312.654 2343.75,314.268 C2343.75,317.494 2343.75,320.734 2343.75,323.964 C2343.75,336.886 2343.75,349.656 2343.75,360.828" style="stroke:#2D2D2D;stroke-width:1.563;stroke-dasharray:10.938,10.938;" fill="none" id="cap-GMN30"/></g><g class="legend" data-source-line="58"><rect x="1397.231" y="831.641" width="419.601" height="52.002" fill="#F7F7F2" style="stroke:#B8B8B0;stroke-width:1.563;" rx="4.688" ry="4.688"/><text x="1405.043" y="853.957" fill="#2D2D2D" font-size="15.625" textLength="403.976" font-family="DejaVu Sans">Choose concurrency control and consistency model</text><text x="1412.89" y="872.145" fill="#2D2D2D" font-size="15.625" textLength="388.283" font-family="DejaVu Sans">based on application requirements and trade-offs</text></g><?plantuml-src XLLDRzim3BtxLt15CMmOqgmjTkajJGVii6n1M-mqO61asX4gIvf4foY6_lTH_aYSn4YD8B0elIU-9v6EJzfw35X1xZLSVlcSfOSr6uAviweEWQnwIUySd87twItgo4rquN8oyRTTeCLIsn9K3s50fIX6O0TnZO5oo94nozvfgqoT4rnSJ0z-x9mHacda5qDnwWrQhYiZur0hhWEQgNALTrRe9xd6KjAUD8iljApBia2AqPQI-jbOxWySaAdK5Cy0uovNMV8l0ta6-ANahYlHgHLyTqfSAXkG7yJFSoB_HziD6frt50Sq2GehAboWpf26nKZu4iuBRKoF7qFVfdKfpy9enSbVvtS4LsyJt17c3OTtalRAq1PyFG9-RVuFdVZfUSm8jmktFhYdSGjcnhZduulHa_GskATn0Io3hGKHC0sgIdEFlpg9loSEB-3ibg67NU_3ngKlVitd3Q3Qg5wc3xh2y3AkTL4RrbxUDXIYbaBfqBt83Zm6VR3euzenwEWCie0xxDNRs1zEHfZ3oWmEgDfSZo1VizV3EZcevhusjk6Zsf0wSd8N1z064zlmdgy3rDUD77wDvWX7_KIBL5WdzOVmETPn1ApQyBxG0ucp9JokIKgmWiU0EKrSKNGoqNV7YeQFXSwNy66x8SCdM6AGrYZPJTWP2jAVFhOylij0Q0v9PFSFimrgWr9_9pXmo24Ah6E2bMDs5RYYSrV8x-ManMmYa6j2aU4vQ2QP-ARBDOKcAkvaP7D874TClTy2UIHffo5TP-dAEsTtPDWchetc4upj8GXg6IXIs51xBZIXeX0ZPE8MfPah-GYWzy6XMfyYymAugqFgTvRusGNfNxrfDp8tNzx00wgW2wreFqM0sTxaKDHkHqDb6hHx9iArSv7sFWYg-sQWh1iMGvLgH20hZA966ei8ahxI5AoS-jzQopKJVsE3vErrIxktssR_0G00?></g></svg>