<svg xmlns="http://www.w3.org/2000/svg" xmlns:xlink="http://www.w3.org/1999/xlink" version="1.1" data-diagram-type="DESCRIPTION" style="width:2054px;height:756px;" width="2054.688px" height="756.25px" viewBox="0 0 2054 756" zoomAndPan="magnify" preserveAspectRatio="none" contentStyleType="text/css"><?plantuml 1.2026.7?><defs/><g font-family="sans-serif" lengthAdjust="spacing"><g class="title" data-source-line="2"><text x="778.942" y="38.831" fill="#1F3B73" font-size="25" textLength="486.487" font-weight="700" font-family="DejaVu Sans">Repository vs Blackboard Variants</text><text x="850.17" y="67.932" fill="#1F3B73" font-size="25" textLength="344.031" font-weight="700" font-family="DejaVu Sans">Control flow comparison</text></g><!--cluster repoModel--><g class="cluster" data-qualified-name="repoModel" id="ent0001" data-source-line="6"><rect x="10.938" y="112.891" width="710.938" height="387.5" fill="#B7C8EC" style="stroke:#B8B8B0;stroke-width:1.563;" rx="4.688" ry="4.688"/><text x="161.937" y="133.42" fill="#2D2D2D" font-size="18.75" textLength="408.939" font-weight="700" font-family="DejaVu Sans">Repository Model (Passive Data Store)</text></g><!--cluster bbModel--><g class="cluster" data-qualified-name="bbModel" id="ent0010" data-source-line="18"><rect x="1146.875" y="101.953" width="556.25" height="632.813" fill="#BAE8C4" style="stroke:#B8B8B0;stroke-width:1.563;" rx="4.688" ry="4.688"/><text x="1225.484" y="122.482" fill="#2D2D2D" font-size="18.75" textLength="399.033" font-weight="700" font-family="DejaVu Sans">Blackboard Model (Active Data Store)</text></g><!--entity accA1--><g class="entity" data-qualified-name="repoModel.accA1" id="ent0002" data-source-line="7"><rect x="489.063" y="175.391" width="164.984" height="68.701" fill="#DDE5F6" style="stroke:#1F3B73;stroke-width:0.781;" rx="4.688" ry="4.688"/><rect x="622.797" y="183.203" width="23.438" height="15.625" fill="#DDE5F6" style="stroke:#1F3B73;stroke-width:0.781;"/><rect x="619.672" y="186.328" width="6.25" height="3.125" fill="#DDE5F6" style="stroke:#1F3B73;stroke-width:0.781;"/><rect x="619.672" y="192.578" width="6.25" height="3.125" fill="#DDE5F6" style="stroke:#1F3B73;stroke-width:0.781;"/><text x="512.5" y="224.045" fill="#2D2D2D" font-size="18.75" textLength="83.698" font-family="DejaVu Sans">Accessor</text><text x="596.198" y="224.045" fill="#2D2D2D" font-size="18.75" font-family="DejaVu Sans"> </text><text x="602.158" y="224.045" fill="#2D2D2D" font-size="18.75" font-family="DejaVu Sans">A</text></g><!--entity accB1--><g class="entity" data-qualified-name="repoModel.accB1" id="ent0003" data-source-line="8"><rect x="268.75" y="175.391" width="165.021" height="68.701" fill="#DDE5F6" style="stroke:#1F3B73;stroke-width:0.781;" rx="4.688" ry="4.688"/><rect x="402.521" y="183.203" width="23.438" height="15.625" fill="#DDE5F6" style="stroke:#1F3B73;stroke-width:0.781;"/><rect x="399.396" y="186.328" width="6.25" height="3.125" fill="#DDE5F6" style="stroke:#1F3B73;stroke-width:0.781;"/><rect x="399.396" y="192.578" width="6.25" height="3.125" fill="#DDE5F6" style="stroke:#1F3B73;stroke-width:0.781;"/><text x="292.188" y="224.045" fill="#2D2D2D" font-size="18.75" textLength="83.698" font-family="DejaVu Sans">Accessor</text><text x="375.885" y="224.045" fill="#2D2D2D" font-size="18.75" font-family="DejaVu Sans"> </text><text x="381.845" y="224.045" fill="#2D2D2D" font-size="18.75" font-family="DejaVu Sans">B</text></g><!--entity accC1--><g class="entity" data-qualified-name="repoModel.accC1" id="ent0004" data-source-line="9"><rect x="48.438" y="175.391" width="165.25" height="68.701" fill="#DDE5F6" style="stroke:#1F3B73;stroke-width:0.781;" rx="4.688" ry="4.688"/><rect x="182.437" y="183.203" width="23.438" height="15.625" fill="#DDE5F6" style="stroke:#1F3B73;stroke-width:0.781;"/><rect x="179.312" y="186.328" width="6.25" height="3.125" fill="#DDE5F6" style="stroke:#1F3B73;stroke-width:0.781;"/><rect x="179.312" y="192.578" width="6.25" height="3.125" fill="#DDE5F6" style="stroke:#1F3B73;stroke-width:0.781;"/><text x="71.875" y="224.045" fill="#2D2D2D" font-size="18.75" textLength="83.698" font-family="DejaVu Sans">Accessor</text><text x="155.573" y="224.045" fill="#2D2D2D" font-size="18.75" font-family="DejaVu Sans"> </text><text x="161.533" y="224.045" fill="#2D2D2D" font-size="18.75" font-family="DejaVu Sans">C</text></g><!--entity repo1--><g class="entity" data-qualified-name="repoModel.repo1" id="ent0005" data-source-line="10"><path d="M267.188,389.453 C267.188,373.828 333.084,373.828 333.084,373.828 C333.084,373.828 398.981,373.828 398.981,389.453 L398.981,447.168 C398.981,462.793 333.084,462.793 333.084,462.793 C333.084,462.793 267.188,462.793 267.188,447.168 L267.188,389.453" style="stroke:#4A6FA5;stroke-width:0.781;" fill="#F9ECDA"/><path d="M267.188,389.453 C267.188,405.078 333.084,405.078 333.084,405.078 C333.084,405.078 398.981,405.078 398.981,389.453" style="stroke:#4A6FA5;stroke-width:0.781;" fill="none"/><text x="282.813" y="428.732" fill="#2D2D2D" font-size="18.75" textLength="100.543" font-family="DejaVu Sans">Repository</text><text x="290.681" y="450.558" fill="#2D2D2D" font-size="18.75" textLength="84.805" font-family="DejaVu Sans">(Passive)</text></g><!--entity ksA--><g class="entity" data-qualified-name="bbModel.ksA" id="ent0011" data-source-line="19"><rect x="1243.75" y="164.453" width="165.57" height="90.527" fill="#DEF4E3" style="stroke:#1F3B73;stroke-width:0.781;" rx="4.688" ry="4.688"/><rect x="1378.07" y="172.266" width="23.438" height="15.625" fill="#DEF4E3" style="stroke:#1F3B73;stroke-width:0.781;"/><rect x="1374.945" y="175.391" width="6.25" height="3.125" fill="#DEF4E3" style="stroke:#1F3B73;stroke-width:0.781;"/><rect x="1374.945" y="181.641" width="6.25" height="3.125" fill="#DEF4E3" style="stroke:#1F3B73;stroke-width:0.781;"/><text x="1267.188" y="213.107" fill="#2D2D2D" font-size="18.75" textLength="103.07" font-family="DejaVu Sans">Knowledge</text><text x="1276.924" y="234.933" fill="#2D2D2D" font-size="18.75" textLength="64.81" font-family="DejaVu Sans">Source</text><text x="1341.734" y="234.933" fill="#2D2D2D" font-size="18.75" font-family="DejaVu Sans"> </text><text x="1347.694" y="234.933" fill="#2D2D2D" font-size="18.75" font-family="DejaVu Sans">A</text></g><!--entity ksB--><g class="entity" data-qualified-name="bbModel.ksB" id="ent0012" data-source-line="20"><rect x="1220.313" y="606.641" width="165.57" height="90.527" fill="#DEF4E3" style="stroke:#1F3B73;stroke-width:0.781;" rx="4.688" ry="4.688"/><rect x="1354.633" y="614.453" width="23.438" height="15.625" fill="#DEF4E3" style="stroke:#1F3B73;stroke-width:0.781;"/><rect x="1351.508" y="617.578" width="6.25" height="3.125" fill="#DEF4E3" style="stroke:#1F3B73;stroke-width:0.781;"/><rect x="1351.508" y="623.828" width="6.25" height="3.125" fill="#DEF4E3" style="stroke:#1F3B73;stroke-width:0.781;"/><text x="1243.75" y="655.295" fill="#2D2D2D" font-size="18.75" textLength="103.07" font-family="DejaVu Sans">Knowledge</text><text x="1253.468" y="677.121" fill="#2D2D2D" font-size="18.75" textLength="64.81" font-family="DejaVu Sans">Source</text><text x="1318.279" y="677.121" fill="#2D2D2D" font-size="18.75" font-family="DejaVu Sans"> </text><text x="1324.239" y="677.121" fill="#2D2D2D" font-size="18.75" font-family="DejaVu Sans">B</text></g><!--entity ksC--><g class="entity" data-qualified-name="bbModel.ksC" id="ent0013" data-source-line="21"><rect x="1476.563" y="606.641" width="165.57" height="90.527" fill="#DEF4E3" style="stroke:#1F3B73;stroke-width:0.781;" rx="4.688" ry="4.688"/><rect x="1610.883" y="614.453" width="23.438" height="15.625" fill="#DEF4E3" style="stroke:#1F3B73;stroke-width:0.781;"/><rect x="1607.758" y="617.578" width="6.25" height="3.125" fill="#DEF4E3" style="stroke:#1F3B73;stroke-width:0.781;"/><rect x="1607.758" y="623.828" width="6.25" height="3.125" fill="#DEF4E3" style="stroke:#1F3B73;stroke-width:0.781;"/><text x="1500" y="655.295" fill="#2D2D2D" font-size="18.75" textLength="103.07" font-family="DejaVu Sans">Knowledge</text><text x="1509.604" y="677.121" fill="#2D2D2D" font-size="18.75" textLength="64.81" font-family="DejaVu Sans">Source</text><text x="1574.414" y="677.121" fill="#2D2D2D" font-size="18.75" font-family="DejaVu Sans"> </text><text x="1580.374" y="677.121" fill="#2D2D2D" font-size="18.75" font-family="DejaVu Sans">C</text></g><!--entity bb--><g class="entity" data-qualified-name="bbModel.bb" id="ent0014" data-source-line="22"><path d="M1316.406,389.453 C1316.406,373.828 1384.633,373.828 1384.633,373.828 C1384.633,373.828 1452.859,373.828 1452.859,389.453 L1452.859,447.168 C1452.859,462.793 1384.633,462.793 1384.633,462.793 C1384.633,462.793 1316.406,462.793 1316.406,447.168 L1316.406,389.453" style="stroke:#4A6FA5;stroke-width:0.781;" fill="#F9ECDA"/><path d="M1316.406,389.453 C1316.406,405.078 1384.633,405.078 1384.633,405.078 C1384.633,405.078 1452.859,405.078 1452.859,389.453" style="stroke:#4A6FA5;stroke-width:0.781;" fill="none"/><text x="1332.031" y="428.732" fill="#2D2D2D" font-size="18.75" textLength="105.203" font-family="DejaVu Sans">Blackboard</text><text x="1348.154" y="450.558" fill="#2D2D2D" font-size="18.75" textLength="72.958" font-family="DejaVu Sans">(Active)</text></g><g class="entity" data-qualified-name="GMN20" id="ent0021" data-source-line="32"><path d="M759.375,375.391 L759.375,461.67 A4.688,4.688 0 0 0 764.063,466.357 L1103.983,466.357 A4.688,4.688 0 0 0 1108.671,461.67 L1108.671,386.328 L1093.046,370.703 L764.063,370.703 A4.688,4.688 0 0 0 759.375,375.391" style="stroke:#B8B8B0;stroke-width:0.781;" fill="#F7F7F2"/><path d="M1093.046,370.703 L1093.046,383.984 A2.344,2.344 0 0 0 1095.39,386.328 L1108.671,386.328 L1093.046,370.703" style="stroke:#B8B8B0;stroke-width:1.563;" fill="#F7F7F2"/><text x="816.041" y="394.469" fill="#2D2D2D" font-size="17.188" textLength="153.932" font-family="DejaVu Sans">Accessor-Initiated</text><text x="969.973" y="394.469" fill="#2D2D2D" font-size="17.188" font-family="DejaVu Sans"> </text><text x="975.436" y="394.469" fill="#2D2D2D" font-size="17.188" textLength="62.506" font-family="DejaVu Sans">Control</text><text x="768.75" y="414.477" fill="#2D2D2D" font-size="17.188" textLength="85.677" font-family="DejaVu Sans">Accessors</text><text x="854.427" y="414.477" fill="#2D2D2D" font-size="17.188" font-family="DejaVu Sans"> </text><text x="859.891" y="414.477" fill="#2D2D2D" font-size="17.188" textLength="57.194" font-family="DejaVu Sans">decide</text><text x="917.085" y="414.477" fill="#2D2D2D" font-size="17.188" font-family="DejaVu Sans"> </text><text x="922.548" y="414.477" fill="#2D2D2D" font-size="17.188" textLength="46.418" font-family="DejaVu Sans">when</text><text x="968.966" y="414.477" fill="#2D2D2D" font-size="17.188" font-family="DejaVu Sans"> </text><text x="974.429" y="414.477" fill="#2D2D2D" font-size="17.188" textLength="17.255" font-family="DejaVu Sans">to</text><text x="991.684" y="414.477" fill="#2D2D2D" font-size="17.188" font-family="DejaVu Sans"> </text><text x="997.147" y="414.477" fill="#2D2D2D" font-size="17.188" textLength="88.086" font-family="DejaVu Sans">read/write</text><text x="836.145" y="434.484" fill="#2D2D2D" font-size="17.188" textLength="92.165" font-family="DejaVu Sans">Repository</text><text x="928.309" y="434.484" fill="#2D2D2D" font-size="17.188" font-family="DejaVu Sans"> </text><text x="933.773" y="434.484" fill="#2D2D2D" font-size="17.188" textLength="13.73" font-family="DejaVu Sans">is</text><text x="947.503" y="434.484" fill="#2D2D2D" font-size="17.188" font-family="DejaVu Sans"> </text><text x="952.966" y="434.484" fill="#2D2D2D" font-size="17.188" textLength="64.873" font-family="DejaVu Sans">passive</text><text x="771.314" y="454.491" fill="#2D2D2D" font-size="17.188" textLength="57.009" font-family="DejaVu Sans">Polling</text><text x="828.323" y="454.491" fill="#2D2D2D" font-size="17.188" font-family="DejaVu Sans"> </text><text x="833.786" y="454.491" fill="#2D2D2D" font-size="17.188" textLength="64.436" font-family="DejaVu Sans">needed</text><text x="898.223" y="454.491" fill="#2D2D2D" font-size="17.188" font-family="DejaVu Sans"> </text><text x="903.686" y="454.491" fill="#2D2D2D" font-size="17.188" textLength="23.633" font-family="DejaVu Sans">for</text><text x="927.319" y="454.491" fill="#2D2D2D" font-size="17.188" font-family="DejaVu Sans"> </text><text x="932.782" y="454.491" fill="#2D2D2D" font-size="17.188" textLength="63.253" font-family="DejaVu Sans">change</text><text x="996.035" y="454.491" fill="#2D2D2D" font-size="17.188" font-family="DejaVu Sans"> </text><text x="1001.499" y="454.491" fill="#2D2D2D" font-size="17.188" textLength="81.171" font-family="DejaVu Sans">detection</text></g><g class="entity" data-qualified-name="GMN23" id="ent0024" data-source-line="39"><path d="M1739.844,375.391 L1739.844,461.67 A4.688,4.688 0 0 0 1744.531,466.357 L2027.183,466.357 A4.688,4.688 0 0 0 2031.87,461.67 L2031.87,386.328 L2016.245,370.703 L1744.531,370.703 A4.688,4.688 0 0 0 1739.844,375.391" style="stroke:#B8B8B0;stroke-width:0.781;" fill="#F7F7F2"/><path d="M2016.245,370.703 L2016.245,383.984 A2.344,2.344 0 0 0 2018.589,386.328 L2031.87,386.328 L2016.245,370.703" style="stroke:#B8B8B0;stroke-width:1.563;" fill="#F7F7F2"/><text x="1760.154" y="394.469" fill="#2D2D2D" font-size="17.188" textLength="169.374" font-family="DejaVu Sans">Repository-Initiated</text><text x="1929.528" y="394.469" fill="#2D2D2D" font-size="17.188" font-family="DejaVu Sans"> </text><text x="1934.991" y="394.469" fill="#2D2D2D" font-size="17.188" textLength="62.506" font-family="DejaVu Sans">Control</text><text x="1751.279" y="414.477" fill="#2D2D2D" font-size="17.188" textLength="96.436" font-family="DejaVu Sans">Blackboard</text><text x="1847.715" y="414.477" fill="#2D2D2D" font-size="17.188" font-family="DejaVu Sans"> </text><text x="1853.179" y="414.477" fill="#2D2D2D" font-size="17.188" textLength="63.278" font-family="DejaVu Sans">notifies</text><text x="1916.457" y="414.477" fill="#2D2D2D" font-size="17.188" font-family="DejaVu Sans"> </text><text x="1921.92" y="414.477" fill="#2D2D2D" font-size="17.188" textLength="84.452" font-family="DejaVu Sans">accessors</text><text x="1754.057" y="434.484" fill="#2D2D2D" font-size="17.188" textLength="41.039" font-family="DejaVu Sans">Data</text><text x="1795.095" y="434.484" fill="#2D2D2D" font-size="17.188" font-family="DejaVu Sans"> </text><text x="1800.559" y="434.484" fill="#2D2D2D" font-size="17.188" textLength="72.208" font-family="DejaVu Sans">changes</text><text x="1872.766" y="434.484" fill="#2D2D2D" font-size="17.188" font-family="DejaVu Sans"> </text><text x="1878.23" y="434.484" fill="#2D2D2D" font-size="17.188" textLength="58.041" font-family="DejaVu Sans">trigger</text><text x="1936.271" y="434.484" fill="#2D2D2D" font-size="17.188" font-family="DejaVu Sans"> </text><text x="1941.735" y="434.484" fill="#2D2D2D" font-size="17.188" textLength="61.86" font-family="DejaVu Sans">actions</text><text x="1749.219" y="454.491" fill="#2D2D2D" font-size="17.188" textLength="77.411" font-family="DejaVu Sans">Common</text><text x="1826.63" y="454.491" fill="#2D2D2D" font-size="17.188" font-family="DejaVu Sans"> </text><text x="1832.093" y="454.491" fill="#2D2D2D" font-size="17.188" textLength="15.668" font-family="DejaVu Sans">in</text><text x="1847.762" y="454.491" fill="#2D2D2D" font-size="17.188" font-family="DejaVu Sans"> </text><text x="1853.225" y="454.491" fill="#2D2D2D" font-size="17.188" textLength="78.653" font-family="DejaVu Sans">AI/expert</text><text x="1931.878" y="454.491" fill="#2D2D2D" font-size="17.188" font-family="DejaVu Sans"> </text><text x="1937.341" y="454.491" fill="#2D2D2D" font-size="17.188" textLength="71.091" font-family="DejaVu Sans">systems</text></g><!--link accA1 to repo1--><g class="link" data-entity-1="ent0002" data-entity-2="ent0005" id="lnk6" data-source-line="12" data-link-type="dependency"><path d="M496.109,244.313 C455.172,263.203 409.766,286.203 393.75,301.953 C373.469,321.891 361.477,342.839 351.399,366.276" style="stroke:#2D2D2D;stroke-width:1.563;" fill="none" id="accA1-to-repo1"/><polygon points="348.313,373.453,359.609,363.003,351.399,366.276,348.126,358.065,348.313,373.453" fill="#2D2D2D" style="stroke:#2D2D2D;stroke-width:1.563;stroke-linejoin:miter;stroke-miterlimit:10;"/><text x="395.313" y="319.469" fill="#2D2D2D" font-size="17.188" textLength="16.399" font-family="DejaVu Sans">1.</text><text x="411.711" y="319.469" fill="#2D2D2D" font-size="17.188" font-family="DejaVu Sans"> </text><text x="417.175" y="319.469" fill="#2D2D2D" font-size="17.188" textLength="65.712" font-family="DejaVu Sans">request</text></g><!--link repo1 to accA1--><g class="link" data-entity-1="ent0005" data-entity-2="ent0002" id="lnk7" data-source-line="13" data-link-type="dependency"><path d="M399.094,385.672 C429,369.719 463.594,348.453 490.625,323.828 C516.094,300.625 534.381,274.908 549.163,250.83" style="stroke:#2D2D2D;stroke-width:1.563;" fill="none" id="repo1-to-accA1"/><polygon points="553.25,244.172,540.566,252.887,549.163,250.83,551.219,259.426,553.25,244.172" fill="#2D2D2D" style="stroke:#2D2D2D;stroke-width:1.563;stroke-linejoin:miter;stroke-miterlimit:10;"/><text x="514.063" y="319.469" fill="#2D2D2D" font-size="17.188" textLength="16.399" font-family="DejaVu Sans">2.</text><text x="530.461" y="319.469" fill="#2D2D2D" font-size="17.188" font-family="DejaVu Sans"> </text><text x="535.925" y="319.469" fill="#2D2D2D" font-size="17.188" textLength="78.443" font-family="DejaVu Sans">response</text></g><!--link accB1 to repo1--><g class="link" data-entity-1="ent0003" data-entity-2="ent0005" id="lnk8" data-source-line="14" data-link-type="dependency"><path d="M307.438,244.375 C290.5,259.781 273.078,279.641 264.063,301.953 C253.969,326.953 262.135,346.877 279.557,367.752" style="stroke:#2D2D2D;stroke-width:1.563;" fill="none" id="accB1-to-repo1"/><polygon points="284.563,373.75,280.35,358.949,279.557,367.752,270.754,366.958,284.563,373.75" fill="#2D2D2D" style="stroke:#2D2D2D;stroke-width:1.563;stroke-linejoin:miter;stroke-miterlimit:10;"/><text x="265.625" y="319.469" fill="#2D2D2D" font-size="17.188" textLength="16.399" font-family="DejaVu Sans">3.</text><text x="282.024" y="319.469" fill="#2D2D2D" font-size="17.188" font-family="DejaVu Sans"> </text><text x="287.487" y="319.469" fill="#2D2D2D" font-size="17.188" textLength="43.212" font-family="DejaVu Sans">write</text></g><!--link accC1 to repo1--><g class="link" data-entity-1="ent0004" data-entity-2="ent0005" id="lnk9" data-source-line="15" data-link-type="dependency"><path d="M144.609,244.5 C155.375,268.422 172.25,300.484 193.75,323.828 C214.609,346.469 235.389,362.184 260.373,377.653" style="stroke:#2D2D2D;stroke-width:1.563;stroke-dasharray:10.938,10.938;" fill="none" id="accC1-to-repo1"/><polygon points="267.016,381.766,258.349,369.049,260.373,377.653,251.769,379.677,267.016,381.766" fill="#2D2D2D" style="stroke:#2D2D2D;stroke-width:1.563;stroke-linejoin:miter;stroke-miterlimit:10;"/><text x="195.313" y="319.469" fill="#2D2D2D" font-size="17.188" textLength="16.399" font-family="DejaVu Sans">4.</text><text x="211.711" y="319.469" fill="#2D2D2D" font-size="17.188" font-family="DejaVu Sans"> </text><text x="217.175" y="319.469" fill="#2D2D2D" font-size="17.188" textLength="30.976" font-family="DejaVu Sans">poll</text></g><!--link bb to ksA--><g class="link" data-entity-1="ent0014" data-entity-2="ent0011" id="lnk15" data-source-line="24" data-link-type="dependency"><path d="M1381.594,373.609 C1379.406,351.797 1375.547,325.125 1368.75,301.953 C1364.156,286.297 1360.618,276.971 1353.712,262.518" style="stroke:#2D2D2D;stroke-width:1.563;stroke-dasharray:10.938,10.938;" fill="none" id="bb-to-ksA"/><polygon points="1350.344,255.469,1350.767,270.852,1353.712,262.518,1362.046,265.462,1350.344,255.469" fill="#2D2D2D" style="stroke:#2D2D2D;stroke-width:1.563;stroke-linejoin:miter;stroke-miterlimit:10;"/><text x="1376.563" y="319.469" fill="#2D2D2D" font-size="17.188" textLength="16.399" font-family="DejaVu Sans">1.</text><text x="1392.961" y="319.469" fill="#2D2D2D" font-size="17.188" font-family="DejaVu Sans"> </text><text x="1398.425" y="319.469" fill="#2D2D2D" font-size="17.188" textLength="49.146" font-family="DejaVu Sans">notify</text></g><!--link ksA to bb--><g class="link" data-entity-1="ent0011" data-entity-2="ent0014" id="lnk16" data-source-line="25" data-link-type="dependency"><path d="M1285.391,255.563 C1271.188,276.234 1261.234,301.234 1271.875,323.828 C1281.594,344.453 1292.278,357.193 1309.966,371.365" style="stroke:#2D2D2D;stroke-width:1.563;" fill="none" id="ksA-to-bb"/><polygon points="1316.063,376.25,1308.996,362.579,1309.966,371.365,1301.18,372.334,1316.063,376.25" fill="#2D2D2D" style="stroke:#2D2D2D;stroke-width:1.563;stroke-linejoin:miter;stroke-miterlimit:10;"/><text x="1273.438" y="319.469" fill="#2D2D2D" font-size="17.188" textLength="16.399" font-family="DejaVu Sans">2.</text><text x="1289.836" y="319.469" fill="#2D2D2D" font-size="17.188" font-family="DejaVu Sans"> </text><text x="1295.3" y="319.469" fill="#2D2D2D" font-size="17.188" textLength="60.559" font-family="DejaVu Sans">update</text></g><!--link bb to ksB--><g class="link" data-entity-1="ent0014" data-entity-2="ent0012" id="lnk17" data-source-line="26" data-link-type="dependency"><path d="M1316.281,454.641 C1285.219,474.438 1251.594,502.422 1234.375,537.891 C1222.969,561.359 1230.311,580.272 1247.561,600.647" style="stroke:#2D2D2D;stroke-width:1.563;stroke-dasharray:10.938,10.938;" fill="none" id="bb-to-ksB"/><polygon points="1252.609,606.609,1248.293,591.838,1247.561,600.647,1238.753,599.915,1252.609,606.609" fill="#2D2D2D" style="stroke:#2D2D2D;stroke-width:1.563;stroke-linejoin:miter;stroke-miterlimit:10;"/><text x="1235.938" y="555.407" fill="#2D2D2D" font-size="17.188" textLength="16.399" font-family="DejaVu Sans">3.</text><text x="1252.336" y="555.407" fill="#2D2D2D" font-size="17.188" font-family="DejaVu Sans"> </text><text x="1257.8" y="555.407" fill="#2D2D2D" font-size="17.188" textLength="58.041" font-family="DejaVu Sans">trigger</text></g><!--link ksB to bb--><g class="link" data-entity-1="ent0012" data-entity-2="ent0014" id="lnk18" data-source-line="27" data-link-type="dependency"><path d="M1318.609,606.453 C1333.125,565.313 1352.059,511.587 1366.496,470.634" style="stroke:#2D2D2D;stroke-width:1.563;" fill="none" id="ksB-to-bb"/><polygon points="1369.094,463.266,1358.524,474.45,1366.496,470.634,1370.313,478.606,1369.094,463.266" fill="#2D2D2D" style="stroke:#2D2D2D;stroke-width:1.563;stroke-linejoin:miter;stroke-miterlimit:10;"/><text x="1343.75" y="555.407" fill="#2D2D2D" font-size="17.188" textLength="16.399" font-family="DejaVu Sans">4.</text><text x="1360.149" y="555.407" fill="#2D2D2D" font-size="17.188" font-family="DejaVu Sans"> </text><text x="1365.612" y="555.407" fill="#2D2D2D" font-size="17.188" textLength="88.556" font-family="DejaVu Sans">contribute</text></g><!--link bb to ksC--><g class="link" data-entity-1="ent0014" data-entity-2="ent0013" id="lnk19" data-source-line="28" data-link-type="dependency"><path d="M1417.297,463.266 C1448.375,504.219 1490.057,559.09 1521.292,600.231" style="stroke:#2D2D2D;stroke-width:1.563;stroke-dasharray:10.938,10.938;" fill="none" id="bb-to-ksC"/><polygon points="1526.016,606.453,1522.49,591.474,1521.292,600.231,1512.534,599.032,1526.016,606.453" fill="#2D2D2D" style="stroke:#2D2D2D;stroke-width:1.563;stroke-linejoin:miter;stroke-miterlimit:10;"/><text x="1490.625" y="555.407" fill="#2D2D2D" font-size="17.188" textLength="16.399" font-family="DejaVu Sans">5.</text><text x="1507.024" y="555.407" fill="#2D2D2D" font-size="17.188" font-family="DejaVu Sans"> </text><text x="1512.487" y="555.407" fill="#2D2D2D" font-size="17.188" textLength="69.514" font-family="DejaVu Sans">activate</text></g><!--link repoModel to GMN20--><g class="link" data-entity-1="ent0001" data-entity-2="ent0021" id="lnk22" data-source-line="32" data-link-type="association"><path d="M722.217,223.063 C722.364,223.197 722.513,223.333 722.663,223.47 C722.963,223.744 723.267,224.021 723.575,224.303 C724.192,224.866 724.827,225.446 725.478,226.04 C726.781,227.23 728.151,228.481 729.585,229.79 C741.056,240.264 756.587,254.446 773.998,270.346 C808.82,302.145 851.164,340.813 883.594,370.422" style="stroke:#2D2D2D;stroke-width:1.563;stroke-dasharray:10.938,10.938;" fill="none" id="repoModel-GMN20"/></g><!--link bbModel to GMN23--><g class="link" data-entity-1="ent0010" data-entity-2="ent0024" id="lnk25" data-source-line="39" data-link-type="association"><path d="M1703.359,224.728 C1703.495,224.871 1703.631,225.015 1703.769,225.16 C1704.044,225.449 1704.323,225.743 1704.606,226.04 C1705.737,227.23 1706.926,228.481 1708.171,229.79 C1718.128,240.264 1731.61,254.446 1746.725,270.346 C1776.953,302.145 1813.711,340.813 1841.859,370.422" style="stroke:#2D2D2D;stroke-width:1.563;stroke-dasharray:10.938,10.938;" fill="none" id="bbModel-GMN23"/></g><?plantuml-src XPDFZzCm4CNl-HH3jGSuDA70NZWW9U6oGaWhLk92LyYnfrchZYVOpfOAyTqPvmz9krsegggjVpDvVc_6xxLjXHCDg5R3vlfr4bz11uFm1LloEf0xmgE7mWYvhqWu1L-5qy86lxKbsU38mCxG0IGrt4fxiadoGbjfEeMGfjdPEn0PRUlCXwD1dxM6MtMDuT-kaw5pmcGAMqF71crOAorgbhVkwLGpc2GEPH2sPechXSRFfD30orlXlNv4-2Y2W3i-mLSh41uSamDofH3RxwtJZU2oNmdmwrik9NfF3lBxI0ifymrSxRGn4td65HDN_9ih9wwyn2bMMGb_SfEjdIunAvzgfUY2PeDZRVyn25slFupOUrXjKlx-eqCVLZqo74HaW1bv4n7ValMucjeKPstUfd1mEim0No1D5y2x55eoPfNyFebaCIXZ9BaCbnAfgcKUj9-Y-6JfO53LkBLtr3c9OoPxduykqFuviXZ9uhzaEPBbAJa7Cj-30nckCEb-BWm-YGv5eKCEbeBU7GS7ux_HO8Q61BgM7pRQ-xUo6AqFJjSrkgcqM9IoxpBkdQww9-Lb1AvJZelrzjqv75Q1K548r03jvatWqcbCrpTM1yq52iQTNXnwK2WrB_FX0Iq4uWv2PVrmCBLOGUsX7IQN_x_bsU0z1ukekEsETq4-y8mWTmiyBj4vj2fwX4yqZhDnqlwYniMqzMPhx9TjqCtd_T0Dp_MJgRqxFFjyN5BJa0Lj8R_9y6UBBe0_-e2DdyNz0G00?></g></svg>