<svg xmlns="http://www.w3.org/2000/svg" xmlns:xlink="http://www.w3.org/1999/xlink" version="1.1" data-diagram-type="DESCRIPTION" style="width:871px;height:935px;" width="871.875px" height="935.938px" viewBox="0 0 871 935" zoomAndPan="magnify" preserveAspectRatio="none" contentStyleType="text/css"><?plantuml 1.2026.7?><defs/><g font-family="sans-serif" lengthAdjust="spacing"><g class="title" data-source-line="3"><text x="190.506" y="38.831" fill="#1F3B73" font-size="25" textLength="479.993" font-weight="700" font-family="DejaVu Sans">Uses vs. Other Dependency Types</text></g><!--cluster CT--><g class="cluster" data-qualified-name="CT" id="ent0001" data-source-line="5"><path d="M14.063,71.289 L344.092,71.289 A7.031,7.031 0 0 1 348.779,75.977 L359.717,102.49 L548.438,102.49 A4.688,4.688 0 0 1 553.125,107.178 L553.125,219.727 A4.688,4.688 0 0 1 548.438,224.414 L14.063,224.414 A4.688,4.688 0 0 1 9.375,219.727 L9.375,75.977 A4.688,4.688 0 0 1 14.063,71.289" style="stroke:#4A6FA5;stroke-width:2.344;" fill="#F1D7B1"/><line x1="9.375" y1="102.49" x2="359.717" y2="102.49" style="stroke:#4A6FA5;stroke-width:2.344;"/><text x="15.625" y="91.818" fill="#2D2D2D" font-size="18.75" textLength="330.029" font-weight="700" font-family="DejaVu Sans">Compile-Time Only — NOT uses</text></g><!--cluster FD--><g class="cluster" data-qualified-name="FD" id="ent0005" data-source-line="11"><path d="M14.063,300.977 L369.699,300.977 A7.031,7.031 0 0 1 374.387,305.664 L385.324,332.178 L693.75,332.178 A4.688,4.688 0 0 1 698.438,336.865 L698.438,449.414 A4.688,4.688 0 0 1 693.75,454.102 L14.063,454.102 A4.688,4.688 0 0 1 9.375,449.414 L9.375,305.664 A4.688,4.688 0 0 1 14.063,300.977" style="stroke:#4A6FA5;stroke-width:2.344;" fill="#BAE8C4"/><line x1="9.375" y1="332.178" x2="385.324" y2="332.178" style="stroke:#4A6FA5;stroke-width:2.344;"/><text x="15.625" y="321.506" fill="#2D2D2D" font-size="18.75" textLength="355.637" font-weight="700" font-family="DejaVu Sans">Functional Dependency — IS uses</text></g><!--cluster CW--><g class="cluster" data-qualified-name="CW" id="ent0009" data-source-line="17"><path d="M14.063,530.664 L289.664,530.664 A7.031,7.031 0 0 1 294.351,535.352 L305.289,561.865 L562.5,561.865 A4.688,4.688 0 0 1 567.188,566.553 L567.188,679.102 A4.688,4.688 0 0 1 562.5,683.789 L14.063,683.789 A4.688,4.688 0 0 1 9.375,679.102 L9.375,535.352 A4.688,4.688 0 0 1 14.063,530.664" style="stroke:#4A6FA5;stroke-width:2.344;" fill="#B7C8EC"/><line x1="9.375" y1="561.865" x2="305.289" y2="561.865" style="stroke:#4A6FA5;stroke-width:2.344;"/><text x="15.625" y="551.193" fill="#2D2D2D" font-size="18.75" textLength="275.601" font-weight="700" font-family="DejaVu Sans">Creation Only — NOT uses</text></g><!--cluster IH--><g class="cluster" data-qualified-name="IH" id="ent0013" data-source-line="23"><path d="M14.063,760.352 L376.3,760.352 A7.031,7.031 0 0 1 380.988,765.039 L391.925,791.553 L640.625,791.553 A4.688,4.688 0 0 1 645.313,796.24 L645.313,908.789 A4.688,4.688 0 0 1 640.625,913.477 L14.063,913.477 A4.688,4.688 0 0 1 9.375,908.789 L9.375,765.039 A4.688,4.688 0 0 1 14.063,760.352" style="stroke:#4A6FA5;stroke-width:2.344;" fill="#C7BAE8"/><line x1="9.375" y1="791.553" x2="391.925" y2="791.553" style="stroke:#4A6FA5;stroke-width:2.344;"/><text x="15.625" y="780.881" fill="#2D2D2D" font-size="18.75" textLength="362.238" font-weight="700" font-family="DejaVu Sans">Inheritance — depends on context</text></g><!--entity A1--><g class="entity" data-qualified-name="CT.A1" id="ent0002" data-source-line="6"><rect x="77.344" y="133.789" width="138.651" height="53.076" fill="#F9ECDA" style="stroke:#B8B8B0;stroke-width:0.781;" rx="4.688" ry="4.688"/><text x="92.969" y="166.818" fill="#2D2D2D" font-size="18.75" textLength="107.401" font-family="DejaVu Sans">module_a.c</text></g><!--entity T1--><g class="entity" data-qualified-name="CT.T1" id="ent0003" data-source-line="7"><rect x="415.625" y="133.789" width="100.748" height="53.076" fill="#F9ECDA" style="stroke:#B8B8B0;stroke-width:0.781;" rx="4.688" ry="4.688"/><text x="431.25" y="166.818" fill="#2D2D2D" font-size="18.75" textLength="69.498" font-family="DejaVu Sans">types.h</text></g><!--entity A2--><g class="entity" data-qualified-name="FD.A2" id="ent0006" data-source-line="12"><rect x="77.344" y="363.477" width="154.16" height="53.076" fill="#DEF4E3" style="stroke:#B8B8B0;stroke-width:0.781;" rx="4.688" ry="4.688"/><text x="92.969" y="396.506" fill="#2D2D2D" font-size="18.75" textLength="122.91" font-family="DejaVu Sans">OrderService</text></g><!--entity T2--><g class="entity" data-qualified-name="FD.T2" id="ent0007" data-source-line="13"><rect x="464.063" y="363.477" width="197.006" height="53.076" fill="#DEF4E3" style="stroke:#B8B8B0;stroke-width:0.781;" rx="4.688" ry="4.688"/><text x="479.688" y="396.506" fill="#2D2D2D" font-size="18.75" textLength="165.756" font-family="DejaVu Sans">PaymentGateway</text></g><!--entity A3--><g class="entity" data-qualified-name="CW.A3" id="ent0010" data-source-line="18"><rect x="77.344" y="593.164" width="101.462" height="53.076" fill="#DDE5F6" style="stroke:#B8B8B0;stroke-width:0.781;" rx="4.688" ry="4.688"/><text x="92.969" y="626.193" fill="#2D2D2D" font-size="18.75" textLength="70.212" font-family="DejaVu Sans">Factory</text></g><!--entity T3--><g class="entity" data-qualified-name="CW.T3" id="ent0011" data-source-line="19"><rect x="385.938" y="593.164" width="143.677" height="53.076" fill="#DDE5F6" style="stroke:#B8B8B0;stroke-width:0.781;" rx="4.688" ry="4.688"/><text x="401.563" y="626.193" fill="#2D2D2D" font-size="18.75" textLength="112.427" font-family="DejaVu Sans">WidgetType</text></g><!--entity A4--><g class="entity" data-qualified-name="IH.A4" id="ent0014" data-source-line="24"><rect x="76.563" y="822.852" width="127.875" height="53.076" fill="#E4DEF4" style="stroke:#B8B8B0;stroke-width:0.781;" rx="4.688" ry="4.688"/><text x="92.188" y="855.881" fill="#2D2D2D" font-size="18.75" textLength="96.625" font-family="DejaVu Sans">ChildClass</text></g><!--entity T4--><g class="entity" data-qualified-name="IH.T4" id="ent0015" data-source-line="25"><rect x="464.844" y="822.852" width="141.855" height="53.076" fill="#E4DEF4" style="stroke:#B8B8B0;stroke-width:0.781;" rx="4.688" ry="4.688"/><text x="480.469" y="855.881" fill="#2D2D2D" font-size="18.75" textLength="110.605" font-family="DejaVu Sans">ParentClass</text></g><g class="entity" data-qualified-name="N1" id="ent0020" data-source-line="34"><path d="M591.406,117.383 L591.406,203.662 A4.688,4.688 0 0 0 596.094,208.35 L843.816,208.35 A4.688,4.688 0 0 0 848.504,203.662 L848.504,128.32 L832.879,112.695 L596.094,112.695 A4.688,4.688 0 0 0 591.406,117.383" style="stroke:#B8B8B0;stroke-width:0.781;" fill="#F7F7F2"/><path d="M832.879,112.695 L832.879,125.977 A2.344,2.344 0 0 0 835.223,128.32 L848.504,128.32 L832.879,112.695" style="stroke:#B8B8B0;stroke-width:1.563;" fill="#F7F7F2"/><text x="600.781" y="136.462" fill="#2D2D2D" font-size="17.188" textLength="36.179" font-weight="700" font-family="DejaVu Sans">Key</text><text x="636.961" y="136.462" fill="#2D2D2D" font-size="17.188" font-weight="700" font-family="DejaVu Sans"> </text><text x="642.944" y="136.462" fill="#2D2D2D" font-size="17.188" textLength="48.701" font-weight="700" font-family="DejaVu Sans">Test:</text><text x="691.645" y="136.462" fill="#2D2D2D" font-size="17.188" font-family="DejaVu Sans"> </text><text x="697.108" y="136.462" fill="#2D2D2D" font-size="17.188" textLength="49.095" font-family="DejaVu Sans">Could</text><text x="746.204" y="136.462" fill="#2D2D2D" font-size="17.188" font-family="DejaVu Sans"> </text><text x="751.667" y="136.462" fill="#2D2D2D" font-size="17.188" font-family="DejaVu Sans">A</text><text x="763.425" y="136.462" fill="#2D2D2D" font-size="17.188" font-family="DejaVu Sans"> </text><text x="768.888" y="136.462" fill="#2D2D2D" font-size="17.188" textLength="56.178" font-family="DejaVu Sans">satisfy</text><text x="601.436" y="156.469" fill="#2D2D2D" font-size="17.188" textLength="20.469" font-family="DejaVu Sans">its</text><text x="621.905" y="156.469" fill="#2D2D2D" font-size="17.188" font-family="DejaVu Sans"> </text><text x="627.368" y="156.469" fill="#2D2D2D" font-size="17.188" textLength="115.764" font-family="DejaVu Sans">requirements</text><text x="743.132" y="156.469" fill="#2D2D2D" font-size="17.188" font-family="DejaVu Sans"> </text><text x="748.595" y="156.469" fill="#2D2D2D" font-size="17.188" textLength="10.826" font-family="DejaVu Sans">if</text><text x="759.422" y="156.469" fill="#2D2D2D" font-size="17.188" font-family="DejaVu Sans"> </text><text x="764.885" y="156.469" fill="#2D2D2D" font-size="17.188" font-family="DejaVu Sans">B</text><text x="776.676" y="156.469" fill="#2D2D2D" font-size="17.188" font-family="DejaVu Sans"> </text><text x="782.14" y="156.469" fill="#2D2D2D" font-size="17.188" textLength="42.272" font-family="DejaVu Sans">were</text><text x="626.542" y="176.476" fill="#2D2D2D" font-size="17.188" textLength="58.604" font-family="DejaVu Sans">absent</text><text x="685.145" y="176.476" fill="#2D2D2D" font-size="17.188" font-family="DejaVu Sans"> </text><text x="690.609" y="176.476" fill="#2D2D2D" font-size="17.188" textLength="17.582" font-family="DejaVu Sans">or</text><text x="708.191" y="176.476" fill="#2D2D2D" font-size="17.188" font-family="DejaVu Sans"> </text><text x="713.654" y="176.476" fill="#2D2D2D" font-size="17.188" textLength="85.652" font-family="DejaVu Sans">incorrect?</text><text x="642.949" y="196.484" fill="#2D2D2D" font-size="17.188" textLength="11.12" font-family="DejaVu Sans">If</text><text x="654.068" y="196.484" fill="#2D2D2D" font-size="17.188" font-family="DejaVu Sans"> </text><text x="659.532" y="196.484" fill="#2D2D2D" font-size="17.188" textLength="33.611" font-family="DejaVu Sans">not,</text><text x="693.143" y="196.484" fill="#2D2D2D" font-size="17.188" font-family="DejaVu Sans"> </text><text x="698.606" y="196.484" fill="#2D2D2D" font-size="17.188" font-family="DejaVu Sans">A</text><text x="710.364" y="196.484" fill="#2D2D2D" font-size="17.188" font-family="DejaVu Sans"> </text><text x="715.828" y="196.484" fill="#2D2D2D" font-size="17.188" textLength="44.353" font-weight="700" font-family="DejaVu Sans">uses</text><text x="760.181" y="196.484" fill="#2D2D2D" font-size="17.188" font-family="DejaVu Sans"> </text><text x="765.644" y="196.484" fill="#2D2D2D" font-size="17.188" textLength="17.255" font-family="DejaVu Sans">B.</text></g><!--link A1 to T1--><g class="link" data-entity-1="ent0002" data-entity-2="ent0003" id="lnk4" data-source-line="8" data-link-type="dependency"><path d="M216.438,160.352 C276.516,160.352 354.078,160.352 407.672,160.352" style="stroke:#2D2D2D;stroke-width:1.563;" fill="none" id="A1-to-T1"/><polygon points="415.484,160.352,401.422,154.102,407.672,160.352,401.422,166.602,415.484,160.352" fill="#2D2D2D" style="stroke:#2D2D2D;stroke-width:1.563;stroke-linejoin:miter;stroke-miterlimit:10;"/><text x="270.384" y="110.68" fill="#2D2D2D" font-size="17.188" textLength="92.257" font-family="DejaVu Sans">«includes»</text><text x="244.922" y="130.688" fill="#2D2D2D" font-size="17.188" textLength="51.907" font-family="DejaVu Sans">needs</text><text x="296.828" y="130.688" fill="#2D2D2D" font-size="17.188" font-family="DejaVu Sans"> </text><text x="302.292" y="130.688" fill="#2D2D2D" font-size="17.188" textLength="38.395" font-family="DejaVu Sans">type</text><text x="340.687" y="130.688" fill="#2D2D2D" font-size="17.188" font-family="DejaVu Sans"> </text><text x="346.15" y="130.688" fill="#2D2D2D" font-size="17.188" textLength="41.953" font-family="DejaVu Sans">defs,</text><text x="261.988" y="150.695" fill="#2D2D2D" font-size="17.188" textLength="28.148" font-family="DejaVu Sans">not</text><text x="290.136" y="150.695" fill="#2D2D2D" font-size="17.188" font-family="DejaVu Sans"> </text><text x="295.599" y="150.695" fill="#2D2D2D" font-size="17.188" textLength="75.439" font-family="DejaVu Sans">behavior</text></g><!--link A2 to T2--><g class="link" data-entity-1="ent0006" data-entity-2="ent0007" id="lnk8" data-source-line="14" data-link-type="dependency"><path d="M232.359,390.039 C297.984,390.039 384.578,390.039 455.641,390.039" style="stroke:#2D2D2D;stroke-width:1.563;" fill="none" id="A2-to-T2"/><polygon points="463.453,390.039,449.391,383.789,455.641,390.039,449.391,396.289,463.453,390.039" fill="#2D2D2D" style="stroke:#2D2D2D;stroke-width:1.563;stroke-linejoin:miter;stroke-miterlimit:10;"/><text x="317.858" y="340.368" fill="#2D2D2D" font-size="17.188" textLength="60.408" font-family="DejaVu Sans">«uses»</text><text x="279.493" y="360.375" fill="#2D2D2D" font-size="17.188" textLength="70.815" font-family="DejaVu Sans">requires</text><text x="350.307" y="360.375" fill="#2D2D2D" font-size="17.188" font-family="DejaVu Sans"> </text><text x="355.77" y="360.375" fill="#2D2D2D" font-size="17.188" textLength="60.861" font-family="DejaVu Sans">correct</text><text x="260.547" y="380.383" fill="#2D2D2D" font-size="17.188" textLength="76.563" font-family="DejaVu Sans">payment</text><text x="337.11" y="380.383" fill="#2D2D2D" font-size="17.188" font-family="DejaVu Sans"> </text><text x="342.574" y="380.383" fill="#2D2D2D" font-size="17.188" textLength="93.004" font-family="DejaVu Sans">processing</text></g><!--link A3 to T3--><g class="link" data-entity-1="ent0010" data-entity-2="ent0011" id="lnk12" data-source-line="20" data-link-type="dependency"><path d="M178.922,619.727 C234.188,619.727 315.203,619.727 377.734,619.727" style="stroke:#2D2D2D;stroke-width:1.563;" fill="none" id="A3-to-T3"/><polygon points="385.547,619.727,371.484,613.477,377.734,619.727,371.484,625.977,385.547,619.727" fill="#2D2D2D" style="stroke:#2D2D2D;stroke-width:1.563;stroke-linejoin:miter;stroke-miterlimit:10;"/><text x="240.173" y="570.055" fill="#2D2D2D" font-size="17.188" textLength="84.922" font-family="DejaVu Sans">«creates»</text><text x="207.422" y="590.063" fill="#2D2D2D" font-size="17.188" textLength="101.102" font-family="DejaVu Sans">instantiates</text><text x="308.524" y="590.063" fill="#2D2D2D" font-size="17.188" font-family="DejaVu Sans"> </text><text x="313.988" y="590.063" fill="#2D2D2D" font-size="17.188" textLength="43.858" font-family="DejaVu Sans">type,</text><text x="228.109" y="610.07" fill="#2D2D2D" font-size="17.188" textLength="28.148" font-family="DejaVu Sans">not</text><text x="256.257" y="610.07" fill="#2D2D2D" font-size="17.188" font-family="DejaVu Sans"> </text><text x="261.72" y="610.07" fill="#2D2D2D" font-size="17.188" textLength="75.439" font-family="DejaVu Sans">behavior</text></g><!--link A4 to T4--><g class="link" data-entity-1="ent0014" data-entity-2="ent0015" id="lnk16" data-source-line="26" data-link-type="dependency"><path d="M205.016,849.414 C276.125,849.414 382.484,849.414 456.391,849.414" style="stroke:#2D2D2D;stroke-width:1.563;" fill="none" id="A4-to-T4"/><polygon points="464.203,849.414,450.141,843.164,456.391,849.414,450.141,855.664,464.203,849.414" fill="#2D2D2D" style="stroke:#2D2D2D;stroke-width:1.563;stroke-linejoin:miter;stroke-miterlimit:10;"/><text x="289.872" y="799.743" fill="#2D2D2D" font-size="17.188" textLength="89.848" font-family="DejaVu Sans">«extends»</text><text x="233.203" y="819.75" fill="#2D2D2D" font-size="17.188" textLength="39.377" font-family="DejaVu Sans">uses</text><text x="272.58" y="819.75" fill="#2D2D2D" font-size="17.188" font-family="DejaVu Sans"> </text><text x="278.043" y="819.75" fill="#2D2D2D" font-size="17.188" textLength="36.356" font-family="DejaVu Sans">only</text><text x="314.399" y="819.75" fill="#2D2D2D" font-size="17.188" font-family="DejaVu Sans"> </text><text x="319.862" y="819.75" fill="#2D2D2D" font-size="17.188" textLength="10.826" font-family="DejaVu Sans">if</text><text x="330.688" y="819.75" fill="#2D2D2D" font-size="17.188" font-family="DejaVu Sans"> </text><text x="336.152" y="819.75" fill="#2D2D2D" font-size="17.188" textLength="100.238" font-family="DejaVu Sans">correctness</text><text x="253.408" y="839.758" fill="#2D2D2D" font-size="17.188" textLength="73.727" font-family="DejaVu Sans">depends</text><text x="327.134" y="839.758" fill="#2D2D2D" font-size="17.188" font-family="DejaVu Sans"> </text><text x="332.598" y="839.758" fill="#2D2D2D" font-size="17.188" textLength="21.409" font-family="DejaVu Sans">on</text><text x="354.007" y="839.758" fill="#2D2D2D" font-size="17.188" font-family="DejaVu Sans"> </text><text x="359.47" y="839.758" fill="#2D2D2D" font-size="17.188" textLength="56.715" font-family="DejaVu Sans">parent</text></g><!--link CT to FD--><!--link FD to CW--><!--link CW to IH--><?plantuml-src VPFHQjim58Rl_HHdeLUXTfQskoab8tN96WRDe1cvM4PHfPD4H9OyIKvcnc0FiIVSa-n8TadYiXdVMFvrz7_d_79RgKjcMG6Yb31yzpQXvutKN5K28Si6dTSRewHU3vol5Rf1gPZsLQ7esrRSLvQfGSdubgqn5PAjgN0QfPaaLP9uwHN2PuSETYw3cT-WXJiiKGlKl8PvNQ9BahO4z79Jb59XEfS5maoh6lxy-WqFipbKLAC7p44-XpE1M3vnLdbfDFn802nop_IQpkeLHbGAdrZ6etmyXBELLEf5VYhsuVni4vNprqhQd5gvtlXq57vVmyrDsoet6YsrHXGEGWqGk7Bdj68yFEE6xQInoSyZi4cbUIZAr35-W9i-7jWcTosRsNQnPbQWVKIxanmRi8lMhjcUAZ-nka3jFp2FUrOtQ2TQsdcWkeXKmK4WilYjafQcnOqD9PSKbbWDIciuEaTPEE7ABR8uXNyCQz42bLOMpDPTgWdZtjZ6vFYoDTbgJvKBATReGruQejTYsd_0kenOFBXhoAHsLChBy1r7zhzfJJNbL9AUOsGISMGEY9CRxV6xZoQczoqTKxvBbc-a4hbYhcd4-AhrIzBkk2przw2Sdoffuu7gAbBHyS5De0gD9bVKUhbwcPccCItraUKodX00wUwaNpPIKFg-2hFNAIKkeT1r5lD5GeFhB4xlauGQXi7Zmv2SzViVaMumEd_TxqDkAYLW38xYu5PX7j8xQFCK4kI2nLlOeqNwoPvTI9MnG1UgyVsUbgShe3FEgKw_7zYey6sM44XOnhy0?></g></svg>