<svg xmlns="http://www.w3.org/2000/svg" xmlns:xlink="http://www.w3.org/1999/xlink" contentStyleType="text/css" height="615px" preserveAspectRatio="none" style="width:812px;height:615px;background:#FFFFFF;" version="1.1" viewBox="0 0 812 615" width="812px" zoomAndPan="magnify"><title>Software Architecture - Component Overview</title><defs/><g><text fill="#000000" font-family="sans-serif" font-size="14" font-weight="bold" lengthAdjust="spacing" textLength="358.9414" x="219.5293" y="22.9951">Software Architecture - Component Overview</text><!--cluster Presentation Layer--><g id="cluster_Presentation Layer"><path d="M292.5,43.2969 L443.9385,43.2969 A3.75,3.75 0 0 1 446.4385,45.7969 L453.4385,65.5938 L757.5,65.5938 A2.5,2.5 0 0 1 760,68.0938 L760,137.7969 A2.5,2.5 0 0 1 757.5,140.2969 L292.5,140.2969 A2.5,2.5 0 0 1 290,137.7969 L290,45.7969 A2.5,2.5 0 0 1 292.5,43.2969 " fill="none" style="stroke:#000000;stroke-width:1.5;"/><line style="stroke:#000000;stroke-width:1.5;" x1="290" x2="453.4385" y1="65.5938" y2="65.5938"/><text fill="#000000" font-family="sans-serif" font-size="14" font-weight="bold" lengthAdjust="spacing" textLength="150.4385" x="294" y="58.292">Presentation Layer</text></g><!--cluster API Layer--><g id="cluster_API Layer"><path d="M277.5,164.2969 L353.5723,164.2969 A3.75,3.75 0 0 1 356.0723,166.7969 L363.0723,186.5938 L665.5,186.5938 A2.5,2.5 0 0 1 668,189.0938 L668,258.7969 A2.5,2.5 0 0 1 665.5,261.2969 L277.5,261.2969 A2.5,2.5 0 0 1 275,258.7969 L275,166.7969 A2.5,2.5 0 0 1 277.5,164.2969 " fill="none" style="stroke:#000000;stroke-width:1.5;"/><line style="stroke:#000000;stroke-width:1.5;" x1="275" x2="363.0723" y1="186.5938" y2="186.5938"/><text fill="#000000" font-family="sans-serif" font-size="14" font-weight="bold" lengthAdjust="spacing" textLength="75.0723" x="279" y="179.292">API Layer</text></g><!--cluster Business Logic--><g id="cluster_Business Logic"><path d="M104.5,285.2969 L221.9297,285.2969 A3.75,3.75 0 0 1 224.4297,287.7969 L231.4297,307.5938 L456.5,307.5938 A2.5,2.5 0 0 1 459,310.0938 L459,485.7969 A2.5,2.5 0 0 1 456.5,488.2969 L104.5,488.2969 A2.5,2.5 0 0 1 102,485.7969 L102,287.7969 A2.5,2.5 0 0 1 104.5,285.2969 " fill="none" style="stroke:#000000;stroke-width:1.5;"/><line style="stroke:#000000;stroke-width:1.5;" x1="102" x2="231.4297" y1="307.5938" y2="307.5938"/><text fill="#000000" font-family="sans-serif" font-size="14" font-weight="bold" lengthAdjust="spacing" textLength="116.4297" x="106" y="300.292">Business Logic</text></g><!--cluster Data Layer--><g id="cluster_Data Layer"><path d="M8.5,512.2969 L95.4756,512.2969 A3.75,3.75 0 0 1 97.9756,514.7969 L104.9756,534.5938 L445.5,534.5938 A2.5,2.5 0 0 1 448,537.0938 L448,605.7969 A2.5,2.5 0 0 1 445.5,608.2969 L8.5,608.2969 A2.5,2.5 0 0 1 6,605.7969 L6,514.7969 A2.5,2.5 0 0 1 8.5,512.2969 " fill="none" style="stroke:#000000;stroke-width:1.5;"/><line style="stroke:#000000;stroke-width:1.5;" x1="6" x2="104.9756" y1="534.5938" y2="534.5938"/><text fill="#000000" font-family="sans-serif" font-size="14" font-weight="bold" lengthAdjust="spacing" textLength="85.9756" x="10" y="527.292">Data Layer</text></g><!--cluster External Services--><g id="cluster_External Services"><path d="M485.5,391.2969 L623.8066,391.2969 A3.75,3.75 0 0 1 626.3066,393.7969 L633.3066,413.5938 L802.5,413.5938 A2.5,2.5 0 0 1 805,416.0938 L805,485.7969 A2.5,2.5 0 0 1 802.5,488.2969 L485.5,488.2969 A2.5,2.5 0 0 1 483,485.7969 L483,393.7969 A2.5,2.5 0 0 1 485.5,391.2969 " fill="none" style="stroke:#000000;stroke-width:1.5;"/><line style="stroke:#000000;stroke-width:1.5;" x1="483" x2="633.3066" y1="413.5938" y2="413.5938"/><text fill="#000000" font-family="sans-serif" font-size="14" font-weight="bold" lengthAdjust="spacing" textLength="137.3066" x="487" y="406.292">External Services</text></g><!--entity WebApp--><g id="elem_WebApp"><rect fill="#F1F1F1" height="46.2969" rx="2.5" ry="2.5" style="stroke:#181818;stroke-width:0.5;" width="154.0166" x="306" y="78.2969"/><rect fill="#F1F1F1" height="10" style="stroke:#181818;stroke-width:0.5;" width="15" x="440.0166" y="83.2969"/><rect fill="#F1F1F1" height="2" style="stroke:#181818;stroke-width:0.5;" width="4" x="438.0166" y="85.2969"/><rect fill="#F1F1F1" height="2" style="stroke:#181818;stroke-width:0.5;" width="4" x="438.0166" y="89.2969"/><text fill="#000000" font-family="sans-serif" font-size="14" lengthAdjust="spacing" textLength="114.0166" x="321" y="111.292">Web Application</text></g><!--entity Mobile--><g id="elem_Mobile"><rect fill="#F1F1F1" height="46.2969" rx="2.5" ry="2.5" style="stroke:#181818;stroke-width:0.5;" width="117.7246" x="495" y="78.2969"/><rect fill="#F1F1F1" height="10" style="stroke:#181818;stroke-width:0.5;" width="15" x="592.7246" y="83.2969"/><rect fill="#F1F1F1" height="2" style="stroke:#181818;stroke-width:0.5;" width="4" x="590.7246" y="85.2969"/><rect fill="#F1F1F1" height="2" style="stroke:#181818;stroke-width:0.5;" width="4" x="590.7246" y="89.2969"/><text fill="#000000" font-family="sans-serif" font-size="14" lengthAdjust="spacing" textLength="77.7246" x="510" y="111.292">Mobile App</text></g><!--entity CLI--><g id="elem_CLI"><rect fill="#F1F1F1" height="46.2969" rx="2.5" ry="2.5" style="stroke:#181818;stroke-width:0.5;" width="95.7266" x="648" y="78.2969"/><rect fill="#F1F1F1" height="10" style="stroke:#181818;stroke-width:0.5;" width="15" x="723.7266" y="83.2969"/><rect fill="#F1F1F1" height="2" style="stroke:#181818;stroke-width:0.5;" width="4" x="721.7266" y="85.2969"/><rect fill="#F1F1F1" height="2" style="stroke:#181818;stroke-width:0.5;" width="4" x="721.7266" y="89.2969"/><text fill="#000000" font-family="sans-serif" font-size="14" lengthAdjust="spacing" textLength="55.7266" x="663" y="111.292">CLI Tool</text></g><!--entity Gateway--><g id="elem_Gateway"><rect fill="#F1F1F1" height="46.2969" rx="2.5" ry="2.5" style="stroke:#181818;stroke-width:0.5;" width="168.9053" x="483.5" y="199.2969"/><rect fill="#F1F1F1" height="10" style="stroke:#181818;stroke-width:0.5;" width="15" x="632.4053" y="204.2969"/><rect fill="#F1F1F1" height="2" style="stroke:#181818;stroke-width:0.5;" width="4" x="630.4053" y="206.2969"/><rect fill="#F1F1F1" height="2" style="stroke:#181818;stroke-width:0.5;" width="4" x="630.4053" y="210.2969"/><text fill="#000000" font-family="sans-serif" font-size="14" lengthAdjust="spacing" textLength="128.9053" x="498.5" y="232.292">REST API Gateway</text></g><!--entity GraphQL--><g id="elem_GraphQL"><rect fill="#F1F1F1" height="46.2969" rx="2.5" ry="2.5" style="stroke:#181818;stroke-width:0.5;" width="157.9541" x="291" y="199.2969"/><rect fill="#F1F1F1" height="10" style="stroke:#181818;stroke-width:0.5;" width="15" x="428.9541" y="204.2969"/><rect fill="#F1F1F1" height="2" style="stroke:#181818;stroke-width:0.5;" width="4" x="426.9541" y="206.2969"/><rect fill="#F1F1F1" height="2" style="stroke:#181818;stroke-width:0.5;" width="4" x="426.9541" y="210.2969"/><text fill="#000000" font-family="sans-serif" font-size="14" lengthAdjust="spacing" textLength="117.9541" x="306" y="232.292">GraphQL Service</text></g><!--entity Core--><g id="elem_Core"><rect fill="#F1F1F1" height="46.2969" rx="2.5" ry="2.5" style="stroke:#181818;stroke-width:0.5;" width="136.1953" x="302" y="320.2969"/><rect fill="#F1F1F1" height="10" style="stroke:#181818;stroke-width:0.5;" width="15" x="418.1953" y="325.2969"/><rect fill="#F1F1F1" height="2" style="stroke:#181818;stroke-width:0.5;" width="4" x="416.1953" y="327.2969"/><rect fill="#F1F1F1" height="2" style="stroke:#181818;stroke-width:0.5;" width="4" x="416.1953" y="331.2969"/><text fill="#000000" font-family="sans-serif" font-size="14" lengthAdjust="spacing" textLength="96.1953" x="317" y="353.292">Core Services</text></g><!--entity Domain--><g id="elem_Domain"><rect fill="#F1F1F1" height="46.2969" rx="2.5" ry="2.5" style="stroke:#181818;stroke-width:0.5;" width="135.6143" x="118" y="426.2969"/><rect fill="#F1F1F1" height="10" style="stroke:#181818;stroke-width:0.5;" width="15" x="233.6143" y="431.2969"/><rect fill="#F1F1F1" height="2" style="stroke:#181818;stroke-width:0.5;" width="4" x="231.6143" y="433.2969"/><rect fill="#F1F1F1" height="2" style="stroke:#181818;stroke-width:0.5;" width="4" x="231.6143" y="437.2969"/><text fill="#000000" font-family="sans-serif" font-size="14" lengthAdjust="spacing" textLength="95.6143" x="133" y="459.292">Domain Logic</text></g><!--entity Events--><g id="elem_Events"><rect fill="#F1F1F1" height="46.2969" rx="2.5" ry="2.5" style="stroke:#181818;stroke-width:0.5;" width="152.54" x="289.5" y="426.2969"/><rect fill="#F1F1F1" height="10" style="stroke:#181818;stroke-width:0.5;" width="15" x="422.04" y="431.2969"/><rect fill="#F1F1F1" height="2" style="stroke:#181818;stroke-width:0.5;" width="4" x="420.04" y="433.2969"/><rect fill="#F1F1F1" height="2" style="stroke:#181818;stroke-width:0.5;" width="4" x="420.04" y="437.2969"/><text fill="#000000" font-family="sans-serif" font-size="14" lengthAdjust="spacing" textLength="112.54" x="304.5" y="459.292">Event Processor</text></g><!--entity PG--><g id="elem_PG"><path d="M22.5,557.2969 C22.5,547.2969 72.8765,547.2969 72.8765,547.2969 C72.8765,547.2969 123.2529,547.2969 123.2529,557.2969 L123.2529,582.5938 C123.2529,592.5938 72.8765,592.5938 72.8765,592.5938 C72.8765,592.5938 22.5,592.5938 22.5,582.5938 L22.5,557.2969 " fill="#F1F1F1" style="stroke:#181818;stroke-width:0.5;"/><path d="M22.5,557.2969 C22.5,567.2969 72.8765,567.2969 72.8765,567.2969 C72.8765,567.2969 123.2529,567.2969 123.2529,557.2969 " fill="none" style="stroke:#181818;stroke-width:0.5;"/><text fill="#000000" font-family="sans-serif" font-size="14" lengthAdjust="spacing" textLength="80.7529" x="32.5" y="584.292">PostgreSQL</text></g><!--entity Redis--><g id="elem_Redis"><path d="M159,557.2969 C159,547.2969 212.1997,547.2969 212.1997,547.2969 C212.1997,547.2969 265.3994,547.2969 265.3994,557.2969 L265.3994,582.5938 C265.3994,592.5938 212.1997,592.5938 212.1997,592.5938 C212.1997,592.5938 159,592.5938 159,582.5938 L159,557.2969 " fill="#F1F1F1" style="stroke:#181818;stroke-width:0.5;"/><path d="M159,557.2969 C159,567.2969 212.1997,567.2969 212.1997,567.2969 C212.1997,567.2969 265.3994,567.2969 265.3994,557.2969 " fill="none" style="stroke:#181818;stroke-width:0.5;"/><text fill="#000000" font-family="sans-serif" font-size="14" lengthAdjust="spacing" textLength="86.3994" x="169" y="584.292">Redis Cache</text></g><!--entity MQ--><g id="elem_MQ"><path d="M305,556.7969 L426.8018,556.7969 C431.8018,556.7969 431.8018,569.9453 431.8018,569.9453 C431.8018,569.9453 431.8018,583.0938 426.8018,583.0938 L305,583.0938 C300,583.0938 300,569.9453 300,569.9453 C300,569.9453 300,556.7969 305,556.7969 " fill="#F1F1F1" style="stroke:#181818;stroke-width:0.5;"/><path d="M426.8018,556.7969 C421.8018,556.7969 421.8018,569.9453 421.8018,569.9453 C421.8018,583.0938 426.8018,583.0938 426.8018,583.0938 " fill="none" style="stroke:#181818;stroke-width:0.5;"/><text fill="#000000" font-family="sans-serif" font-size="14" lengthAdjust="spacing" textLength="111.8018" x="305" y="574.792">Message Queue</text></g><!--entity Storage--><g id="elem_Storage"><path d="M509.3478,434.8333 C513.5343,430.1658 517.2938,430.2297 520.638,435.7655 C523.412,430.0512 526.6531,428.787 531.3267,433.8881 C534.6048,428.8406 538.8406,427.857 542.621,433.3499 C546.3128,426.5893 550.7449,426.6889 554.9734,432.8362 C557.3862,427.3105 562.5936,426.6047 566.054,431.7482 C570.308,426.8248 574.2161,427.478 577.5978,432.7371 C580.908,427.6419 585.7624,428.3048 588.7286,433.1233 C592.9081,428.9506 596.548,428.5888 599.7273,434.2428 C603.0035,430.0021 606.2406,429.906 609.7413,433.9721 C613.6881,429.4203 618.6648,430.4788 621.2265,435.6143 C630.2466,436.9605 633.537,441.3406 629.1041,450.0355 C632.5377,458.3865 631.2676,463.5609 621.3341,464.9463 C619.4517,470.8467 615.5566,471.733 611.2826,467.2649 C606.9522,472.9552 602.9683,473.1463 598.4101,467.5241 C595.2614,473.8813 590.5874,472.7624 586.7875,468.2184 C584.0743,472.5866 580.1639,472.5331 577.6105,468.0527 C573.9401,475.6287 569.2792,474.817 564.1897,469.5338 C560.4931,473.2837 556.4019,472.5692 554.9102,467.2722 C552.1746,473.5271 546.6901,473.2233 543.0836,468.1841 C539.2039,472.7484 533.7373,472.2497 531.9348,466.0355 C528.617,472.6652 523.2006,471.8847 519.7786,466.1378 C516.2907,471.6718 511.4102,471.9582 508.2746,465.7915 C500.4009,461.7149 499.7997,456.9942 506.5234,451.1694 C499.9663,445.4627 500.3847,437.8567 509.3478,434.8333 " fill="#F1F1F1" style="stroke:#181818;stroke-width:0.5;"/><text fill="#000000" font-family="sans-serif" font-size="14" lengthAdjust="spacing" textLength="99.2168" x="514.5" y="454.292">Cloud Storage</text></g><!--entity Auth--><g id="elem_Auth"><path d="M672.7917,434.7637 C676.8724,427.2021 682.1572,427.6939 686.7869,434.2182 C690.0632,428.3894 696.2428,428.1755 699.6982,434.0202 C702.9867,426.5752 708.4631,426.2642 713.1318,432.6828 C717.541,425.6856 724.2338,424.7735 728.1586,433.156 C731.1073,427.3644 736.6873,428.0458 739.9233,432.8367 C744.2995,425.4616 751.0166,427.3147 754.7284,433.559 C758.9402,428.2674 765.8319,428.2228 768.3044,435.4458 C772.1811,429.5108 778.1248,428.9032 782.3571,435.0316 C790.8796,436.1136 796.404,443.0209 789.4454,450.9825 C793.2784,458.7037 792.1725,463.8484 782.5374,464.8704 C779.6303,473.0792 775.0693,473.7987 768.938,468.0008 C765.4778,475.3223 758.2149,474.1833 754.3556,468.4465 C749.7716,476.0172 745.1452,474.4737 740.5041,468.505 C736.7759,475.6293 731.6341,476.7957 726.446,469.977 C722.7679,475.4269 717.7412,475.8446 713.68,470.427 C708.9001,475.192 704.452,475.6956 701.0569,468.9133 C696.1398,476.2826 688.4125,475.7133 685.519,466.9627 C679.6173,473.2782 675.4015,471.0323 671.6179,464.6447 C663.7348,464.2805 659.0448,459.4068 663.0644,451.372 C658.1611,442.2127 663.1995,435.4331 672.7917,434.7637 " fill="#F1F1F1" style="stroke:#181818;stroke-width:0.5;"/><text fill="#000000" font-family="sans-serif" font-size="14" lengthAdjust="spacing" textLength="95.457" x="678.5" y="454.292">Auth Provider</text></g><!--link WebApp to Gateway--><g id="link_WebApp_Gateway"><path d="M417.36,124.3969 C450.49,145.7069 495.2934,174.5316 528.4634,195.8616 " fill="none" id="WebApp-to-Gateway" style="stroke:#181818;stroke-width:1.0;"/><polygon fill="#181818" points="533.51,199.1069,528.1036,190.8746,529.3045,196.4025,523.7766,197.6034,533.51,199.1069" style="stroke:#181818;stroke-width:1.0;"/></g><!--link Mobile to Gateway--><g id="link_Mobile_Gateway"><path d="M556.6,124.3969 C559.1,145.6369 562.1588,171.618 564.6688,192.948 " fill="none" id="Mobile-to-Gateway" style="stroke:#181818;stroke-width:1.0;"/><polygon fill="#181818" points="565.37,198.9069,568.2908,189.5011,564.7857,193.9411,560.3456,190.436,565.37,198.9069" style="stroke:#181818;stroke-width:1.0;"/></g><!--link CLI to Gateway--><g id="link_CLI_Gateway"><path d="M672.22,124.3969 C649.38,145.6369 619.4249,173.4922 596.4749,194.8222 " fill="none" id="CLI-to-Gateway" style="stroke:#181818;stroke-width:1.0;"/><polygon fill="#181818" points="592.08,198.9069,601.3955,195.7098,595.7424,195.503,595.9493,189.8499,592.08,198.9069" style="stroke:#181818;stroke-width:1.0;"/></g><!--link WebApp to GraphQL--><g id="link_WebApp_GraphQL"><path d="M380.59,124.3969 C378.26,145.6369 375.4315,171.6124 373.1015,192.9424 " fill="none" id="WebApp-to-GraphQL" style="stroke:#181818;stroke-width:1.0;"/><polygon fill="#181818" points="372.45,198.9069,377.4037,190.3945,372.9929,193.9364,369.451,189.5257,372.45,198.9069" style="stroke:#181818;stroke-width:1.0;"/></g><!--link Gateway to Core--><g id="link_Gateway_Core"><path d="M531.22,245.3969 C495.77,266.7069 447.563,295.6867 412.063,317.0167 " fill="none" id="Gateway-to-Core" style="stroke:#181818;stroke-width:1.0;"/><polygon fill="#181818" points="406.92,320.1069,416.6947,318.9003,411.2059,317.5317,412.5744,312.0429,406.92,320.1069" style="stroke:#181818;stroke-width:1.0;"/></g><!--link GraphQL to Core--><g id="link_GraphQL_Core"><path d="M370,245.3969 C370,266.6369 370,292.5769 370,313.9069 " fill="none" id="GraphQL-to-Core" style="stroke:#181818;stroke-width:1.0;"/><polygon fill="#181818" points="370,319.9069,374,310.9069,370,314.9069,366,310.9069,370,319.9069" style="stroke:#181818;stroke-width:1.0;"/></g><!--link Core to Domain--><g id="link_Core_Domain"><path d="M307.14,366.3969 C295.2,371.4069 283.01,377.0969 272,383.2969 C250.31,395.5169 232.5816,408.7626 216.0916,422.3426 " fill="none" id="Core-to-Domain" style="stroke:#181818;stroke-width:1.0;"/><polygon fill="#181818" points="211.46,426.1569,220.9502,423.5232,215.3197,422.9783,215.8645,417.3478,211.46,426.1569" style="stroke:#181818;stroke-width:1.0;"/></g><!--link Core to Events--><g id="link_Core_Events"><path d="M369.15,366.3569 C368.47,383.9969 367.7611,402.6413 367.0811,420.2813 " fill="none" id="Core-to-Events" style="stroke:#181818;stroke-width:1.0;"/><polygon fill="#181818" points="366.85,426.2769,371.1937,417.4376,367.0426,421.2806,363.1996,417.1295,366.85,426.2769" style="stroke:#181818;stroke-width:1.0;"/></g><!--link Domain to PG--><g id="link_Domain_PG"><path d="M165.01,472.3069 C144.71,493.5969 118.2803,521.3143 98.0203,542.5643 " fill="none" id="Domain-to-PG" style="stroke:#181818;stroke-width:1.0;"/><polygon fill="#181818" points="93.88,546.9069,102.9855,543.1532,97.3302,543.288,97.1954,537.6328,93.88,546.9069" style="stroke:#181818;stroke-width:1.0;"/></g><!--link Domain to Redis--><g id="link_Domain_Redis"><path d="M190.83,472.3069 C195.5,493.5969 201.2548,519.7961 205.9148,541.0461 " fill="none" id="Domain-to-Redis" style="stroke:#181818;stroke-width:1.0;"/><polygon fill="#181818" points="207.2,546.9069,209.1793,537.259,206.129,542.0229,201.365,538.9726,207.2,546.9069" style="stroke:#181818;stroke-width:1.0;"/></g><!--link Events to MQ--><g id="link_Events_MQ"><path d="M366,472.3069 C366,497.2069 366,530.8569 366,550.6869 " fill="none" id="Events-to-MQ" style="stroke:#181818;stroke-width:1.0;"/><polygon fill="#181818" points="366,556.6869,370,547.6869,366,551.6869,362,547.6869,366,556.6869" style="stroke:#181818;stroke-width:1.0;"/></g><!--link Core to Storage--><g id="link_Core_Storage"><path d="M423.76,366.3969 C435.52,371.6269 447.8,377.4169 459,383.2969 C483.86,396.3569 505.7474,409.8 526.0974,423.01 " fill="none" id="Core-to-Storage" style="stroke:#181818;stroke-width:1.0;"/><polygon fill="#181818" points="531.13,426.2769,525.759,418.0215,526.9361,423.5545,521.4031,424.7316,531.13,426.2769" style="stroke:#181818;stroke-width:1.0;"/></g><!--link Gateway to Auth--><g id="link_Gateway_Auth"><path d="M583.73,245.6969 C614.01,288.8169 676.6512,378.0271 706.8912,421.0771 " fill="none" id="Gateway-to-Auth" style="stroke:#181818;stroke-width:1.0;"/><polygon fill="#181818" points="710.34,425.9869,708.44,416.323,707.466,421.8954,701.8936,420.9214,710.34,425.9869" style="stroke:#181818;stroke-width:1.0;"/></g><!--SRC=[LLBBRi8m4BpdArQvzCGlL4e18QIW1eBKGzM32LjYDSIfxK1HrN_lxjg4v1JFpBudNli6eJIV_geiGcQhMdkiV4zW1dDpxaoBhOVN2zgBnckITAhwKYU4jB3eI59UcnPoTKERmcy2yFw61yYwhj6LQ1-W71175AiRSz3Kaf080R8mpzUmDwOHca3oDsgM5Uj9Zzsot0EJA-NngcwI5D-ihwpgwcqE9OzTOP03DwdxqZlTedEGcvEkOl6veUrZfWlZ4CFAmfoLRaEm285WQNdXEnNMK8upLbJXtAJXGdartkH8-A0StzCuVx9ORlEKSulLHDtXKTCSggfHPC4KyTrZJ_A6cdBzBKC9s6mdVPS_7cshcc6lqBvgJ7-4T2wVqXjBmP8Utu-GhFSrhtVHHvwTGfZX7aym-HMyOMEIu3ZCPi-3Bz7wCSMcZ_4uAzf5zTbeAditAudH4YRMtEqU2B6GKJHemD4IAZfOJvNPbIIQor5q_14AjmwPGj1jgS1mKjrwF5dPtZqwtIyu7bPEzWy0]--></g></svg>