<svg xmlns="http://www.w3.org/2000/svg" xmlns:xlink="http://www.w3.org/1999/xlink" contentStyleType="text/css" height="702px" preserveAspectRatio="none" style="width:1058px;height:702px;background:#FFFFFF;" version="1.1" viewBox="0 0 1058 702" width="1058px" zoomAndPan="magnify"><title>CI/CD Pipeline Sequence</title><defs/><g><text fill="#000000" font-family="sans-serif" font-size="14" font-weight="bold" lengthAdjust="spacing" textLength="192.6982" x="434.0823" y="27.9951">CI/CD Pipeline Sequence</text><rect fill="#FFFFFF" height="453.7969" style="stroke:#181818;stroke-width:1.0;" width="10" x="197.21" y="149.7266"/><rect fill="#FFFFFF" height="424.6641" style="stroke:#181818;stroke-width:1.0;" width="10" x="346.6484" y="178.8594"/><rect fill="#FFFFFF" height="29.1328" style="stroke:#181818;stroke-width:1.0;" width="10" x="506.5688" y="207.9922"/><rect fill="#FFFFFF" height="29.1328" style="stroke:#181818;stroke-width:1.0;" width="10" x="608.02" y="266.2578"/><rect fill="#FFFFFF" height="29.1328" style="stroke:#181818;stroke-width:1.0;" width="10" x="717.4351" y="324.5234"/><rect fill="#FFFFFF" height="29.1328" style="stroke:#181818;stroke-width:1.0;" width="10" x="854.8262" y="406.9219"/><rect fill="#FFFFFF" height="29.1328" style="stroke:#181818;stroke-width:1.0;" width="10" x="987.0459" y="465.1875"/><rect fill="none" height="206.7344" style="stroke:#000000;stroke-width:1.5;" width="890.9102" x="160.9526" y="368.6563"/><line style="stroke:#181818;stroke-width:0.5;stroke-dasharray:5.0,5.0;" x1="44" x2="44" y1="118.5938" y2="621.5234"/><line style="stroke:#181818;stroke-width:0.5;stroke-dasharray:5.0,5.0;" x1="201.9526" x2="201.9526" y1="118.5938" y2="621.5234"/><line style="stroke:#181818;stroke-width:0.5;stroke-dasharray:5.0,5.0;" x1="351.3726" x2="351.3726" y1="118.5938" y2="621.5234"/><line style="stroke:#181818;stroke-width:0.5;stroke-dasharray:5.0,5.0;" x1="511.5444" x2="511.5444" y1="118.5938" y2="621.5234"/><line style="stroke:#181818;stroke-width:0.5;stroke-dasharray:5.0,5.0;" x1="612.5933" x2="612.5933" y1="118.5938" y2="621.5234"/><line style="stroke:#181818;stroke-width:0.5;stroke-dasharray:5.0,5.0;" x1="721.4468" x2="721.4468" y1="118.5938" y2="621.5234"/><line style="stroke:#181818;stroke-width:0.5;stroke-dasharray:5.0,5.0;" x1="859.4233" x2="859.4233" y1="118.5938" y2="621.5234"/><line style="stroke:#181818;stroke-width:0.5;stroke-dasharray:5.0,5.0;" x1="991.229" x2="991.229" y1="118.5938" y2="621.5234"/><text fill="#000000" font-family="sans-serif" font-size="14" lengthAdjust="spacing" textLength="72.0029" x="5" y="115.292">Developer</text><ellipse cx="44.0015" cy="50.7969" fill="#E2E2F0" rx="8" ry="8" style="stroke:#181818;stroke-width:0.5;"/><path d="M44.0015,58.7969 L44.0015,85.7969 M31.0015,66.7969 L57.0015,66.7969 M44.0015,85.7969 L31.0015,100.7969 M44.0015,85.7969 L57.0015,100.7969 " fill="none" style="stroke:#181818;stroke-width:0.5;"/><text fill="#000000" font-family="sans-serif" font-size="14" lengthAdjust="spacing" textLength="72.0029" x="5" y="633.5186">Developer</text><ellipse cx="44.0015" cy="645.3203" fill="#E2E2F0" rx="8" ry="8" style="stroke:#181818;stroke-width:0.5;"/><path d="M44.0015,653.3203 L44.0015,680.3203 M31.0015,661.3203 L57.0015,661.3203 M44.0015,680.3203 L31.0015,695.3203 M44.0015,680.3203 L57.0015,695.3203 " fill="none" style="stroke:#181818;stroke-width:0.5;"/><rect fill="#E2E2F0" height="30.2969" rx="2.5" ry="2.5" style="stroke:#181818;stroke-width:0.5;" width="62.5146" x="170.9526" y="87.2969"/><text fill="#000000" font-family="sans-serif" font-size="14" lengthAdjust="spacing" textLength="48.5146" x="177.9526" y="107.292">GitHub</text><rect fill="#E2E2F0" height="30.2969" rx="2.5" ry="2.5" style="stroke:#181818;stroke-width:0.5;" width="62.5146" x="170.9526" y="620.5234"/><text fill="#000000" font-family="sans-serif" font-size="14" lengthAdjust="spacing" textLength="48.5146" x="177.9526" y="640.5186">GitHub</text><rect fill="#E2E2F0" height="30.2969" rx="2.5" ry="2.5" style="stroke:#181818;stroke-width:0.5;" width="120.5518" x="291.3726" y="87.2969"/><text fill="#000000" font-family="sans-serif" font-size="14" lengthAdjust="spacing" textLength="106.5518" x="298.3726" y="107.292">Actions Runner</text><rect fill="#E2E2F0" height="30.2969" rx="2.5" ry="2.5" style="stroke:#181818;stroke-width:0.5;" width="120.5518" x="291.3726" y="620.5234"/><text fill="#000000" font-family="sans-serif" font-size="14" lengthAdjust="spacing" textLength="106.5518" x="298.3726" y="640.5186">Actions Runner</text><rect fill="#E2E2F0" height="30.2969" rx="2.5" ry="2.5" style="stroke:#181818;stroke-width:0.5;" width="94.0488" x="464.5444" y="87.2969"/><text fill="#000000" font-family="sans-serif" font-size="14" lengthAdjust="spacing" textLength="80.0488" x="471.5444" y="107.292">Build Stage</text><rect fill="#E2E2F0" height="30.2969" rx="2.5" ry="2.5" style="stroke:#181818;stroke-width:0.5;" width="94.0488" x="464.5444" y="620.5234"/><text fill="#000000" font-family="sans-serif" font-size="14" lengthAdjust="spacing" textLength="80.0488" x="471.5444" y="640.5186">Build Stage</text><rect fill="#E2E2F0" height="30.2969" rx="2.5" ry="2.5" style="stroke:#181818;stroke-width:0.5;" width="88.8535" x="568.5933" y="87.2969"/><text fill="#000000" font-family="sans-serif" font-size="14" lengthAdjust="spacing" textLength="74.8535" x="575.5933" y="107.292">Test Stage</text><rect fill="#E2E2F0" height="30.2969" rx="2.5" ry="2.5" style="stroke:#181818;stroke-width:0.5;" width="88.8535" x="568.5933" y="620.5234"/><text fill="#000000" font-family="sans-serif" font-size="14" lengthAdjust="spacing" textLength="74.8535" x="575.5933" y="640.5186">Test Stage</text><rect fill="#E2E2F0" height="30.2969" rx="2.5" ry="2.5" style="stroke:#181818;stroke-width:0.5;" width="109.9766" x="667.4468" y="87.2969"/><text fill="#000000" font-family="sans-serif" font-size="14" lengthAdjust="spacing" textLength="95.9766" x="674.4468" y="107.292">Security Scan</text><rect fill="#E2E2F0" height="30.2969" rx="2.5" ry="2.5" style="stroke:#181818;stroke-width:0.5;" width="109.9766" x="667.4468" y="620.5234"/><text fill="#000000" font-family="sans-serif" font-size="14" lengthAdjust="spacing" textLength="95.9766" x="674.4468" y="640.5186">Security Scan</text><rect fill="#E2E2F0" height="30.2969" rx="2.5" ry="2.5" style="stroke:#181818;stroke-width:0.5;" width="144.8057" x="787.4233" y="87.2969"/><text fill="#000000" font-family="sans-serif" font-size="14" lengthAdjust="spacing" textLength="130.8057" x="794.4233" y="107.292">Container Registry</text><rect fill="#E2E2F0" height="30.2969" rx="2.5" ry="2.5" style="stroke:#181818;stroke-width:0.5;" width="144.8057" x="787.4233" y="620.5234"/><text fill="#000000" font-family="sans-serif" font-size="14" lengthAdjust="spacing" textLength="130.8057" x="794.4233" y="640.5186">Container Registry</text><rect fill="#E2E2F0" height="30.2969" rx="2.5" ry="2.5" style="stroke:#181818;stroke-width:0.5;" width="99.6338" x="942.229" y="87.2969"/><text fill="#000000" font-family="sans-serif" font-size="14" lengthAdjust="spacing" textLength="85.6338" x="949.229" y="107.292">Deployment</text><rect fill="#E2E2F0" height="30.2969" rx="2.5" ry="2.5" style="stroke:#181818;stroke-width:0.5;" width="99.6338" x="942.229" y="620.5234"/><text fill="#000000" font-family="sans-serif" font-size="14" lengthAdjust="spacing" textLength="85.6338" x="949.229" y="640.5186">Deployment</text><rect fill="#FFFFFF" height="453.7969" style="stroke:#181818;stroke-width:1.0;" width="10" x="197.21" y="149.7266"/><rect fill="#FFFFFF" height="424.6641" style="stroke:#181818;stroke-width:1.0;" width="10" x="346.6484" y="178.8594"/><rect fill="#FFFFFF" height="29.1328" style="stroke:#181818;stroke-width:1.0;" width="10" x="506.5688" y="207.9922"/><rect fill="#FFFFFF" height="29.1328" style="stroke:#181818;stroke-width:1.0;" width="10" x="608.02" y="266.2578"/><rect fill="#FFFFFF" height="29.1328" style="stroke:#181818;stroke-width:1.0;" width="10" x="717.4351" y="324.5234"/><rect fill="#FFFFFF" height="29.1328" style="stroke:#181818;stroke-width:1.0;" width="10" x="854.8262" y="406.9219"/><rect fill="#FFFFFF" height="29.1328" style="stroke:#181818;stroke-width:1.0;" width="10" x="987.0459" y="465.1875"/><polygon fill="#181818" points="185.21,145.7266,195.21,149.7266,185.21,153.7266,189.21,149.7266" style="stroke:#181818;stroke-width:1.0;"/><line style="stroke:#181818;stroke-width:1.0;" x1="44.0015" x2="191.21" y1="149.7266" y2="149.7266"/><text fill="#000000" font-family="sans-serif" font-size="13" lengthAdjust="spacing" textLength="134.2085" x="51.0015" y="144.6606">Push to main branch</text><polygon fill="#181818" points="334.6484,174.8594,344.6484,178.8594,334.6484,182.8594,338.6484,178.8594" style="stroke:#181818;stroke-width:1.0;"/><line style="stroke:#181818;stroke-width:1.0;" x1="207.21" x2="340.6484" y1="178.8594" y2="178.8594"/><text fill="#000000" font-family="sans-serif" font-size="13" lengthAdjust="spacing" textLength="109.1099" x="214.21" y="173.7935">Trigger workflow</text><polygon fill="#181818" points="494.5688,203.9922,504.5688,207.9922,494.5688,211.9922,498.5688,207.9922" style="stroke:#181818;stroke-width:1.0;"/><line style="stroke:#181818;stroke-width:1.0;" x1="356.6484" x2="500.5688" y1="207.9922" y2="207.9922"/><text fill="#000000" font-family="sans-serif" font-size="13" lengthAdjust="spacing" textLength="130.9204" x="363.6484" y="202.9263">Checkout &amp; compile</text><polygon fill="#181818" points="367.6484,233.125,357.6484,237.125,367.6484,241.125,363.6484,237.125" style="stroke:#181818;stroke-width:1.0;"/><line style="stroke:#181818;stroke-width:1.0;stroke-dasharray:2.0,2.0;" x1="361.6484" x2="510.5688" y1="237.125" y2="237.125"/><text fill="#000000" font-family="sans-serif" font-size="13" lengthAdjust="spacing" textLength="90.3462" x="373.6484" y="232.0591">Build artifacts</text><polygon fill="#181818" points="596.02,262.2578,606.02,266.2578,596.02,270.2578,600.02,266.2578" style="stroke:#181818;stroke-width:1.0;"/><line style="stroke:#181818;stroke-width:1.0;" x1="356.6484" x2="602.02" y1="266.2578" y2="266.2578"/><text fill="#000000" font-family="sans-serif" font-size="13" lengthAdjust="spacing" textLength="97.2334" x="363.6484" y="261.1919">Run test suites</text><polygon fill="#181818" points="367.6484,291.3906,357.6484,295.3906,367.6484,299.3906,363.6484,295.3906" style="stroke:#181818;stroke-width:1.0;"/><line style="stroke:#181818;stroke-width:1.0;stroke-dasharray:2.0,2.0;" x1="361.6484" x2="612.02" y1="295.3906" y2="295.3906"/><text fill="#000000" font-family="sans-serif" font-size="13" lengthAdjust="spacing" textLength="75.7783" x="373.6484" y="290.3247">Test results</text><polygon fill="#181818" points="705.4351,320.5234,715.4351,324.5234,705.4351,328.5234,709.4351,324.5234" style="stroke:#181818;stroke-width:1.0;"/><line style="stroke:#181818;stroke-width:1.0;" x1="356.6484" x2="711.4351" y1="324.5234" y2="324.5234"/><text fill="#000000" font-family="sans-serif" font-size="13" lengthAdjust="spacing" textLength="162.0684" x="363.6484" y="319.4575">SAST / Dependency scan</text><polygon fill="#181818" points="367.6484,349.6563,357.6484,353.6563,367.6484,357.6563,363.6484,353.6563" style="stroke:#181818;stroke-width:1.0;"/><line style="stroke:#181818;stroke-width:1.0;stroke-dasharray:2.0,2.0;" x1="361.6484" x2="721.4351" y1="353.6563" y2="353.6563"/><text fill="#000000" font-family="sans-serif" font-size="13" lengthAdjust="spacing" textLength="97.5063" x="373.6484" y="348.5903">Security report</text><path d="M160.9526,368.6563 L225.3955,368.6563 L225.3955,375.7891 L215.3955,385.7891 L160.9526,385.7891 L160.9526,368.6563 " fill="#EEEEEE" style="stroke:#000000;stroke-width:1.5;"/><rect fill="none" height="206.7344" style="stroke:#000000;stroke-width:1.5;" width="890.9102" x="160.9526" y="368.6563"/><text fill="#000000" font-family="sans-serif" font-size="13" font-weight="bold" lengthAdjust="spacing" textLength="19.4429" x="175.9526" y="381.7231">alt</text><text fill="#000000" font-family="sans-serif" font-size="11" font-weight="bold" lengthAdjust="spacing" textLength="104.355" x="240.3955" y="380.8667">[All checks pass]</text><polygon fill="#181818" points="842.8262,402.9219,852.8262,406.9219,842.8262,410.9219,846.8262,406.9219" style="stroke:#181818;stroke-width:1.0;"/><line style="stroke:#181818;stroke-width:1.0;" x1="356.6484" x2="848.8262" y1="406.9219" y2="406.9219"/><text fill="#000000" font-family="sans-serif" font-size="13" lengthAdjust="spacing" textLength="141.4448" x="363.6484" y="401.856">Push container image</text><polygon fill="#181818" points="367.6484,432.0547,357.6484,436.0547,367.6484,440.0547,363.6484,436.0547" style="stroke:#181818;stroke-width:1.0;"/><line style="stroke:#181818;stroke-width:1.0;stroke-dasharray:2.0,2.0;" x1="361.6484" x2="858.8262" y1="436.0547" y2="436.0547"/><text fill="#000000" font-family="sans-serif" font-size="13" lengthAdjust="spacing" textLength="84.8301" x="373.6484" y="430.9888">Image digest</text><polygon fill="#181818" points="975.0459,461.1875,985.0459,465.1875,975.0459,469.1875,979.0459,465.1875" style="stroke:#181818;stroke-width:1.0;"/><line style="stroke:#181818;stroke-width:1.0;" x1="356.6484" x2="981.0459" y1="465.1875" y2="465.1875"/><text fill="#000000" font-family="sans-serif" font-size="13" lengthAdjust="spacing" textLength="149.9126" x="363.6484" y="460.1216">Deploy to environment</text><polygon fill="#181818" points="367.6484,490.3203,357.6484,494.3203,367.6484,498.3203,363.6484,494.3203" style="stroke:#181818;stroke-width:1.0;"/><line style="stroke:#181818;stroke-width:1.0;stroke-dasharray:2.0,2.0;" x1="361.6484" x2="991.0459" y1="494.3203" y2="494.3203"/><text fill="#000000" font-family="sans-serif" font-size="13" lengthAdjust="spacing" textLength="123.5952" x="373.6484" y="489.2544">Deployment status</text><polygon fill="#181818" points="218.21,519.4531,208.21,523.4531,218.21,527.4531,214.21,523.4531" style="stroke:#181818;stroke-width:1.0;"/><line style="stroke:#181818;stroke-width:1.0;stroke-dasharray:2.0,2.0;" x1="212.21" x2="345.6484" y1="523.4531" y2="523.4531"/><text fill="#000000" font-family="sans-serif" font-size="13" lengthAdjust="spacing" textLength="115.4385" x="224.21" y="518.3872">Workflow success</text><line style="stroke:#000000;stroke-width:1.0;stroke-dasharray:2.0,2.0;" x1="160.9526" x2="1051.8628" y1="532.4531" y2="532.4531"/><text fill="#000000" font-family="sans-serif" font-size="11" font-weight="bold" lengthAdjust="spacing" textLength="92.7158" x="165.9526" y="542.6636">[Checks failed]</text><polygon fill="#181818" points="218.21,563.3906,208.21,567.3906,218.21,571.3906,214.21,567.3906" style="stroke:#181818;stroke-width:1.0;"/><line style="stroke:#181818;stroke-width:1.0;stroke-dasharray:2.0,2.0;" x1="212.21" x2="345.6484" y1="567.3906" y2="567.3906"/><text fill="#000000" font-family="sans-serif" font-size="13" lengthAdjust="spacing" textLength="100.604" x="224.21" y="562.3247">Workflow failed</text><polygon fill="#181818" points="55.0015,599.5234,45.0015,603.5234,55.0015,607.5234,51.0015,603.5234" style="stroke:#181818;stroke-width:1.0;"/><line style="stroke:#181818;stroke-width:1.0;stroke-dasharray:2.0,2.0;" x1="49.0015" x2="201.21" y1="603.5234" y2="603.5234"/><text fill="#000000" font-family="sans-serif" font-size="13" lengthAdjust="spacing" textLength="118.6631" x="61.0015" y="598.4575">Status notification</text><!--SRC=[VLCzRyCW4Dtv5QSEtQhk7YgbYPHqY-f8dIc-EAW4N3XIvT-NBzlGeHFc_8x7lVSWIGfX-_QytS5HJgYaHkZnswCMo1WNP2piy8RAJ6ZPn2r98IUk2HxsaWx-ym6uW_sX_RKH98rsyEwrHfiW-RE5lNgf1kY9ZvWmQTz2JkYeGiHj2-XHU2lf3htWEc7cIelR6aqyJ6VX7KVfoDxpjSgc1UzmKkP-HKq9bBUCBKB0qqkOkOEZTnSW0zTmCdnQhiKbQYPld32AmlQ72CspTt2oSXn3zu-nNsTbVbPiKOVbDVOaBJhONb1y6K_m2C9S9wbmRSfoPH6VAffSYVES0zQn0V-qL3HHq2vs0aMbdPTXNIcItic3cY0LB3glsjCJkZfyTgA3VjEVu3aAYNe8sRg32tQjF8jdYvqrtrAqE1bBDUNIoBWYs2W58YhcOEBECO3rChFJnJMnv45UGxe2T3LZpWGidyrrtc8337ACum9Kjwaw6-uSeAwiCJ6eRz8Q7IDMKvUamOoiQTTGWYDEthNSIsl5N6BwKV8Mx1K2Wowe7EPeEJZp4AhXdwO22CRbFATvoaFeujiCLm5jGjgauF7Tr_wKO5ULy2n-0G00]--></g></svg>