<svg xmlns="http://www.w3.org/2000/svg" xmlns:xlink="http://www.w3.org/1999/xlink" version="1.1" data-diagram-type="DESCRIPTION" style="width:935px;height:413px;" width="935px" height="413px" viewBox="0 0 935 413" zoomAndPan="magnify" preserveAspectRatio="none" contentStyleType="text/css"><?plantuml 1.2026.7?><defs/><g font-family="sans-serif" lengthAdjust="spacing"><g class="title" data-source-line="2"><text x="366.842" y="27.104" fill="#1F3B73" font-size="16" textLength="194.816" font-weight="700" font-family="'Helvetica'">Deployment Constraints</text></g><!--cluster resource--><g class="cluster" data-qualified-name="resource" id="ent0001" data-source-line="6"><rect x="207.5" y="97.792" width="278" height="289.5" fill="#F7F7F2" style="stroke:#B8B8B0;stroke-width:1;" rx="3" ry="3"/><text x="282.672" y="112.62" fill="#2D2D2D" font-size="12" textLength="127.657" font-weight="700" font-family="'Helvetica'">Resource Constraints</text></g><!--cluster affinity--><g class="cluster" data-qualified-name="affinity" id="ent0007" data-source-line="15"><rect x="509.5" y="58.292" width="204" height="341" fill="#F7F7F2" style="stroke:#B8B8B0;stroke-width:1;" rx="3" ry="3"/><text x="546.646" y="73.12" fill="#2D2D2D" font-size="12" textLength="129.709" font-weight="700" font-family="'Helvetica'">Affinity / Anti-Affinity</text></g><!--cluster srvA--><g class="cluster" data-qualified-name="affinity.srvA" id="ent0008" data-source-line="16"><polygon points="533.5,111.292,543.5,101.292,658.5,101.292,658.5,186.292,648.5,196.292,533.5,196.292,533.5,111.292" fill="#ECEEE8" style="stroke:#4A6FA5;stroke-width:1;stroke-linejoin:miter;stroke-miterlimit:10;"/><line x1="648.5" y1="111.292" x2="658.5" y2="101.292" style="stroke:#4A6FA5;stroke-width:1;"/><line x1="533.5" y1="111.292" x2="648.5" y2="111.292" style="stroke:#4A6FA5;stroke-width:1;"/><line x1="648.5" y1="111.292" x2="648.5" y2="196.292" style="stroke:#4A6FA5;stroke-width:1;"/><text x="567.04" y="127.12" fill="#2D2D2D" font-size="12" textLength="49.92" font-weight="700" font-family="'Helvetica'">Server A</text></g><!--cluster srvB--><g class="cluster" data-qualified-name="affinity.srvB" id="ent0010" data-source-line="19"><polygon points="533.5,290.292,543.5,280.292,658.5,280.292,658.5,365.292,648.5,375.292,533.5,375.292,533.5,290.292" fill="#ECEEE8" style="stroke:#4A6FA5;stroke-width:1;stroke-linejoin:miter;stroke-miterlimit:10;"/><line x1="648.5" y1="290.292" x2="658.5" y2="280.292" style="stroke:#4A6FA5;stroke-width:1;"/><line x1="533.5" y1="290.292" x2="648.5" y2="290.292" style="stroke:#4A6FA5;stroke-width:1;"/><line x1="648.5" y1="290.292" x2="648.5" y2="375.292" style="stroke:#4A6FA5;stroke-width:1;"/><text x="567.148" y="306.12" fill="#2D2D2D" font-size="12" textLength="49.704" font-weight="700" font-family="'Helvetica'">Server B</text></g><!--cluster regulatory--><g class="cluster" data-qualified-name="regulatory" id="ent0013" data-source-line="26"><rect x="737.5" y="49.792" width="184" height="329" fill="#F7F7F2" style="stroke:#B8B8B0;stroke-width:1;" rx="3" ry="3"/><text x="760.014" y="64.62" fill="#2D2D2D" font-size="12" textLength="138.973" font-weight="700" font-family="'Helvetica'">Regulatory Constraints</text></g><!--cluster euRegion--><g class="cluster" data-qualified-name="regulatory.euRegion" id="ent0014" data-source-line="27"><polygon points="761.5,102.792,771.5,92.792,897.5,92.792,897.5,194.792,887.5,204.792,761.5,204.792,761.5,102.792" fill="#ECEEE8" style="stroke:#4A6FA5;stroke-width:1;stroke-linejoin:miter;stroke-miterlimit:10;"/><line x1="887.5" y1="102.792" x2="897.5" y2="92.792" style="stroke:#4A6FA5;stroke-width:1;"/><line x1="761.5" y1="102.792" x2="887.5" y2="102.792" style="stroke:#4A6FA5;stroke-width:1;"/><line x1="887.5" y1="102.792" x2="887.5" y2="204.792" style="stroke:#4A6FA5;stroke-width:1;"/><text x="795.254" y="118.62" fill="#2D2D2D" font-size="12" textLength="60.492" font-weight="700" font-family="'Helvetica'">EU Region</text></g><!--entity svc8gb--><g class="entity" data-qualified-name="resource.svc8gb" id="ent0002" data-source-line="7"><rect x="273" y="132.792" width="126.937" height="55.688" fill="#F7F7F2" style="stroke:#4A6FA5;stroke-width:0.5;" rx="3" ry="3"/><polygon points="382.937,137.792,382.937,151.792,394.937,151.792,394.937,143.792,388.937,137.792,382.937,137.792" fill="#F7F7F2" style="stroke:#4A6FA5;stroke-width:0.5;stroke-linejoin:miter;stroke-miterlimit:10;"/><line x1="388.937" y1="137.792" x2="388.937" y2="143.792" style="stroke:#4A6FA5;stroke-width:0.5;"/><line x1="394.937" y1="143.792" x2="388.937" y2="143.792" style="stroke:#4A6FA5;stroke-width:0.5;"/><text x="311.452" y="158.62" fill="#2D2D2D" font-size="12" textLength="40.032" font-family="'Helvetica'">Service</text><text x="283" y="174.964" fill="#2D2D2D" font-size="12" textLength="37.68" font-family="'Helvetica'">(needs</text><text x="320.68" y="174.964" fill="#2D2D2D" font-size="12" font-family="'Helvetica'"> </text><text x="323.8" y="174.964" fill="#2D2D2D" font-size="12" textLength="23.4" font-family="'Helvetica'">8GB</text><text x="347.2" y="174.964" fill="#2D2D2D" font-size="12" font-family="'Helvetica'"> </text><text x="350.32" y="174.964" fill="#2D2D2D" font-size="12" textLength="29.616" font-family="'Helvetica'">RAM)</text></g><!--entity smallNode--><g class="entity" data-qualified-name="resource.smallNode" id="ent0003" data-source-line="8"><polygon points="223.5,318.292,233.5,308.292,327.88,308.292,327.88,360.98,317.88,370.98,223.5,370.98,223.5,318.292" fill="#ECEEE8" style="stroke:#1F3B73;stroke-width:0.5;stroke-linejoin:miter;stroke-miterlimit:10;"/><line x1="317.88" y1="318.292" x2="327.88" y2="308.292" style="stroke:#1F3B73;stroke-width:0.5;"/><line x1="223.5" y1="318.292" x2="317.88" y2="318.292" style="stroke:#1F3B73;stroke-width:0.5;"/><line x1="317.88" y1="318.292" x2="317.88" y2="370.98" style="stroke:#1F3B73;stroke-width:0.5;"/><text x="238.5" y="341.12" fill="#2D2D2D" font-size="12" textLength="30.732" font-family="'Helvetica'">Small</text><text x="269.232" y="341.12" fill="#2D2D2D" font-size="12" font-family="'Helvetica'"> </text><text x="272.352" y="341.12" fill="#2D2D2D" font-size="12" textLength="30.528" font-family="'Helvetica'">Node</text><text x="240.822" y="357.464" fill="#2D2D2D" font-size="12" textLength="27" font-family="'Helvetica'">(4GB</text><text x="267.822" y="357.464" fill="#2D2D2D" font-size="12" font-family="'Helvetica'"> </text><text x="270.942" y="357.464" fill="#2D2D2D" font-size="12" textLength="29.616" font-family="'Helvetica'">RAM)</text></g><!--entity largeNode--><g class="entity" data-qualified-name="resource.largeNode" id="ent0004" data-source-line="9"><polygon points="363,318.292,373,308.292,469.6,308.292,469.6,360.98,459.6,370.98,363,370.98,363,318.292" fill="#ECEEE8" style="stroke:#1F3B73;stroke-width:0.5;stroke-linejoin:miter;stroke-miterlimit:10;"/><line x1="459.6" y1="318.292" x2="469.6" y2="308.292" style="stroke:#1F3B73;stroke-width:0.5;"/><line x1="363" y1="318.292" x2="459.6" y2="318.292" style="stroke:#1F3B73;stroke-width:0.5;"/><line x1="459.6" y1="318.292" x2="459.6" y2="370.98" style="stroke:#1F3B73;stroke-width:0.5;"/><text x="378.414" y="341.12" fill="#2D2D2D" font-size="12" textLength="32.124" font-family="'Helvetica'">Large</text><text x="410.538" y="341.12" fill="#2D2D2D" font-size="12" font-family="'Helvetica'"> </text><text x="413.658" y="341.12" fill="#2D2D2D" font-size="12" textLength="30.528" font-family="'Helvetica'">Node</text><text x="378" y="357.464" fill="#2D2D2D" font-size="12" textLength="33.864" font-family="'Helvetica'">(16GB</text><text x="411.864" y="357.464" fill="#2D2D2D" font-size="12" font-family="'Helvetica'"> </text><text x="414.984" y="357.464" fill="#2D2D2D" font-size="12" textLength="29.616" font-family="'Helvetica'">RAM)</text></g><!--entity primary--><g class="entity" data-qualified-name="affinity.srvA.primary" id="ent0009" data-source-line="17"><rect x="549.5" y="141.292" width="74.34" height="39.344" fill="#F7F7F2" style="stroke:#4A6FA5;stroke-width:0.5;" rx="3" ry="3"/><polygon points="606.84,146.292,606.84,160.292,618.84,160.292,618.84,152.292,612.84,146.292,606.84,146.292" fill="#F7F7F2" style="stroke:#4A6FA5;stroke-width:0.5;stroke-linejoin:miter;stroke-miterlimit:10;"/><line x1="612.84" y1="146.292" x2="612.84" y2="152.292" style="stroke:#4A6FA5;stroke-width:0.5;"/><line x1="618.84" y1="152.292" x2="612.84" y2="152.292" style="stroke:#4A6FA5;stroke-width:0.5;"/><text x="559.5" y="167.12" fill="#2D2D2D" font-size="12" textLength="44.34" font-family="'Helvetica'">Primary</text></g><!--entity replica--><g class="entity" data-qualified-name="affinity.srvB.replica" id="ent0011" data-source-line="20"><rect x="549.5" y="320.292" width="70.296" height="39.344" fill="#F7F7F2" style="stroke:#4A6FA5;stroke-width:0.5;" rx="3" ry="3"/><polygon points="602.796,325.292,602.796,339.292,614.796,339.292,614.796,331.292,608.796,325.292,602.796,325.292" fill="#F7F7F2" style="stroke:#4A6FA5;stroke-width:0.5;stroke-linejoin:miter;stroke-miterlimit:10;"/><line x1="608.796" y1="325.292" x2="608.796" y2="331.292" style="stroke:#4A6FA5;stroke-width:0.5;"/><line x1="614.796" y1="331.292" x2="608.796" y2="331.292" style="stroke:#4A6FA5;stroke-width:0.5;"/><text x="559.5" y="346.12" fill="#2D2D2D" font-size="12" textLength="40.296" font-family="'Helvetica'">Replica</text></g><!--entity usRegion--><g class="entity" data-qualified-name="regulatory.usRegion" id="ent0016" data-source-line="30"><polygon points="775.5,326.792,785.5,316.792,873.364,316.792,873.364,353.136,863.364,363.136,775.5,363.136,775.5,326.792" fill="#ECEEE8" style="stroke:#1F3B73;stroke-width:0.5;stroke-linejoin:miter;stroke-miterlimit:10;"/><line x1="863.364" y1="326.792" x2="873.364" y2="316.792" style="stroke:#1F3B73;stroke-width:0.5;"/><line x1="775.5" y1="326.792" x2="863.364" y2="326.792" style="stroke:#1F3B73;stroke-width:0.5;"/><line x1="863.364" y1="326.792" x2="863.364" y2="363.136" style="stroke:#1F3B73;stroke-width:0.5;"/><text x="790.5" y="349.62" fill="#2D2D2D" font-size="12" textLength="15.36" font-family="'Helvetica'">US</text><text x="805.86" y="349.62" fill="#2D2D2D" font-size="12" font-family="'Helvetica'"> </text><text x="808.98" y="349.62" fill="#2D2D2D" font-size="12" textLength="39.384" font-family="'Helvetica'">Region</text></g><!--entity euData--><g class="entity" data-qualified-name="regulatory.euRegion.euData" id="ent0015" data-source-line="28"><rect x="777.5" y="132.792" width="99.708" height="55.688" fill="#F7F7F2" style="stroke:#4A6FA5;stroke-width:0.5;" rx="3" ry="3"/><polygon points="860.208,137.792,860.208,151.792,872.208,151.792,872.208,143.792,866.208,137.792,860.208,137.792" fill="#F7F7F2" style="stroke:#4A6FA5;stroke-width:0.5;stroke-linejoin:miter;stroke-miterlimit:10;"/><line x1="866.208" y1="137.792" x2="866.208" y2="143.792" style="stroke:#4A6FA5;stroke-width:0.5;"/><line x1="872.208" y1="143.792" x2="866.208" y2="143.792" style="stroke:#4A6FA5;stroke-width:0.5;"/><text x="799.95" y="158.62" fill="#2D2D2D" font-size="12" textLength="15.444" font-family="'Helvetica'">EU</text><text x="815.394" y="158.62" fill="#2D2D2D" font-size="12" font-family="'Helvetica'"> </text><text x="818.514" y="158.62" fill="#2D2D2D" font-size="12" textLength="26.244" font-family="'Helvetica'">User</text><text x="787.5" y="174.964" fill="#2D2D2D" font-size="12" textLength="26.556" font-family="'Helvetica'">Data</text><text x="814.056" y="174.964" fill="#2D2D2D" font-size="12" font-family="'Helvetica'"> </text><text x="817.176" y="174.964" fill="#2D2D2D" font-size="12" textLength="40.032" font-family="'Helvetica'">Service</text></g><g class="entity" data-qualified-name="constraintNote" id="ent0018" data-source-line="36"><path d="M6,121.292 L6,200.201 A3,3 0 0 0 9,203.201 L188.174,203.201 A3,3 0 0 0 191.174,200.201 L191.174,128.292 L181.174,118.292 L9,118.292 A3,3 0 0 0 6,121.292" style="stroke:#B8B8B0;stroke-width:0.5;" fill="#F7F7F2"/><path d="M181.174,118.292 L181.174,126.792 A1.5,1.5 0 0 0 182.674,128.292 L191.174,128.292 L181.174,118.292" style="stroke:#B8B8B0;stroke-width:1;" fill="#F7F7F2"/><text x="43.658" y="135.051" fill="#2D2D2D" font-size="11" textLength="59.235" font-family="'Helvetica'">Constraints</text><text x="102.892" y="135.051" fill="#2D2D2D" font-size="11" font-family="'Helvetica'"> </text><text x="105.752" y="135.051" fill="#2D2D2D" font-size="11" textLength="38.764" font-family="'Helvetica'">ensure:</text><text x="12" y="150.033" fill="#2D2D2D" font-size="11" textLength="47.795" font-family="'Helvetica'">Resource</text><text x="59.795" y="150.033" fill="#2D2D2D" font-size="11" font-family="'Helvetica'"> </text><text x="62.655" y="150.033" fill="#2D2D2D" font-size="11" textLength="70.421" font-family="'Helvetica'">requirements</text><text x="133.076" y="150.033" fill="#2D2D2D" font-size="11" font-family="'Helvetica'"> </text><text x="135.936" y="150.033" fill="#2D2D2D" font-size="11" textLength="16.918" font-family="'Helvetica'">are</text><text x="152.854" y="150.033" fill="#2D2D2D" font-size="11" font-family="'Helvetica'"> </text><text x="155.714" y="150.033" fill="#2D2D2D" font-size="11" textLength="20.46" font-family="'Helvetica'">met</text><text x="19.249" y="165.015" fill="#2D2D2D" font-size="11" textLength="25.487" font-family="'Helvetica'">Fault</text><text x="44.736" y="165.015" fill="#2D2D2D" font-size="11" font-family="'Helvetica'"> </text><text x="47.596" y="165.015" fill="#2D2D2D" font-size="11" textLength="48.664" font-family="'Helvetica'">tolerance</text><text x="96.259" y="165.015" fill="#2D2D2D" font-size="11" font-family="'Helvetica'"> </text><text x="99.119" y="165.015" fill="#2D2D2D" font-size="11" textLength="8.107" font-family="'Helvetica'">is</text><text x="107.226" y="165.015" fill="#2D2D2D" font-size="11" font-family="'Helvetica'"> </text><text x="110.086" y="165.015" fill="#2D2D2D" font-size="11" textLength="58.839" font-family="'Helvetica'">maintained</text><text x="33.857" y="179.997" fill="#2D2D2D" font-size="11" textLength="60.786" font-family="'Helvetica'">Compliance</text><text x="94.642" y="179.997" fill="#2D2D2D" font-size="11" font-family="'Helvetica'"> </text><text x="97.502" y="179.997" fill="#2D2D2D" font-size="11" textLength="8.107" font-family="'Helvetica'">is</text><text x="105.609" y="179.997" fill="#2D2D2D" font-size="11" font-family="'Helvetica'"> </text><text x="108.469" y="179.997" fill="#2D2D2D" font-size="11" textLength="45.848" font-family="'Helvetica'">achieved</text><text x="30.293" y="194.979" fill="#2D2D2D" font-size="11" textLength="22.847" font-family="'Helvetica'">Cost</text><text x="53.14" y="194.979" fill="#2D2D2D" font-size="11" font-family="'Helvetica'"> </text><text x="56" y="194.979" fill="#2D2D2D" font-size="11" textLength="28.039" font-family="'Helvetica'">limits</text><text x="84.038" y="194.979" fill="#2D2D2D" font-size="11" font-family="'Helvetica'"> </text><text x="86.898" y="194.979" fill="#2D2D2D" font-size="11" textLength="16.918" font-family="'Helvetica'">are</text><text x="103.816" y="194.979" fill="#2D2D2D" font-size="11" font-family="'Helvetica'"> </text><text x="106.676" y="194.979" fill="#2D2D2D" font-size="11" textLength="51.205" font-family="'Helvetica'">respected</text></g><!--link svc8gb to smallNode--><g class="link" data-entity-1="ent0002" data-entity-2="ent0003" id="lnk5" data-source-line="11" data-link-type="dependency"><path d="M315.16,188.832 C306.14,201.622 296.37,217.522 290.5,233.292 C281.53,257.392 278.221,281.434 276.751,302.934" style="stroke:#C62828;stroke-width:1;stroke-dasharray:7,7;" fill="none" id="svc8gb-to-smallNode"/><polygon points="276.41,307.922,281.015,299.216,276.751,302.934,273.033,298.67,276.41,307.922" fill="#C62828" style="stroke:#C62828;stroke-width:1;stroke-linejoin:miter;stroke-miterlimit:10;"/><text x="291.5" y="253.551" fill="#2D2D2D" font-size="11" font-family="'Helvetica'">X</text><text x="297.946" y="253.551" fill="#2D2D2D" font-size="11" font-family="'Helvetica'"> </text><text x="300.806" y="253.551" fill="#2D2D2D" font-size="11" textLength="57.2" font-family="'Helvetica'">insufficient</text></g><!--link svc8gb to largeNode--><g class="link" data-entity-1="ent0002" data-entity-2="ent0004" id="lnk6" data-source-line="12" data-link-type="dependency"><path d="M348.82,189.062 C363.38,221.252 385.451,270.096 400.621,303.666" style="stroke:#2E7D32;stroke-width:1;" fill="none" id="svc8gb-to-largeNode"/><polygon points="402.68,308.222,402.619,298.373,400.621,303.666,395.329,301.668,402.68,308.222" fill="#2E7D32" style="stroke:#2E7D32;stroke-width:1;stroke-linejoin:miter;stroke-miterlimit:10;"/><text x="381.5" y="253.551" fill="#2D2D2D" font-size="11" textLength="15.4" font-family="'Helvetica'">OK</text><text x="396.9" y="253.551" fill="#2D2D2D" font-size="11" font-family="'Helvetica'"> </text><text x="399.76" y="253.551" fill="#2D2D2D" font-size="11" textLength="41.613" font-family="'Helvetica'">satisfies</text></g><!--link primary to replica--><g class="link" data-entity-1="ent0009" data-entity-2="ent0011" id="lnk12" data-source-line="23" data-link-type="dependency"><path d="M586.234,185.402 C585.854,219.392 585.146,281.162 584.766,315.172" style="stroke:#C62828;stroke-width:1;stroke-dasharray:7,7;" fill="none" id="primary-replica"/><polygon points="586.29,180.402,582.19,189.357,586.234,185.402,590.189,189.446,586.29,180.402" fill="#C62828" style="stroke:#C62828;stroke-width:1;stroke-linejoin:miter;stroke-miterlimit:10;"/><polygon points="584.71,320.172,588.81,311.217,584.766,315.172,580.811,311.128,584.71,320.172" fill="#C62828" style="stroke:#C62828;stroke-width:1;stroke-linejoin:miter;stroke-miterlimit:10;"/><text x="624.527" y="246.051" fill="#2D2D2D" font-size="11" textLength="59.114" font-family="'Helvetica'">anti-affinity</text><text x="586.5" y="261.033" fill="#2D2D2D" font-size="11" textLength="48.191" font-family="'Helvetica'">(different</text><text x="634.691" y="261.033" fill="#2D2D2D" font-size="11" font-family="'Helvetica'"> </text><text x="637.551" y="261.033" fill="#2D2D2D" font-size="11" textLength="33.176" font-family="'Helvetica'">failure</text><text x="670.726" y="261.033" fill="#2D2D2D" font-size="11" font-family="'Helvetica'"> </text><text x="673.586" y="261.033" fill="#2D2D2D" font-size="11" textLength="48.081" font-family="'Helvetica'">domains)</text></g><!--link euData to usRegion--><g class="link" data-entity-1="ent0015" data-entity-2="ent0016" id="lnk17" data-source-line="32" data-link-type="dependency"><path d="M827.04,189.062 C826.44,224.072 825.515,279.143 824.965,311.543" style="stroke:#C62828;stroke-width:1;stroke-dasharray:7,7;" fill="none" id="euData-to-usRegion"/><polygon points="824.88,316.542,829.032,307.611,824.965,311.543,821.033,307.475,824.88,316.542" fill="#C62828" style="stroke:#C62828;stroke-width:1;stroke-linejoin:miter;stroke-miterlimit:10;"/><text x="832.495" y="246.051" fill="#2D2D2D" font-size="11" font-family="'Helvetica'">X</text><text x="838.941" y="246.051" fill="#2D2D2D" font-size="11" font-family="'Helvetica'"> </text><text x="841.801" y="246.051" fill="#2D2D2D" font-size="11" textLength="32.483" font-family="'Helvetica'">GDPR:</text><text x="874.284" y="246.051" fill="#2D2D2D" font-size="11" font-family="'Helvetica'"> </text><text x="877.144" y="246.051" fill="#2D2D2D" font-size="11" textLength="23.078" font-family="'Helvetica'">data</text><text x="826.5" y="261.033" fill="#2D2D2D" font-size="11" textLength="26.323" font-family="'Helvetica'">must</text><text x="852.823" y="261.033" fill="#2D2D2D" font-size="11" font-family="'Helvetica'"> </text><text x="855.683" y="261.033" fill="#2D2D2D" font-size="11" textLength="21.021" font-family="'Helvetica'">stay</text><text x="876.704" y="261.033" fill="#2D2D2D" font-size="11" font-family="'Helvetica'"> </text><text x="879.564" y="261.033" fill="#2D2D2D" font-size="11" textLength="9.636" font-family="'Helvetica'">in</text><text x="889.2" y="261.033" fill="#2D2D2D" font-size="11" font-family="'Helvetica'"> </text><text x="892.06" y="261.033" fill="#2D2D2D" font-size="11" textLength="14.157" font-family="'Helvetica'">EU</text></g><?plantuml-src RLFRQjj047tNLqpTbmPgcxebDQOKxDZDGziqs1WATH-csf4oi5gvUp6Oa7_Fh6wHOmj9xEuvSsRdxAndhmcMjDVbiI3ZuQOqpbjaursIl66Jwg08HgFngzUNfMQJZvq_QdBZlKRZGw5bRaFgWqKzLftgK37c5ejXnHwn49F4KkhHv99-i2PN1fjIF_i0q85jWSS4v47hESFKms13zi0fxSmxGwGSJ6yNi9x_lAgYt26Tvl-g25FAxWUR0hM6EnbBmASJQaGYq6F_G9jJo_vmtQVh27NqwbSdW-6VjpVNa-ba-bwXUo3rT_ZrHHncy1lOk91bdB8OyYfoilgy_3Y98Lq22Vdr7HnwTXcJIvvE39kBa65_X37CZUTXEwysYItusBT032CByxfgUvWtwAcjzvOBjBNClXvNhATpfKMhjBYej9R3vnIRKwp6FQNgroI0BvUyQsB41em5jZN9YIZEChAnLpDa7Io1AWjf6NVrogGrvK6ZBoN5ULzrKD-arHOaY4jJaIZKaulr2NNhoExC4Zr2quvDM5mwissxwMi7LqzUtAZ3BlPHIwxQw7Pvlvw14kxE5C5vS1wFqbomsiRwJUaf9aYxYkzaHJBqB02ILhGqazNkvbdw7zXIlAtIGM9gGR5Bls7G7dofoQ8H6Zk8NdlvI5MgXPnJ2s7wm7He0DcQve8RERd9UpaQmSWeYBjCdW40?></g></svg>